<svg width="15" height="20" viewBox="0 0 15 20" fill="none" xmlns="http://www.w3.org/2000/svg">
<g clip-path="url(#clip0_82_5)">
<path d="M7.49999 0C5.51168 0.00263754 3.60556 0.79366 2.19961 2.19961C0.79366 3.60556 0.00263754 5.51168 0 7.49999C0 12.8844 6.98749 19.6281 7.28437 19.9125C7.34211 19.9686 7.41947 20 7.49999 20C7.58052 20 7.65787 19.9686 7.71562 19.9125C8.01249 19.6281 15 12.8844 15 7.49999C14.9973 5.51168 14.2063 3.60556 12.8004 2.19961C11.3944 0.79366 9.48831 0.00263754 7.49999 0ZM7.49999 10.9375C6.82012 10.9375 6.15552 10.7359 5.59022 10.3582C5.02493 9.98045 4.58434 9.44359 4.32416 8.81546C4.06398 8.18734 3.99591 7.49618 4.12855 6.82937C4.26118 6.16256 4.58857 5.55006 5.06932 5.06931C5.55006 4.58857 6.16256 4.26118 6.82937 4.12855C7.49618 3.99591 8.18735 4.06398 8.81547 4.32416C9.44359 4.58434 9.98045 5.02493 10.3582 5.59022C10.7359 6.15551 10.9375 6.82012 10.9375 7.49999C10.9369 8.41151 10.5746 9.28553 9.93007 9.93007C9.28553 10.5746 8.41151 10.9369 7.49999 10.9375Z" fill="#89B6E1"/>
</g>
<defs>
<clipPath id="clip0_82_5">
<rect width="15" height="20" fill="white"/>
</clipPath>
</defs>
</svg>
