<svg width="20" height="20" viewBox="0 0 20 20" fill="none" xmlns="http://www.w3.org/2000/svg">
<path d="M19.4342 14.678L16.6432 11.8869C15.6464 10.8901 13.9519 11.2889 13.5532 12.5847C13.2541 13.4818 12.2574 13.9802 11.3603 13.7808C9.36669 13.2824 6.67537 10.6907 6.17698 8.59745C5.87794 7.70029 6.47602 6.70348 7.37312 6.40448C8.66894 6.00575 9.06766 4.31119 8.07087 3.31438L5.27987 0.523323C4.48245 -0.174441 3.28631 -0.174441 2.58856 0.523323L0.694666 2.41725C-1.19922 4.41087 0.894023 9.69394 5.57891 14.3789C10.2638 19.0639 15.5468 21.2569 17.5403 19.2633L19.4342 17.3693C20.132 16.5719 20.132 15.3757 19.4342 14.678Z" fill="#064681"/>
</svg>
