<?xml version="1.0" encoding="utf-8"?>
<!-- Generator: Adobe Illustrator 25.4.1, SVG Export Plug-In . SVG Version: 6.00 Build 0)  -->
<svg version="1.1" id="Layer_1" xmlns="http://www.w3.org/2000/svg" xmlns:xlink="http://www.w3.org/1999/xlink" x="0px" y="0px"
	 viewBox="0 0 559 191" style="enable-background:new 0 0 559 191;" xml:space="preserve">
<style type="text/css">
	.st0{fill:#b7dafb;}
	.st1{fill-rule:evenodd;clip-rule:evenodd;fill:#b7dafb;}
</style>
<path class="st0" d="M106.4,60.3h-32v-10h32c11,0,20,9,20,20v32h-10v-32C116.4,64.8,111.9,60.3,106.4,60.3z"/>
<path class="st0" d="M70.4,116.3h32v10h-32c-11,0-20-9-20-20v-32h10v32C60.4,111.9,64.9,116.3,70.4,116.3z"/>
<path class="st1" d="M108.4,88.3c0,11-9,20-20,20s-20-9-20-20s9-20,20-20S108.4,77.3,108.4,88.3z M98.4,88.3c0,5.5-4.5,10-10,10
	c-5.5,0-10-4.5-10-10c0-5.5,4.5-10,10-10C93.9,78.3,98.4,82.8,98.4,88.3z"/>
<path class="st0" d="M169.1,120c-3.8,0-7.2-0.6-10.2-1.9c-3-1.4-5.4-3.2-7.1-5.7c-1.7-2.4-2.6-5.3-2.6-8.5h9.9
	c0.2,2.4,1.2,4.4,2.8,6c1.7,1.6,4.1,2.4,7.2,2.4c3.2,0,5.7-0.8,7.5-2.3c1.8-1.6,2.7-3.6,2.7-6c0-1.9-0.6-3.4-1.7-4.6
	c-1.1-1.2-2.5-2.1-4.1-2.8c-1.6-0.6-3.9-1.4-6.8-2.1c-3.7-1-6.7-1.9-9-2.9c-2.3-1-4.2-2.6-5.8-4.7c-1.6-2.1-2.4-4.9-2.4-8.4
	c0-3.2,0.8-6.1,2.4-8.5c1.6-2.4,3.9-4.3,6.8-5.6c2.9-1.3,6.3-1.9,10.1-1.9c5.5,0,9.9,1.4,13.4,4.1c3.5,2.7,5.5,6.4,5.8,11.2h-10.2
	c-0.2-2.1-1.1-3.8-2.9-5.3c-1.8-1.5-4.1-2.2-7.1-2.2c-2.7,0-4.8,0.7-6.5,2c-1.7,1.4-2.5,3.3-2.5,5.8c0,1.7,0.5,3.2,1.5,4.3
	c1.1,1.1,2.4,1.9,4.1,2.6c1.6,0.6,3.8,1.4,6.7,2.1c3.7,1,6.8,2.1,9.1,3.1c2.4,1,4.4,2.6,6,4.8c1.7,2.1,2.5,5,2.5,8.5
	c0,2.9-0.8,5.6-2.4,8.1c-1.5,2.5-3.8,4.6-6.7,6.2C176.5,119.2,173.1,120,169.1,120z"/>
<path class="st0" d="M218,73.9c3.5,0,6.7,0.7,9.4,2.2c2.8,1.5,5,3.6,6.6,6.5c1.6,2.9,2.4,6.3,2.4,10.4v26.4h-9.2v-25
	c0-4-1-7.1-3-9.2c-2-2.2-4.7-3.2-8.2-3.2s-6.2,1.1-8.3,3.2c-2,2.1-3,5.2-3,9.2v25h-9.3V74.7h9.3v5.1c1.5-1.8,3.4-3.3,5.8-4.3
	C212.8,74.5,215.3,73.9,218,73.9z"/>
<path class="st0" d="M241,96.8c0-4.5,0.9-8.5,2.8-11.9c1.9-3.5,4.4-6.1,7.6-8c3.2-1.9,6.8-2.9,10.7-2.9c3.5,0,6.6,0.7,9.2,2.1
	c2.7,1.4,4.8,3.1,6.3,5.1v-6.5h9.3v44.7h-9.3v-6.7c-1.6,2.1-3.7,3.9-6.4,5.3c-2.7,1.4-5.8,2.1-9.3,2.1c-3.8,0-7.4-1-10.6-2.9
	c-3.2-2-5.7-4.8-7.6-8.3C241.9,105.3,241,101.3,241,96.8z M277.6,97c0-3.1-0.6-5.8-1.9-8c-1.2-2.3-2.9-4-5-5.2
	c-2.1-1.2-4.3-1.8-6.7-1.8s-4.6,0.6-6.7,1.8c-2.1,1.1-3.7,2.8-5,5.1c-1.2,2.2-1.9,4.9-1.9,8c0,3.1,0.6,5.8,1.9,8.1
	c1.3,2.3,3,4.1,5,5.4c2.1,1.2,4.3,1.8,6.7,1.8c2.4,0,4.6-0.6,6.7-1.8c2.1-1.2,3.7-2.9,5-5.2C276.9,102.8,277.6,100.1,277.6,97z"/>
<path class="st0" d="M304.3,81.2c1.6-2.1,3.7-3.8,6.4-5.2c2.7-1.4,5.8-2.1,9.2-2.1c3.9,0,7.4,1,10.6,2.9c3.2,1.9,5.8,4.6,7.6,8
	c1.8,3.5,2.8,7.4,2.8,11.9c0,4.5-0.9,8.5-2.8,12.1c-1.8,3.5-4.4,6.3-7.6,8.3c-3.2,1.9-6.7,2.9-10.6,2.9c-3.4,0-6.4-0.7-9.1-2
	c-2.7-1.4-4.8-3.1-6.5-5.2v27.8H295v-66h9.3V81.2z M331.5,96.8c0-3.1-0.6-5.7-1.9-8c-1.2-2.3-2.9-4-5-5.1c-2.1-1.2-4.3-1.8-6.7-1.8
	c-2.3,0-4.5,0.6-6.7,1.8c-2.1,1.2-3.7,2.9-5,5.2c-1.2,2.3-1.9,5-1.9,8c0,3.1,0.6,5.8,1.9,8.1c1.3,2.3,3,4,5,5.2
	c2.1,1.2,4.3,1.8,6.7,1.8c2.4,0,4.6-0.6,6.7-1.8c2.1-1.2,3.8-3,5-5.4C330.8,102.6,331.5,99.9,331.5,96.8z"/>
<path class="st0" d="M364.6,120c-3.8,0-7.2-0.6-10.2-1.9c-3-1.4-5.4-3.2-7.1-5.7c-1.7-2.4-2.6-5.3-2.6-8.5h9.9
	c0.2,2.4,1.2,4.4,2.8,6c1.7,1.6,4.1,2.4,7.2,2.4c3.2,0,5.7-0.8,7.5-2.3c1.8-1.6,2.7-3.6,2.7-6c0-1.9-0.6-3.4-1.7-4.6
	c-1.1-1.2-2.5-2.1-4.1-2.8c-1.6-0.6-3.9-1.4-6.8-2.1c-3.7-1-6.7-1.9-9-2.9c-2.3-1-4.2-2.6-5.8-4.7c-1.6-2.1-2.4-4.9-2.4-8.4
	c0-3.2,0.8-6.1,2.4-8.5c1.6-2.4,3.9-4.3,6.8-5.6c2.9-1.3,6.3-1.9,10.1-1.9c5.5,0,9.9,1.4,13.4,4.1c3.5,2.7,5.5,6.4,5.8,11.2h-10.2
	c-0.2-2.1-1.1-3.8-2.9-5.3c-1.8-1.5-4.1-2.2-7.1-2.2c-2.7,0-4.8,0.7-6.5,2c-1.7,1.4-2.5,3.3-2.5,5.8c0,1.7,0.5,3.2,1.5,4.3
	c1.1,1.1,2.4,1.9,4.1,2.6c1.6,0.6,3.8,1.4,6.7,2.1c3.7,1,6.8,2.1,9.1,3.1c2.4,1,4.4,2.6,6,4.8c1.7,2.1,2.5,5,2.5,8.5
	c0,2.9-0.8,5.6-2.4,8.1c-1.5,2.5-3.8,4.6-6.7,6.2C372,119.2,368.6,120,364.6,120z"/>
<path class="st0" d="M414,73.9c3.4,0,6.4,0.7,9.1,2.2c2.7,1.5,4.8,3.6,6.3,6.5c1.6,2.9,2.4,6.3,2.4,10.4v26.4h-9.2v-25
	c0-4-1-7.1-3-9.2c-2-2.2-4.7-3.2-8.2-3.2s-6.2,1.1-8.3,3.2c-2,2.1-3,5.2-3,9.2v25h-9.3V59.3h9.3v20.5c1.6-1.9,3.5-3.4,5.9-4.4
	C408.5,74.5,411.2,73.9,414,73.9z"/>
<path class="st0" d="M458.9,120.1c-4.2,0-8-0.9-11.4-2.8c-3.4-1.9-6.1-4.7-8-8.1c-1.9-3.5-2.9-7.6-2.9-12.2c0-4.5,1-8.6,3-12.1
	c2-3.5,4.7-6.2,8.2-8.1c3.5-1.9,7.3-2.8,11.6-2.8s8.1,0.9,11.6,2.8c3.5,1.9,6.2,4.6,8.2,8.1c2,3.5,3,7.5,3,12.1
	c0,4.5-1,8.6-3.1,12.1c-2.1,3.5-4.9,6.2-8.4,8.2C467.1,119.2,463.2,120.1,458.9,120.1z M458.9,112.1c2.4,0,4.6-0.6,6.7-1.7
	c2.1-1.1,3.8-2.8,5.1-5.1c1.3-2.3,1.9-5,1.9-8.3c0-3.2-0.6-6-1.9-8.2c-1.2-2.3-2.9-4-5-5.1s-4.3-1.7-6.7-1.7c-2.4,0-4.6,0.6-6.7,1.7
	c-2,1.1-3.6,2.8-4.8,5.1c-1.2,2.2-1.8,5-1.8,8.2c0,4.8,1.2,8.5,3.7,11.2C452.1,110.8,455.2,112.1,458.9,112.1z"/>
<path class="st0" d="M498,82.2V107c0,1.7,0.4,2.9,1.1,3.7c0.8,0.7,2.2,1.1,4.1,1.1h5.7v7.7h-7.3c-4.2,0-7.4-1-9.6-2.9
	c-2.2-1.9-3.3-5.1-3.3-9.5V82.2h-5.3v-7.5h5.3V63.5h9.3v11.1h10.9v7.5H498z"/>
</svg>
