<?xml version="1.0" encoding="utf-8"?>
<!-- Generator: Adobe Illustrator 25.4.1, SVG Export Plug-In . SVG Version: 6.00 Build 0)  -->
<svg version="1.1" id="Layer_1" xmlns="http://www.w3.org/2000/svg" xmlns:xlink="http://www.w3.org/1999/xlink" x="0px" y="0px"
	 viewBox="0 0 463 189" style="enable-background:new 0 0 463 189;" xml:space="preserve">
<style type="text/css">
	.st0{fill:#b7dafb;}
	.st1{fill-rule:evenodd;clip-rule:evenodd;fill:#b7dafb;}
</style>
<path class="st0" d="M214.8,117.9c-3.2,0-6.1-0.5-8.8-1.6c-2.7-1.1-5-2.7-7.1-4.7c-2-2-3.6-4.3-4.7-7c-1.1-2.7-1.7-5.6-1.7-8.6
	c0-3.1,0.6-5.9,1.7-8.6c1.1-2.7,2.7-5,4.7-7c2-2,4.3-3.5,7-4.6c2.7-1.1,5.7-1.7,8.8-1.7c3.4,0,6.3,0.5,8.9,1.6
	c2.2,0.9,4.2,2.1,6,3.6c0.5,0.4,0.5,1.2,0,1.7l-4.5,4.5c-0.5,0.5-1.3,0.5-1.8,0c-0.9-0.8-2-1.4-3.1-1.9c-1.6-0.7-3.4-1-5.5-1
	c-1.8,0-3.5,0.3-5.1,1c-1.5,0.6-2.8,1.5-4,2.6c-1.1,1.2-1.9,2.6-2.6,4.2c-0.6,1.6-0.9,3.4-0.9,5.4c0,2,0.3,3.8,0.9,5.5
	c0.6,1.6,1.5,3,2.6,4.2c1.1,1.2,2.4,2.1,4,2.7c1.6,0.6,3.3,1,5.1,1c2.2,0,4-0.3,5.6-1c1.2-0.5,2.3-1.2,3.2-2c0.5-0.4,1.3-0.5,1.8,0
	l4.6,4.6c0.5,0.5,0.5,1.3-0.1,1.8c-1.8,1.5-3.8,2.7-6,3.6C221.3,117.4,218.3,117.9,214.8,117.9z"/>
<path class="st0" d="M181.4,117.3c-0.7,0-1.2-0.6-1.2-1.2V76.1c0-0.7,0.6-1.2,1.2-1.2h6.9c0.7,0,1.2,0.6,1.2,1.2V116
	c0,0.7-0.6,1.2-1.2,1.2H181.4z"/>
<path class="st0" d="M233.1,116c0,0.7,0.6,1.2,1.2,1.2h6.9c0,0,0.1,0,0.1,0c0,0,0.1,0,0.1,0h20.7c0.7,0,1.2-0.6,1.2-1.2v-5.7
	c0-0.7-0.6-1.2-1.2-1.2h-19.8v-9.5h17.7c0.7,0,1.2-0.6,1.2-1.2v-5.4c0-0.7-0.6-1.2-1.2-1.2h-17.7V83H262c0.7,0,1.2-0.6,1.2-1.2v-5.6
	c0-0.7-0.6-1.2-1.2-1.2h-20.4c0,0-0.1,0-0.1,0c0,0-0.1,0-0.1,0h-6.9c-0.7,0-1.2,0.6-1.2,1.2V116z"/>
<path class="st1" d="M275.4,117.3c-0.1,0-0.1,0-0.2,0c-0.1,0-0.1,0-0.2,0h-6.8c-0.7,0-1.2-0.6-1.2-1.2V76.1c0-0.7,0.6-1.2,1.2-1.2
	h6.8c0.1,0,0.1,0,0.2,0c0.1,0,0.1,0,0.2,0h9.7c2.7,0,5,0.5,6.9,1.5c1.9,1,3.4,2.3,4.4,4c1,1.7,1.5,3.5,1.5,5.6
	c0,2.6-0.8,4.8-2.5,6.6c-0.7,0.8-1.6,1.4-2.6,2c1.4,0.7,2.6,1.6,3.6,2.7c2,2.1,2.9,4.6,2.9,7.7c0,2.3-0.6,4.4-1.7,6.3
	c-1.1,1.8-2.8,3.3-4.9,4.4c-2.1,1.1-4.7,1.6-7.7,1.6H275.4z M276.3,109.9h7.9c1.8,0,3.3-0.5,4.3-1.6c1-1.1,1.6-2.4,1.6-4
	c0-1.1-0.2-2-0.7-2.9c-0.5-0.8-1.2-1.5-2-2c-0.8-0.5-1.9-0.7-3.1-0.7h-7.9V109.9z M283.4,91.6h-7.1v-9.4h7.1c1.6,0,2.8,0.4,3.8,1.2
	c1,0.8,1.4,1.9,1.4,3.5c0,1.6-0.5,2.8-1.4,3.6C286.2,91.3,284.9,91.6,283.4,91.6z"/>
<path class="st0" d="M302.4,116c0,0.7,0.6,1.2,1.2,1.2h6.9c0,0,0.1,0,0.1,0c0,0,0.1,0,0.1,0h20.7c0.7,0,1.2-0.6,1.2-1.2v-5.7
	c0-0.7-0.6-1.2-1.2-1.2h-19.8v-9.5h17.7c0.7,0,1.2-0.6,1.2-1.2v-5.4c0-0.7-0.6-1.2-1.2-1.2h-17.7V83h19.5c0.7,0,1.2-0.6,1.2-1.2
	v-5.6c0-0.7-0.6-1.2-1.2-1.2h-20.4c0,0-0.1,0-0.1,0c0,0-0.1,0-0.1,0h-6.9c-0.7,0-1.2,0.6-1.2,1.2V116z"/>
<path class="st1" d="M345.8,116V99.8h1.2c0,0.2,0.1,0.5,0.2,0.7l11.8,16.3c0.2,0.3,0.6,0.5,1,0.5h8c1,0,1.6-1.2,1-2l-12-15.8
	c1.4-0.3,2.8-0.7,4-1.3c2.2-1,3.8-2.5,5-4.3c1.2-1.9,1.8-4.1,1.8-6.5c0-2.4-0.6-4.6-1.8-6.5c-1.2-1.9-2.9-3.3-5-4.4
	c-2.1-1.1-4.6-1.6-7.4-1.6h-8.8c0,0-0.1,0-0.1,0c0,0-0.1,0-0.1,0h-6.9c-0.7,0-1.2,0.6-1.2,1.2V116c0,0.7,0.6,1.2,1.2,1.2h6.9
	C345.2,117.3,345.8,116.7,345.8,116z M352.5,92.8h-6.7V82.2h6.8c1.9,0,3.3,0.5,4.3,1.5c1,1,1.5,2.3,1.5,3.8c0,1.6-0.5,2.9-1.6,3.9
	C355.8,92.4,354.4,92.8,352.5,92.8z"/>
<path class="st0" d="M382.7,116.2c2.7,1.1,5.6,1.7,8.7,1.7c4.2,0,7.9-0.9,11.1-2.6c3.2-1.8,5.8-4.4,7.6-7.8
	c1.8-3.5,2.8-7.8,2.8-12.8v-0.1c0-0.7-0.6-1.2-1.2-1.2h-19.8c-0.7,0-1.2,0.6-1.2,1.2v5.5c0,0.7,0.5,1.2,1.2,1.2l10.9,0.2
	c-0.2,0.9-0.6,1.7-0.9,2.4c-0.9,1.8-2.3,3.1-4,4.1c-1.7,0.9-3.8,1.4-6.3,1.4c-2.4,0-4.6-0.6-6.5-1.7c-1.9-1.1-3.4-2.7-4.4-4.7
	c-1.1-2-1.6-4.3-1.6-7s0.5-4.9,1.6-6.9c1.1-2,2.7-3.5,4.6-4.6c2-1.1,4.2-1.7,6.7-1.7c2.3,0,4.4,0.4,6.2,1.3c1.4,0.7,2.7,1.7,3.9,2.9
	c0.5,0.5,1.4,0.6,1.9,0.1l4.6-4.6c0.5-0.5,0.5-1.2,0-1.7c-1.8-1.9-4.1-3.5-6.7-4.6c-3-1.3-6.3-2-9.9-2c-3.2,0-6.1,0.6-8.9,1.7
	c-2.8,1.1-5.2,2.6-7.3,4.6c-2,2-3.6,4.3-4.8,6.9c-1.2,2.6-1.7,5.5-1.7,8.6c0,3.1,0.6,6,1.7,8.6c1.2,2.6,2.7,5,4.7,7
	C377.7,113.6,380.1,115.1,382.7,116.2z"/>
<path class="st0" d="M56.3,59.8C51,66.6,51,76.4,51,96.2c0,19.7,0,29.6,5.3,36.4c1.2,1.5,2.6,2.9,4.2,4.2c0.6,0.5,1.2,0.9,1.9,1.3
	l26.1-57.7c1.1-2.5,4-3.7,6.6-2.8l16.6,6.1c1.6,0.6,2.8,1.9,3.2,3.5l15.2,51.6c1.1-0.6,2.2-1.2,3.1-2c1.5-1.2,2.9-2.6,4.2-4.2
	c5.3-6.7,5.3-16.6,5.3-36.4c0-19.7,0-29.6-5.3-36.4c-1.2-1.5-2.6-2.9-4.2-4.2c-6.7-5.3-16.6-5.3-36.4-5.3c-19.7,0-29.6,0-36.4,5.3
	C58.9,56.9,57.5,58.3,56.3,59.8z"/>
</svg>
