<?xml version="1.0" encoding="utf-8"?>
<!-- Generator: Adobe Illustrator 25.4.1, SVG Export Plug-In . SVG Version: 6.00 Build 0)  -->
<svg version="1.1" id="Layer_1" xmlns="http://www.w3.org/2000/svg" xmlns:xlink="http://www.w3.org/1999/xlink" x="0px" y="0px"
	 viewBox="0 0 644 179" style="enable-background:new 0 0 644 179;" xml:space="preserve">
<style type="text/css">
	.st0{fill:#b7dafb;}
</style>
<path class="st0" d="M151.7,122.6V53.1h12.7l32.7,49v-49h12.7v69.6h-12.7l-32.7-48.9v48.9H151.7z"/>
<path class="st0" d="M242,123.8c-5,0-9.4-1.1-13.2-3.2c-3.8-2.1-6.9-5.1-9-8.9c-2.2-3.8-3.3-8.3-3.3-13.3c0-5.1,1.1-9.6,3.2-13.6
	c2.2-4,5.2-7.1,8.9-9.2c3.8-2.3,8.3-3.4,13.5-3.4c4.8,0,9.1,1.1,12.8,3.2c3.7,2.1,6.6,5,8.6,8.7c2.1,3.6,3.2,7.7,3.2,12.2
	c0,0.7,0,1.5-0.1,2.3c0,0.8,0,1.6-0.1,2.5h-37.5c0.3,3.8,1.6,6.9,4,9c2.5,2.2,5.4,3.3,8.8,3.3c2.6,0,4.7-0.6,6.5-1.7
	c1.8-1.2,3.1-2.7,4-4.6h12.9c-0.9,3.1-2.5,6-4.7,8.5c-2.1,2.5-4.8,4.5-8,6C249.6,123.1,246,123.8,242,123.8z M242.1,82.5
	c-3.1,0-5.9,0.9-8.2,2.7c-2.4,1.7-3.9,4.4-4.6,8h24.6c-0.2-3.2-1.4-5.8-3.6-7.8C248.1,83.4,245.4,82.5,242.1,82.5z"/>
<path class="st0" d="M264.4,122.6L282.3,98l-17.9-24.6h13.6l12.5,17.5L303,73.3h13.7l-18,24.6l18,24.6H303l-12.4-17.5l-12.5,17.5
	H264.4z"/>
<path class="st0" d="M341.8,122.6c-5.2,0-9.3-1.3-12.4-3.8c-3.1-2.5-4.7-7-4.7-13.4V84h-8.4V73.3h8.4l1.5-13.2h11.2v13.2h13.3V84
	h-13.3v21.6c0,2.4,0.5,4,1.5,5c1.1,0.9,2.8,1.3,5.4,1.3h6.2v10.8H341.8z"/>
<path class="st0" d="M356.7,122.6V73.3H368l1.1,6.7c1.6-2.4,3.7-4.3,6.3-5.7c2.6-1.5,5.7-2.2,9.1-2.2c7.6,0,13,2.9,16.2,8.8
	c1.8-2.7,4.2-4.9,7.2-6.5c3-1.6,6.4-2.4,9.9-2.4c6.4,0,11.4,1.9,14.8,5.8c3.4,3.8,5.2,9.5,5.2,16.9v27.8H425V96
	c0-4.2-0.8-7.5-2.5-9.7c-1.6-2.3-4.1-3.4-7.5-3.4c-3.4,0-6.2,1.3-8.3,3.8c-2.1,2.5-3.1,6-3.1,10.5v25.4h-12.7V96
	c0-4.2-0.8-7.5-2.5-9.7c-1.7-2.3-4.2-3.4-7.7-3.4c-3.4,0-6.1,1.3-8.2,3.8c-2.1,2.5-3.1,6-3.1,10.5v25.4H356.7z"/>
<path class="st0" d="M468.5,123.8c-4.8,0-9.1-1.1-12.9-3.3c-3.8-2.2-6.8-5.2-9-9c-2.2-3.9-3.3-8.4-3.3-13.5c0-5.1,1.1-9.6,3.4-13.4
	c2.3-3.9,5.3-7,9-9.1c3.8-2.2,8.1-3.3,12.9-3.3c4.7,0,8.9,1.1,12.7,3.3c3.8,2.2,6.9,5.2,9,9.1c2.3,3.8,3.4,8.3,3.4,13.4
	c0,5.1-1.1,9.6-3.4,13.5c-2.2,3.8-5.2,6.9-9,9C477.5,122.7,473.2,123.8,468.5,123.8z M468.5,112.8c3.3,0,6.2-1.2,8.6-3.7
	c2.5-2.5,3.7-6.2,3.7-11.1c0-4.9-1.2-8.6-3.7-11c-2.5-2.5-5.3-3.8-8.5-3.8c-3.4,0-6.3,1.3-8.7,3.8c-2.4,2.5-3.6,6.1-3.6,11
	c0,4.9,1.2,8.6,3.6,11.1C462.3,111.6,465.2,112.8,468.5,112.8z"/>
<path class="st0" d="M511,122.6L493,73.3h13.3l12.5,37.3l12.5-37.3h13.3l-18.2,49.3H511z"/>
<path class="st0" d="M569.2,123.8c-5,0-9.4-1.1-13.2-3.2c-3.8-2.1-6.9-5.1-9-8.9c-2.2-3.8-3.3-8.3-3.3-13.3c0-5.1,1.1-9.6,3.2-13.6
	c2.2-4,5.2-7.1,8.9-9.2c3.8-2.3,8.3-3.4,13.5-3.4c4.8,0,9.1,1.1,12.8,3.2c3.7,2.1,6.6,5,8.6,8.7c2.1,3.6,3.2,7.7,3.2,12.2
	c0,0.7,0,1.5-0.1,2.3c0,0.8,0,1.6-0.1,2.5h-37.5c0.3,3.8,1.6,6.9,4,9c2.5,2.2,5.4,3.3,8.8,3.3c2.6,0,4.7-0.6,6.5-1.7
	c1.8-1.2,3.1-2.7,4-4.6h12.9c-0.9,3.1-2.5,6-4.7,8.5c-2.1,2.5-4.8,4.5-8,6C576.7,123.1,573.2,123.8,569.2,123.8z M569.3,82.5
	c-3.1,0-5.9,0.9-8.2,2.7c-2.4,1.7-3.9,4.4-4.6,8H581c-0.2-3.2-1.4-5.8-3.6-7.8C575.3,83.4,572.6,82.5,569.3,82.5z"/>
<path class="st0" d="M89,51.7v31.5c0,3.6-2.9,6.5-6.5,6.5H51v-13h15.7L50.2,60.1l9.2-9.2L76,67.5V51.7H89z"/>
<path class="st0" d="M127.4,90.1H95.9c-3.6,0-6.5,2.9-6.5,6.5v31.5h13v-15.7l16.5,16.5l9.2-9.2l-16.6-16.6h15.8V90.1z"/>
</svg>
