<?xml version="1.0" encoding="utf-8"?>
<!-- Generator: Adobe Illustrator 25.4.1, SVG Export Plug-In . SVG Version: 6.00 Build 0)  -->
<svg version="1.1" id="Layer_1" xmlns="http://www.w3.org/2000/svg" xmlns:xlink="http://www.w3.org/1999/xlink" x="0px" y="0px"
	 viewBox="0 0 358 151" style="enable-background:new 0 0 358 151;" xml:space="preserve">
<style type="text/css">
	.st0{fill:#B7DAFB;}
	.st1{fill-rule:evenodd;clip-rule:evenodd;fill:#B7DAFB;}
</style>
<path class="st0" d="M99.5,97c0.4,4.7-1.2,9.6-4.8,13.2c-3.6,3.6-8.5,5.3-13.2,4.9c-0.4-4.7,1.2-9.6,4.8-13.2
	C89.9,98.3,94.8,96.6,99.5,97z"/>
<path class="st0" d="M90.9,90.4c-4.7,5.1-11.6,8.1-19,7.7c-7.5-0.3-14-4-18.2-9.4c4.7-5.1,11.6-8.1,19-7.7
	C80.2,81.3,86.7,85,90.9,90.4z"/>
<path class="st0" d="M50.9,74.2c1-11.8,7-23.2,17.4-30.7c10.4-7.5,23.1-9.5,34.6-6.7c-1,11.8-7,23.2-17.4,30.7
	C75.1,75,62.4,77,50.9,74.2z"/>
<path class="st0" d="M242.6,59.6v7.2h4.3v37.7h7.7V66.9h10.1v-7.2h-10.1v-7.4c0-2.1,0.2-3.8,0.6-5.1c0.4-1.3,0.9-2.2,1.5-2.7
	c0.7-0.6,1.5-0.9,2.5-0.9c0.8,0,1.6,0.2,2.4,0.5c0.9,0.3,1.7,0.9,2.3,2l4.2-6.3c-0.4-0.6-1.1-1.2-1.9-1.8c-0.8-0.6-1.7-1.1-2.8-1.4
	c-1.1-0.4-2.3-0.6-3.7-0.6c-2.7,0-5,0.6-6.9,1.7c-1.9,1.1-3.3,2.8-4.3,5c-1,2.2-1.5,5.1-1.5,8.6v8.3H242.6z"/>
<path class="st0" d="M121.9,45v59.6h34.6v-7.7h-26.4V45H121.9z"/>
<path class="st1" d="M177,105.5c4.7,0,8.8-0.9,12.3-2.8c3.5-1.9,6.4-4.7,8.7-8.5l-6.2-3.9c-1.6,2.7-3.6,4.7-5.9,6.1
	c-2.3,1.3-5,1.9-8,1.9s-5.6-0.6-7.7-1.9c-2.1-1.3-3.7-3.1-4.8-5.6c-0.8-1.8-1.3-4-1.5-6.4h34.8v-0.9c0.1-0.5,0.1-1,0.1-1.4
	c0-4.7-0.8-8.7-2.5-12.1c-1.7-3.4-4.1-6-7.2-7.8c-3.1-1.9-6.8-2.8-11.1-2.8s-8.2,1-11.5,2.9c-3.3,1.9-5.8,4.6-7.7,8.1
	c-1.8,3.5-2.7,7.5-2.7,12.1c0,4.5,0.9,8.6,2.6,12c1.8,3.5,4.3,6.2,7.4,8.2C169.2,104.5,172.9,105.5,177,105.5z M165.6,73.4
	c-0.6,1.3-1.1,2.8-1.4,4.4h26.2c-0.1-2.1-0.7-4-1.6-5.6c-1-1.9-2.5-3.4-4.3-4.5c-1.9-1.1-4-1.6-6.5-1.6c-2.9,0-5.5,0.6-7.6,1.9
	C168.3,69.2,166.7,71,165.6,73.4z"/>
<path class="st1" d="M230.1,80.3c-1.2-0.8-2.7-1.5-4.6-2.1c-2.1-0.8-4.8-1.2-8-1.2c-5.4,0-9.7,1.3-12.8,3.9c-3,2.6-4.5,6-4.5,10.3
	c0,3,0.7,5.6,2.1,7.7c1.4,2.1,3.3,3.7,5.6,4.9c2.4,1.1,4.9,1.6,7.6,1.6c2.4,0,4.9-0.4,7.3-1.3c2.5-0.9,4.6-2.3,6.2-4.1
	c0.4-0.4,0.8-0.9,1.1-1.4v5.9h7.7V72.8c0-2.9-0.7-5.3-2.2-7.3c-1.4-2-3.4-3.5-6.1-4.5c-2.6-1.1-5.6-1.6-9-1.6
	c-4.1,0-7.6,0.6-10.6,1.8c-2.9,1.2-5.2,2.4-6.8,3.7l3.7,5.7c0.7-0.5,1.7-1.1,2.9-1.8c1.2-0.7,2.7-1.3,4.4-1.8c1.8-0.5,3.8-0.8,6-0.8
	c1.3,0,2.6,0.1,3.8,0.4c1.2,0.3,2.3,0.7,3.2,1.2c1,0.6,1.7,1.4,2.2,2.4c0.5,1,0.8,2.2,0.8,3.7V80.3z M209.2,86.8
	c-0.8,1.2-1.2,2.5-1.2,4.1c0,1.7,0.4,3.1,1.2,4.3c0.8,1.2,2,2.1,3.4,2.8c1.5,0.6,3.1,0.9,5,0.9c2.4,0,4.5-0.5,6.3-1.4
	c1.9-1,3.4-2.3,4.5-4c1.2-1.8,1.7-3.8,1.7-6.1v-1.7c-1.2-0.6-2.5-1.1-3.7-1.4c-2.4-0.7-4.9-1.1-7.6-1.1c-2.5,0-4.5,0.3-6.1,1
	C211.1,84.7,209.9,85.6,209.2,86.8z"/>
<path class="st1" d="M298.1,102.7c-3.5,1.9-7.6,2.8-12.3,2.8c-4.1,0-7.8-1-11-2.9c-3.1-2-5.6-4.7-7.4-8.2c-1.7-3.5-2.6-7.5-2.6-12
	c0-4.6,0.9-8.6,2.7-12.1c1.9-3.5,4.4-6.1,7.7-8.1c3.3-1.9,7.2-2.9,11.5-2.9c4.4,0,8.1,0.9,11.1,2.8c3.1,1.8,5.5,4.4,7.2,7.8
	c1.7,3.4,2.5,7.4,2.5,12.1c0,0.4,0,0.9-0.1,1.4v0.9h-34.8c0.2,2.4,0.7,4.6,1.5,6.4c1.1,2.4,2.7,4.3,4.8,5.6c2.1,1.3,4.7,1.9,7.7,1.9
	c3,0,5.7-0.6,8-1.9c2.3-1.3,4.3-3.4,5.9-6.1l6.2,3.9C304.5,98,301.6,100.8,298.1,102.7z M273,77.8c0.3-1.6,0.7-3.1,1.4-4.4
	c1.2-2.4,2.8-4.2,4.8-5.4c2.1-1.3,4.6-1.9,7.6-1.9c2.5,0,4.7,0.5,6.5,1.6c1.9,1.1,3.3,2.6,4.3,4.5c0.9,1.6,1.4,3.5,1.6,5.6H273z"/>
</svg>
