<svg width="644" height="179" viewBox="0 0 644 179" fill="none" xmlns="http://www.w3.org/2000/svg">
<path d="M151.72 122.636V53.061H164.442L197.142 102.062V53.061H209.864V122.636H197.142L164.442 73.7347V122.636H151.72Z" fill="#064681"/>
<path d="M242.038 123.829C237.068 123.829 232.662 122.768 228.819 120.648C224.976 118.528 221.961 115.546 219.774 111.703C217.587 107.859 216.494 103.42 216.494 98.3841C216.494 93.2819 217.554 88.743 219.675 84.7673C221.861 80.7916 224.843 77.7104 228.62 75.5238C232.463 73.2709 236.969 72.1444 242.137 72.1444C246.975 72.1444 251.248 73.2046 254.959 75.325C258.67 77.4453 261.552 80.3609 263.606 84.0715C265.727 87.7159 266.787 91.791 266.787 96.2968C266.787 97.0257 266.754 97.7877 266.687 98.5828C266.687 99.378 266.654 100.206 266.588 101.068H229.117C229.382 104.911 230.707 107.926 233.093 110.112C235.544 112.299 238.493 113.392 241.939 113.392C244.523 113.392 246.676 112.829 248.399 111.703C250.188 110.51 251.513 108.986 252.375 107.131H265.296C264.368 110.245 262.811 113.094 260.624 115.678C258.504 118.196 255.854 120.184 252.673 121.642C249.559 123.1 246.014 123.829 242.038 123.829ZM242.137 82.4812C239.023 82.4812 236.273 83.3758 233.888 85.1648C231.502 86.8876 229.978 89.5381 229.316 93.1162H253.866C253.667 89.8694 252.474 87.2852 250.288 85.3636C248.101 83.442 245.384 82.4812 242.137 82.4812Z" fill="#064681"/>
<path d="M264.449 122.636L282.339 97.9865L264.449 73.3371H278.066L290.589 90.8302L303.013 73.3371H316.729L298.739 97.9865L316.729 122.636H303.013L290.589 105.143L278.066 122.636H264.449Z" fill="#064681"/>
<path d="M341.831 122.636C336.662 122.636 332.521 121.377 329.406 118.859C326.292 116.341 324.735 111.868 324.735 105.441V83.9721H316.287V73.3371H324.735L326.226 60.1179H337.457V73.3371H350.776V83.9721H337.457V105.54C337.457 107.926 337.954 109.582 338.948 110.51C340.008 111.371 341.797 111.802 344.315 111.802H350.478V122.636H341.831Z" fill="#064681"/>
<path d="M356.729 122.636V73.3371H367.961L369.054 79.9964C370.644 77.611 372.732 75.7225 375.316 74.331C377.966 72.8733 381.014 72.1444 384.46 72.1444C392.08 72.1444 397.48 75.0931 400.661 80.9904C402.45 78.2736 404.835 76.1201 407.817 74.5298C410.865 72.9396 414.178 72.1444 417.756 72.1444C424.184 72.1444 429.12 74.066 432.566 77.9092C436.011 81.7524 437.734 87.3846 437.734 94.8059V122.636H425.012V95.9986C425.012 91.7579 424.184 88.5111 422.527 86.2582C420.937 84.0053 418.452 82.8788 415.073 82.8788C411.627 82.8788 408.844 84.1378 406.724 86.6557C404.67 89.1737 403.643 92.6856 403.643 97.1913V122.636H390.92V95.9986C390.92 91.7579 390.092 88.5111 388.436 86.2582C386.779 84.0053 384.228 82.8788 380.782 82.8788C377.403 82.8788 374.653 84.1378 372.533 86.6557C370.479 89.1737 369.452 92.6856 369.452 97.1913V122.636H356.729Z" fill="#064681"/>
<path d="M468.499 123.829C463.728 123.829 459.421 122.735 455.578 120.549C451.801 118.362 448.786 115.347 446.533 111.504C444.346 107.594 443.253 103.089 443.253 97.9865C443.253 92.8843 444.379 88.4117 446.632 84.5685C448.885 80.659 451.9 77.611 455.677 75.4244C459.52 73.2377 463.827 72.1444 468.598 72.1444C473.303 72.1444 477.543 73.2377 481.32 75.4244C485.163 77.611 488.178 80.659 490.365 84.5685C492.618 88.4117 493.744 92.8843 493.744 97.9865C493.744 103.089 492.618 107.594 490.365 111.504C488.178 115.347 485.163 118.362 481.32 120.549C477.477 122.735 473.203 123.829 468.499 123.829ZM468.499 112.796C471.812 112.796 474.694 111.57 477.146 109.118C479.597 106.601 480.823 102.89 480.823 97.9865C480.823 93.0831 479.597 89.4056 477.146 86.9539C474.694 84.436 471.845 83.177 468.598 83.177C465.219 83.177 462.303 84.436 459.851 86.9539C457.466 89.4056 456.273 93.0831 456.273 97.9865C456.273 102.89 457.466 106.601 459.851 109.118C462.303 111.57 465.186 112.796 468.499 112.796Z" fill="#064681"/>
<path d="M511.042 122.636L492.952 73.3371H506.271L518.794 110.609L531.318 73.3371H544.636L526.448 122.636H511.042Z" fill="#064681"/>
<path d="M569.218 123.829C564.249 123.829 559.842 122.768 555.999 120.648C552.156 118.528 549.141 115.546 546.954 111.703C544.768 107.859 543.674 103.42 543.674 98.3841C543.674 93.2819 544.735 88.743 546.855 84.7673C549.042 80.7916 552.023 77.7104 555.8 75.5238C559.643 73.2709 564.149 72.1444 569.318 72.1444C574.155 72.1444 578.429 73.2046 582.139 75.325C585.85 77.4453 588.732 80.3609 590.786 84.0715C592.907 87.7159 593.967 91.791 593.967 96.2968C593.967 97.0257 593.934 97.7877 593.868 98.5828C593.868 99.378 593.834 100.206 593.768 101.068H556.297C556.562 104.911 557.888 107.926 560.273 110.112C562.725 112.299 565.673 113.392 569.119 113.392C571.703 113.392 573.857 112.829 575.579 111.703C577.368 110.51 578.694 108.986 579.555 107.131H592.476C591.548 110.245 589.991 113.094 587.805 115.678C585.684 118.196 583.034 120.184 579.853 121.642C576.739 123.1 573.194 123.829 569.218 123.829ZM569.318 82.4812C566.203 82.4812 563.453 83.3758 561.068 85.1648C558.683 86.8876 557.159 89.5381 556.496 93.1162H581.046C580.847 89.8694 579.654 87.2852 577.468 85.3636C575.281 83.442 572.564 82.4812 569.318 82.4812Z" fill="#064681"/>
<path d="M88.9863 51.7085V83.1607C88.9863 86.7505 86.0762 89.6607 82.4863 89.6607L51.0341 89.6607L51.0341 76.6607H66.7764L50.2363 60.1206L59.4287 50.9282L75.9863 67.4858L75.9863 51.7085L88.9863 51.7085Z" fill="#064681"/>
<path d="M127.383 90.1064H95.9307C92.3408 90.1064 89.4307 93.0166 89.4307 96.6064V128.059L102.431 128.059L102.431 112.315L118.972 128.856L128.164 119.664L111.607 103.106H127.383V90.1064Z" fill="#064681"/>
</svg>
