<?xml version="1.0" encoding="utf-8"?>
<!-- Generator: Adobe Illustrator 25.4.1, SVG Export Plug-In . SVG Version: 6.00 Build 0)  -->
<svg version="1.1" id="Layer_1" xmlns="http://www.w3.org/2000/svg" xmlns:xlink="http://www.w3.org/1999/xlink" x="0px" y="0px"
	 viewBox="0 0 534 209" style="enable-background:new 0 0 534 209;" xml:space="preserve">
<style type="text/css">
	.st0{fill:#b7dafb;}
</style>
<path class="st0" d="M185.8,116.8h-16l-2.6,7.6h-8.5l14.4-40.2h9.4l14.4,40.2h-8.5L185.8,116.8z M183.6,110.4l-5.8-16.8l-5.8,16.8
	H183.6z"/>
<path class="st0" d="M230.1,92.6v31.9H222v-4c-1,1.4-2.4,2.5-4.1,3.3c-1.6,0.8-3.4,1.2-5.4,1.2c-2.5,0-4.7-0.5-6.6-1.6
	c-1.9-1.1-3.4-2.6-4.5-4.7c-1.1-2.1-1.6-4.5-1.6-7.4V92.6h8v17.5c0,2.5,0.6,4.5,1.9,5.9c1.3,1.3,3,2,5.2,2c2.2,0,4-0.7,5.2-2
	c1.3-1.4,1.9-3.3,1.9-5.9V92.6H230.1z"/>
<path class="st0" d="M245.1,99.2v15.4c0,1.1,0.2,1.9,0.7,2.4c0.5,0.5,1.4,0.7,2.6,0.7h3.7v6.8h-5.1c-6.8,0-10.2-3.3-10.2-9.9V99.2
	h-3.8v-6.6h3.8v-7.9h8.1v7.9h7.1v6.6H245.1z"/>
<path class="st0" d="M269.9,125c-3.1,0-5.8-0.7-8.3-2c-2.5-1.4-4.4-3.3-5.8-5.8c-1.4-2.5-2.1-5.4-2.1-8.6c0-3.3,0.7-6.1,2.1-8.6
	c1.5-2.5,3.4-4.4,5.9-5.7c2.5-1.4,5.3-2.1,8.3-2.1c3.1,0,5.8,0.7,8.3,2.1c2.5,1.3,4.4,3.3,5.9,5.7c1.5,2.5,2.2,5.4,2.2,8.6
	c0,3.3-0.7,6.1-2.2,8.6c-1.5,2.5-3.4,4.4-6,5.8C275.8,124.3,273,125,269.9,125z M269.9,118c1.5,0,2.8-0.3,4.1-1
	c1.3-0.7,2.3-1.8,3.1-3.2c0.8-1.4,1.1-3.1,1.1-5.2c0-3-0.8-5.3-2.4-7c-1.6-1.6-3.5-2.5-5.8-2.5c-2.3,0-4.2,0.8-5.8,2.5
	c-1.5,1.6-2.3,3.9-2.3,7s0.7,5.4,2.2,7C265.7,117.2,267.6,118,269.9,118z"/>
<path class="st0" d="M329.7,92.1c3.9,0,7.1,1.2,9.4,3.6c2.4,2.4,3.6,5.7,3.6,10v18.7h-8v-17.6c0-2.5-0.6-4.4-1.9-5.7
	c-1.3-1.3-3-2-5.2-2s-3.9,0.7-5.2,2c-1.3,1.3-1.9,3.2-1.9,5.7v17.6h-8.1v-17.6c0-2.5-0.6-4.4-1.9-5.7c-1.3-1.3-3-2-5.2-2
	c-2.2,0-4,0.7-5.3,2c-1.3,1.3-1.9,3.2-1.9,5.7v17.6h-8V92.6h8v3.9c1-1.3,2.4-2.4,4-3.2c1.6-0.8,3.4-1.1,5.4-1.1
	c2.5,0,4.7,0.5,6.7,1.6c2,1,3.5,2.5,4.5,4.5c1-1.8,2.5-3.3,4.5-4.4C325.2,92.7,327.4,92.1,329.7,92.1z"/>
<path class="st0" d="M346,108.4c0-3.2,0.6-6.1,1.9-8.6c1.3-2.5,3-4.4,5.2-5.7c2.2-1.3,4.7-2,7.4-2c2.4,0,4.4,0.5,6.2,1.4
	c1.8,1,3.2,2.2,4.3,3.6v-4.5h8.1v31.9H371v-4.7c-1,1.5-2.5,2.7-4.3,3.7c-1.8,1-3.9,1.4-6.3,1.4c-2.7,0-5.1-0.7-7.4-2.1
	c-2.2-1.4-3.9-3.3-5.2-5.8C346.6,114.6,346,111.7,346,108.4z M371,108.5c0-2-0.4-3.6-1.1-5c-0.8-1.4-1.8-2.5-3.1-3.2
	c-1.3-0.8-2.7-1.1-4.2-1.1c-1.5,0-2.9,0.4-4.1,1.1c-1.3,0.7-2.3,1.8-3.1,3.2c-0.8,1.4-1.1,3-1.1,4.9c0,1.9,0.4,3.6,1.1,5.1
	c0.8,1.4,1.8,2.5,3.1,3.3c1.3,0.8,2.7,1.2,4.1,1.2c1.5,0,2.9-0.4,4.2-1.1c1.3-0.8,2.3-1.8,3.1-3.2C370.7,112.2,371,110.5,371,108.5z
	"/>
<path class="st0" d="M394.1,99.2v15.4c0,1.1,0.2,1.9,0.7,2.4c0.5,0.5,1.4,0.7,2.6,0.7h3.7v6.8h-5.1c-6.8,0-10.2-3.3-10.2-9.9V99.2
	h-3.8v-6.6h3.8v-7.9h8.1v7.9h7.1v6.6H394.1z"/>
<path class="st0" d="M408.8,88.8c-1.4,0-2.6-0.4-3.6-1.3c-0.9-0.9-1.4-2.1-1.4-3.4c0-1.3,0.5-2.5,1.4-3.3c1-0.9,2.1-1.4,3.6-1.4
	s2.6,0.5,3.5,1.4c1,0.9,1.4,2,1.4,3.3c0,1.3-0.5,2.5-1.4,3.4C411.4,88.4,410.2,88.8,408.8,88.8z M412.8,92.6v31.9h-8V92.6H412.8z"/>
<path class="st0" d="M432.6,125c-3.1,0-5.8-0.7-8.3-2c-2.5-1.4-4.4-3.3-5.8-5.8c-1.4-2.5-2.1-5.4-2.1-8.6c0-3.3,0.7-6.1,2.1-8.6
	c1.5-2.5,3.4-4.4,5.9-5.7c2.5-1.4,5.3-2.1,8.3-2.1c3.1,0,5.8,0.7,8.3,2.1c2.5,1.3,4.4,3.3,5.9,5.7c1.5,2.5,2.2,5.4,2.2,8.6
	c0,3.3-0.7,6.1-2.2,8.6c-1.5,2.5-3.4,4.4-6,5.8C438.5,124.3,435.7,125,432.6,125z M432.6,118c1.5,0,2.8-0.3,4.1-1
	c1.3-0.7,2.3-1.8,3.1-3.2c0.8-1.4,1.1-3.1,1.1-5.2c0-3-0.8-5.3-2.4-7c-1.6-1.6-3.5-2.5-5.8-2.5c-2.3,0-4.2,0.8-5.8,2.5
	c-1.5,1.6-2.3,3.9-2.3,7s0.7,5.4,2.2,7C428.3,117.2,430.3,118,432.6,118z"/>
<path class="st0" d="M470.4,92.1c3.8,0,6.9,1.2,9.2,3.6c2.3,2.4,3.5,5.7,3.5,10v18.7h-8v-17.6c0-2.5-0.6-4.5-1.9-5.8
	c-1.3-1.4-3-2.1-5.2-2.1c-2.2,0-4,0.7-5.3,2.1c-1.3,1.3-1.9,3.3-1.9,5.8v17.6h-8V92.6h8v4c1.1-1.4,2.4-2.5,4.1-3.2
	C466.6,92.5,468.4,92.1,470.4,92.1z"/>
<path class="st0" d="M92.8,91.8v-9.7c-11.8,0.4-21.3,10.1-21.3,22v1.5H50.8v-1.5c0-23.3,18.7-42.3,41.9-42.7V50.9l35.5,20.8
	L92.8,91.8z"/>
<path class="st0" d="M110.9,104.1v1.5c0,11.9-9.4,21.6-21.3,22V118l-35.5,20l35.5,20.8v-10.5c23.2-0.4,41.9-19.4,41.9-42.7v-1.5
	H110.9z"/>
</svg>
