<?xml version="1.0" encoding="utf-8"?>
<!-- Generator: Adobe Illustrator 25.4.1, SVG Export Plug-In . SVG Version: 6.00 Build 0)  -->
<svg version="1.1" id="Layer_1" xmlns="http://www.w3.org/2000/svg" xmlns:xlink="http://www.w3.org/1999/xlink" x="0px" y="0px"
	 viewBox="0 0 451 165" style="enable-background:new 0 0 451 165;" xml:space="preserve">
<style type="text/css">
	.st0{fill:#b7dafb;}
	.st1{fill-rule:evenodd;clip-rule:evenodd;fill:#b7dafb;}
</style>
<path class="st0" d="M162.6,108c-5.1,0-9.5-1-13.4-3c-3.9-2-6.9-4.9-9-8.6c-2.1-3.7-3.2-8.1-3.2-13.1c0-5,1.1-9.4,3.2-13.1
	c2.1-3.8,5.1-6.6,9-8.6c3.9-2,8.4-3.1,13.4-3.1c3.4,0,6.5,0.4,9.1,1.1c2.7,0.7,5.1,1.8,7.3,3.3v9.8c-2-1.6-4.3-2.8-6.8-3.5
	c-2.5-0.8-5.4-1.2-8.7-1.2c-3,0-5.8,0.6-8.2,1.9c-2.4,1.2-4.3,3-5.7,5.3c-1.4,2.3-2.1,5-2.1,8.1c0,3.1,0.6,5.9,1.9,8.2
	c1.3,2.3,3.1,4.1,5.5,5.4c2.4,1.3,5.1,1.9,8.1,1.9c2.8,0,5.2-0.5,7.3-1.5v-9.2h-7.7v-7.6h17.6v22.8C175.8,106.5,169.9,108,162.6,108
	z"/>
<path class="st0" d="M182.7,74.5h9.9v4.7c1.3-1.6,3.1-2.8,5.5-3.6c2.3-0.9,5-1.3,8-1.3v7.8c-3.1,0-5.9,0.5-8.3,1.4
	c-2.4,0.9-4,2.4-4.9,4.3V107h-10.2V74.5z"/>
<path class="st0" d="M225.7,108c-6.2,0-11.1-1.5-14.7-4.5c-3.6-3-5.4-7.3-5.4-12.7c0-5.4,1.6-9.6,4.7-12.7c3.2-3.1,7.8-4.7,13.7-4.7
	c3.9,0,7.2,0.7,9.9,2.2c2.7,1.4,4.8,3.5,6.2,6c1.4,2.5,2.1,5.4,2.1,8.6v4.1h-26.8c0.7,4.2,4.6,6.2,11.7,6.2c2.1,0,4.2-0.2,6.4-0.5
	c2.2-0.4,4.1-0.9,5.8-1.5v7.2c-1.6,0.7-3.6,1.2-6.1,1.6C230.7,107.8,228.2,108,225.7,108z M232.6,87.8c-0.1-2.2-0.9-3.8-2.4-5
	c-1.5-1.2-3.5-1.8-6.2-1.8c-2.6,0-4.6,0.6-6.1,1.8c-1.5,1.2-2.3,2.9-2.4,5H232.6z"/>
<path class="st0" d="M263.2,108c-6.2,0-11.1-1.5-14.7-4.5c-3.6-3-5.4-7.3-5.4-12.7c0-5.4,1.6-9.6,4.7-12.7c3.2-3.1,7.8-4.7,13.7-4.7
	c3.9,0,7.2,0.7,9.9,2.2c2.7,1.4,4.8,3.5,6.2,6c1.4,2.5,2.1,5.4,2.1,8.6v4.1h-26.8c0.7,4.2,4.6,6.2,11.7,6.2c2.1,0,4.2-0.2,6.4-0.5
	c2.2-0.4,4.1-0.9,5.8-1.5v7.2c-1.6,0.7-3.6,1.2-6.1,1.6C268.2,107.8,265.7,108,263.2,108z M270.1,87.8c-0.1-2.2-0.9-3.8-2.4-5
	c-1.5-1.2-3.5-1.8-6.2-1.8c-2.6,0-4.6,0.6-6.1,1.8c-1.5,1.2-2.3,2.9-2.4,5H270.1z"/>
<path class="st0" d="M282.1,74.5h9.9v4c1.5-1.7,3.3-2.9,5.3-3.7c2.1-0.9,4.2-1.3,6.5-1.3c4.4,0,7.7,1.2,9.9,3.6
	c2.2,2.4,3.3,5.5,3.3,9.6V107h-10.2V87.8c0-4.2-1.9-6.3-5.8-6.3c-1.7,0-3.3,0.4-4.8,1.3c-1.5,0.8-2.8,2-3.8,3.7V107h-10.2V74.5z"/>
<path class="st0" d="M326,69.5c-1.6,0-2.9-0.5-4-1.6c-1.1-1-1.6-2.4-1.6-3.9c0-1.5,0.5-2.8,1.6-3.9c1.1-1.1,2.4-1.6,4-1.6
	c1.6,0,2.9,0.5,4,1.6c1.1,1,1.6,2.3,1.6,3.9c0,1.6-0.5,2.9-1.6,3.9C328.9,69,327.6,69.5,326,69.5z M320.8,74.5h10.3V107h-10.3V74.5z
	"/>
<path class="st0" d="M348.6,108c-2.4,0-5.1-0.3-7.9-0.8c-2.8-0.5-4.9-1.2-6.5-2.2v-8c1.8,1.1,4,2,6.5,2.6c2.5,0.7,4.9,1,7,1
	c1.9,0,3.2-0.2,4.1-0.5c0.9-0.3,1.3-0.9,1.3-1.8c0-0.7-0.2-1.2-0.7-1.6c-0.5-0.5-1.3-0.8-2.3-1.2c-1-0.4-2.7-0.9-5-1.6
	c-2.8-0.8-4.9-1.6-6.5-2.4c-1.5-0.9-2.7-1.9-3.5-3.2c-0.8-1.3-1.2-2.9-1.2-4.9c0-3.4,1.3-5.9,4-7.6c2.7-1.7,6.4-2.6,11-2.6
	c2.3,0,4.6,0.2,7,0.7c2.4,0.5,4.3,1.1,5.6,1.8v7.8c-1.3-0.9-3-1.6-5.2-2.1c-2.1-0.5-4.1-0.8-6.1-0.8c-1.9,0-3.3,0.2-4.3,0.5
	c-1,0.4-1.5,1-1.5,2c0,0.9,0.5,1.5,1.4,2c1,0.5,2.8,1,5.5,1.7l1.4,0.3c2.8,0.8,5.1,1.6,6.6,2.6c1.6,0.9,2.7,2,3.3,3.3
	c0.7,1.3,1,2.9,1,4.8c0,3-1.3,5.4-3.9,7.2C357.2,107.2,353.5,108,348.6,108z"/>
<path class="st0" d="M366,56.9h10.2v21.3c1.5-1.6,3.3-2.8,5.2-3.5c1.9-0.8,4-1.2,6.2-1.2c4.4,0,7.7,1.2,9.9,3.6
	c2.2,2.4,3.3,5.5,3.3,9.6V107h-10.2V87.8c0-4.2-1.9-6.3-5.8-6.3c-1.7,0-3.3,0.4-4.8,1.3c-1.5,0.8-2.8,2-3.8,3.7V107H366V56.9z"/>
<path class="st1" d="M102,66.5c0,8.6-7,15.6-15.6,15.6c-8.6,0-15.6-7-15.6-15.6s7-15.6,15.6-15.6C95,50.9,102,57.9,102,66.5z
	 M50.1,81c17-1.1,31.8,11.6,33.2,28.6c0.1,1.8,0.1,3.5,0,5.2c-17,1.1-31.8-11.6-33.2-28.6C50,84.4,50,82.7,50.1,81z M94.3,114.2
	c17-1.4,29.7-16.2,28.6-33.2c-1.7-0.1-3.4-0.2-5.2,0c-17,1.4-29.7,16.2-28.6,33.2C90.8,114.3,92.5,114.3,94.3,114.2z"/>
</svg>
