<?xml version="1.0" encoding="utf-8"?>
<!-- Generator: Adobe Illustrator 25.4.1, SVG Export Plug-In . SVG Version: 6.00 Build 0)  -->
<svg version="1.1" id="Layer_1" xmlns="http://www.w3.org/2000/svg" xmlns:xlink="http://www.w3.org/1999/xlink" x="0px" y="0px"
	 viewBox="0 0 457 176" style="enable-background:new 0 0 457 176;" xml:space="preserve">
<style type="text/css">
	.st0{fill:#b7dafb;}
	.st1{fill-rule:evenodd;clip-rule:evenodd;fill:#b7dafb;}
</style>
<path class="st0" d="M50,100.9l25.4-11.3L90,98l3,27.8l-18-0.1l2.7-19.3l-3.1-1.8l-15.2,11.9L50,100.9z"/>
<path class="st0" d="M91.6,96.8l22.4,16.5l8.9-15.9l-18-7.3v-3.6l18-7.4l-8.9-15.8L91.6,79.9V96.8z"/>
<path class="st0" d="M90,78.6l3-27.8l-18,0.3l2.7,19.3l-3.1,1.8L59.2,60.3L50,75.7L75.4,87L90,78.6z"/>
<path class="st0" d="M183,85v26h9.7V77.8h-14.1V85H183z"/>
<path class="st0" d="M182.7,73.2c0.9,0.9,2.2,1.4,4.1,1.4c1.8,0,3.1-0.5,4-1.4c0.9-1,1.3-2.2,1.3-3.6c0-1.5-0.4-2.7-1.3-3.6
	c-0.8-1-2.2-1.5-4-1.5c-1.8,0-3.2,0.5-4.1,1.5c-0.8,0.9-1.3,2.1-1.3,3.6C181.4,71,181.8,72.2,182.7,73.2z"/>
<path class="st0" d="M149.2,110.3c2.7,1.3,6.1,1.9,10.1,1.9c3.8,0,7-0.6,9.7-1.8c2.7-1.2,4.8-2.8,6.2-4.9c1.5-2.1,2.2-4.6,2.2-7.4
	c0-2.7-0.7-5.1-2.1-7c-1.4-1.9-3.3-3.5-5.8-4.5c-2.5-1.1-5.3-1.8-8.5-2.1l-3.4-0.3c-2-0.2-3.5-0.7-4.4-1.6c-0.9-0.9-1.3-2-1.3-3.3
	c0-1,0.2-1.9,0.7-2.7c0.5-0.8,1.2-1.5,2.2-2c1-0.5,2.2-0.7,3.7-0.7c1.5,0,2.8,0.3,3.8,0.8c0.2,0.1,0.4,0.2,0.6,0.4l0,0
	c0.1,0.1,0.1,0.1,0.2,0.2c0.6,0.5,1.1,1,1.5,1.7c0.5,0.9,0.8,1.9,0.8,3h9.7c0-2.9-0.7-5.4-2-7.6c-1.3-2.2-3.2-3.9-5.8-5
	c-2.5-1.2-5.4-1.8-8.9-1.8c-3.3,0-6.2,0.6-8.6,1.7c-2.4,1.1-4.3,2.7-5.7,4.7c-1.3,2.1-2,4.5-2,7.3c0,3.9,1.3,7.1,3.9,9.4
	c2.6,2.4,6.1,3.8,10.5,4.1l3.3,0.3c2.7,0.2,4.7,0.8,5.9,1.6c1.2,0.8,1.8,1.9,1.8,3.3c0,0.6-0.1,1.3-0.3,1.8
	c-0.2,0.4-0.4,0.8-0.6,1.2c-0.6,0.8-1.6,1.5-2.8,2c-1.3,0.5-2.8,0.7-4.7,0.7c-2.1,0-3.7-0.3-5-0.8c-1.3-0.6-2.3-1.4-2.9-2.4
	c-0.6-1-0.9-2-0.9-3.1h-9.6c0,2.9,0.7,5.4,2.1,7.6C144.4,107.3,146.5,109,149.2,110.3z"/>
<path class="st0" d="M214.3,111.4c-3.3,0-6.1-0.4-8.1-1.2c-2.1-0.8-3.6-2.2-4.5-4.2c-0.9-2-1.4-4.6-1.4-8V84.9h-5v-7.1h5v-9h9v9h9.7
	v7.1h-9.7v13.5c0,1.6,0.4,2.8,1.2,3.6c0.8,0.8,2,1.2,3.6,1.2h4.9v8.2H214.3z"/>
<path class="st1" d="M230.6,110.7c2.2,1,4.7,1.5,7.5,1.5c2.8,0,5.2-0.5,7.4-1.5c2.1-1,3.9-2.3,5.3-4.1c1.4-1.7,2.4-3.7,2.8-5.9h-8.9
	c-0.4,1-1.2,1.9-2.3,2.5c-1.1,0.7-2.6,1-4.4,1c-1.1,0-2.1-0.1-2.9-0.4c-0.7-0.2-1.2-0.5-1.8-0.8c-1.2-0.8-2.1-1.9-2.7-3.4
	c-0.2-0.4-0.3-0.8-0.4-1.3c-0.1-0.5-0.2-0.9-0.3-1.4h24.2v-3.3c0-3-0.6-5.8-1.9-8.4c-1.3-2.6-3.2-4.7-5.6-6.2
	c-2.4-1.6-5.4-2.4-9-2.4c-2.7,0-5.1,0.5-7.3,1.5c-2.1,0.9-3.9,2.2-5.3,3.8c-1.4,1.6-2.5,3.5-3.3,5.5c-0.7,2-1.1,4.1-1.1,6.4V95
	c0,2.1,0.4,4.2,1.1,6.3c0.8,2,1.9,3.9,3.3,5.5C226.6,108.4,228.4,109.7,230.6,110.7z M230.2,91c0-0.1,0.1-0.3,0.1-0.4
	c0.1-0.3,0.2-0.7,0.3-1c0.1-0.2,0.1-0.4,0.2-0.5c0.6-1.5,1.5-2.6,2.7-3.4c0.4-0.3,0.9-0.5,1.4-0.7c0.9-0.3,1.8-0.5,2.9-0.5
	c1.7,0,3,0.4,4.1,1.2c1.1,0.7,2,1.8,2.5,3.2c0,0.1,0.1,0.2,0.1,0.3c0.1,0.2,0.1,0.4,0.2,0.6c0.1,0.3,0.2,0.6,0.2,0.9
	c0,0.2,0.1,0.5,0.1,0.7h-15C230.1,91.3,230.2,91.1,230.2,91z"/>
<path class="st0" d="M258.2,111V77.8h7.7v8.4c0.1-0.5,0.2-1,0.4-1.4c0.1-0.4,0.2-0.8,0.4-1.1c0.8-2.3,2.1-4,3.8-5.1
	c1.7-1.2,3.8-1.8,6.2-1.8h0.4c2.5,0,4.6,0.6,6.2,1.8c1.7,1.1,3,2.8,3.8,5.1l0.1,0.2l0.1,0.2c0-0.1,0.1-0.2,0.1-0.3
	c0.9-2.3,2.2-4,3.9-5.1c1.7-1.2,3.8-1.8,6.2-1.8h0.4c2.5,0,4.6,0.6,6.3,1.8c1.7,1.1,3,2.8,3.9,5.1c0.9,2.3,1.3,5.1,1.3,8.5V111h-9.7
	V91.6c0-1.8-0.5-3.3-1.5-4.4c-0.9-1.1-2.3-1.7-4-1.7c-1.7,0-3.1,0.6-4.1,1.8c-1,1.1-1.5,2.6-1.5,4.5V111H279V91.6
	c0-1.8-0.5-3.3-1.5-4.4c-0.9-1.1-2.2-1.7-3.9-1.7c-1.8,0-3.2,0.6-4.2,1.8c-1,1.1-1.5,2.6-1.5,4.5V111H258.2z"/>
<path class="st1" d="M335.4,104.6v6.4h7.7V90.7c0-3.1-0.6-5.6-1.8-7.5c-1.2-2-3-3.5-5.3-4.4c-2.3-1-5.1-1.5-8.5-1.5
	c-0.7,0-1.5,0-2.3,0c-0.5,0-1,0-1.5,0c-1.3,0-2.6,0.1-3.9,0.2l-1,0.1c-0.5,0-1,0.1-1.4,0.1c-0.3,0-0.6,0.1-0.9,0.1v8.2
	c1.3-0.1,2.6-0.2,4.2-0.2c0.4,0,0.9,0,1.3-0.1c0.6,0,1.2-0.1,1.8-0.1c0.5,0,0.9,0,1.4,0c1.5,0,2.6-0.1,3.5-0.1
	c1.8,0,3.1,0.4,3.9,1.3c0.8,0.8,1.2,2.1,1.2,3.8v0.1h-6c-2.9,0-5.5,0.4-7.8,1.2c-2.3,0.7-4,1.9-5.3,3.5c-1.3,1.5-1.9,3.5-1.9,5.9
	c0,2.2,0.5,4.1,1.5,5.8c1,1.6,2.4,2.8,4.2,3.6c1.8,0.8,3.9,1.3,6.3,1.3c2.3,0,4.2-0.4,5.8-1.3c1.6-0.8,2.9-2.1,3.8-3.6
	c0.2-0.3,0.3-0.5,0.4-0.8c0.2-0.4,0.4-0.8,0.5-1.3L335.4,104.6z M333.8,98.7v-2.7h-6.1c-1.7,0-3,0.4-3.9,1.3
	c-0.9,0.8-1.3,1.9-1.3,3.3c0,0.7,0.1,1.3,0.3,1.8c0.2,0.5,0.6,1,1,1.5c0.9,0.8,2.2,1.2,3.9,1.2c0.3,0,0.6,0,0.9,0
	c0.2,0,0.5-0.1,0.7-0.1c0.4-0.1,0.9-0.2,1.3-0.4c0.9-0.4,1.6-1.1,2.2-2C333.4,101.7,333.7,100.4,333.8,98.7z"/>
<path class="st0" d="M348.9,111V77.8h7.7v11c0.4-3.1,1.3-5.6,2.8-7.6c2-2.5,4.9-3.8,8.7-3.8h1.3v8.4h-2.4c-2.7,0-4.7,0.7-6.2,2.2
	c-1.5,1.4-2.2,3.5-2.2,6.2V111H348.9z"/>
<path class="st0" d="M381.6,95.5h3.2l10.5,15.5h10.9l-13.3-19l10.9-14.1h-10.2l-12,15.8V66.8h-9.7V111h9.7V95.5z"/>
</svg>
