<?xml version="1.0" encoding="utf-8"?>
<!-- Generator: Adobe Illustrator 25.4.1, SVG Export Plug-In . SVG Version: 6.00 Build 0)  -->
<svg version="1.1" id="Layer_1" xmlns="http://www.w3.org/2000/svg" xmlns:xlink="http://www.w3.org/1999/xlink" x="0px" y="0px"
	 viewBox="0 0 522 187" style="enable-background:new 0 0 522 187;" xml:space="preserve">
<style type="text/css">
	.st0{fill:#b7dafb;}
	.st1{fill-rule:evenodd;clip-rule:evenodd;fill:#b7dafb;}
</style>
<path class="st0" d="M393.1,54v78h11.4V54H393.1z"/>
<path class="st1" d="M289.9,133.3c-4.5,0-8.3-1-11.3-3.1c-0.3-0.2-0.7-0.5-1-0.7v2.6h-10.1V55.3h11.5v32.9c2.8-1.8,6.2-2.7,10.2-2.7
	c4.3,0,8.1,1,11.3,3.1c3.2,2.1,5.7,4.9,7.5,8.5c1.8,3.6,2.7,7.7,2.7,12.3c0,4.5-0.9,8.6-2.6,12.2c-1.7,3.6-4.2,6.5-7.3,8.6
	C297.7,132.2,294,133.3,289.9,133.3z M278.6,102.1c-0.7,2.1-1,4.5-1,7.2c0,2.7,0.3,5.1,1,7.2c0.7,2.1,1.8,3.7,3.3,4.8
	c1.5,1.1,3.6,1.7,6.1,1.7c2.5,0,4.5-0.6,6-1.8c1.6-1.2,2.7-2.9,3.5-5c0.8-2.1,1.1-4.4,1.1-7c0-2.5-0.4-4.8-1.2-6.9
	c-0.8-2.1-2-3.8-3.7-5c-1.6-1.3-3.7-1.9-6.3-1.9c-2.4,0-4.3,0.6-5.8,1.7C280.4,98.4,279.3,100,278.6,102.1z"/>
<path class="st0" d="M249.5,105.2V132h11.4v-29.8c0-5-1.3-9-4-12c-2.6-3.1-6.5-4.6-11.7-4.6c-3,0-5.8,0.7-8.3,2
	c-2.3,1.2-4.1,2.9-5.6,5c-1.1-1.9-2.6-3.5-4.5-4.8c-2.3-1.5-5.2-2.3-8.7-2.3c-3.1,0-5.9,0.7-8.4,2.1c-1.9,1-3.5,2.4-4.8,4v-5h-10.1
	V132h11.5v-27.4c0-2.6,0.7-4.7,2.1-6.3c1.5-1.7,3.4-2.5,5.7-2.5c2.5,0,4.4,0.8,5.8,2.5c1.4,1.7,2.1,4,2.1,7V132h11.4v-27.4
	c0-1.7,0.3-3.3,1-4.6c0.7-1.3,1.6-2.4,2.8-3.1c1.2-0.8,2.6-1.1,4.2-1.1c2.5,0,4.4,0.8,5.8,2.5C248.8,99.9,249.5,102.2,249.5,105.2z"
	/>
<path class="st0" d="M154,131.5c2.2,1.2,5.1,1.8,8.7,1.8c4.4,0,8.1-1,11-2.9c1.4-0.9,2.6-1.9,3.7-3.1v4.7h10.1V86.7h-11.5v23
	c0,2.8-0.3,5.1-1,6.8c-0.6,1.7-1.4,3-2.4,3.9c-1,0.9-2,1.5-3.1,1.8s-2.2,0.5-3.1,0.5c-2.4,0-4.3-0.5-5.7-1.6
	c-1.3-1.1-2.3-2.4-2.9-4.1c-0.6-1.6-0.9-3.2-1-4.8c-0.1-1.6-0.2-3-0.2-4V86.7h-11.6v25.4c0,0.8,0.1,2,0.2,3.6c0.1,1.7,0.4,3.5,1,5.5
	c0.5,2,1.4,3.9,2.6,5.8C150,128.8,151.7,130.3,154,131.5z"/>
<path class="st0" d="M315.8,86.7V132h11.5v-23.2c0-1.7,0.2-3.3,0.7-4.7c0.5-1.4,1.2-2.6,2.1-3.6c0.9-1,2.1-1.9,3.4-2.5
	c1.3-0.6,2.8-1,4.5-1.1c1.7-0.1,3.1,0,4.4,0.4V86.7c-1.4-0.2-2.7-0.2-4.1-0.1c-1.4,0.1-2.7,0.3-4,0.7c-1.3,0.4-2.5,0.9-3.6,1.6
	c-1.4,0.8-2.6,1.9-3.6,3.2c-0.5,0.6-0.9,1.2-1.3,1.9v-7.3H315.8z"/>
<path class="st1" d="M366.5,133.3c-4.6,0-8.7-1-12.3-3c-3.5-2-6.3-4.8-8.3-8.3c-2-3.5-3-7.6-3-12.1c0-5,1-9.3,2.9-12.9
	c2-3.7,4.7-6.5,8.1-8.5c3.4-2,7.4-3.1,11.9-3.1c4.8,0,8.8,1.1,12.1,3.4c3.3,2.2,5.8,5.4,7.4,9.4c1.6,4.1,2.2,8.8,1.7,14.3h-31.8
	c0.4,2.7,1.2,4.9,2.5,6.6c1.8,2.3,4.5,3.4,8.1,3.4c2.2,0,4.2-0.5,5.8-1.5c1.6-1,2.8-2.4,3.7-4.2l11.4,3.3c-1.7,4.1-4.4,7.4-8.1,9.7
	C374.8,132.1,370.8,133.3,366.5,133.3z M373.5,98.4c1,1.3,1.6,3.2,2,5.7h-20c0.4-2.1,1.2-3.8,2.2-5.2c1.8-2.4,4.7-3.6,8.6-3.6
	C369.6,95.3,372,96.3,373.5,98.4z"/>
<path class="st0" d="M413.7,132V54h11.4v78H413.7z"/>
<path class="st1" d="M437.9,131.4c2.3,1.2,5,1.8,8.3,1.8c3.9,0,7.1-0.7,9.7-2c2-1.1,3.9-2.7,5.8-4.8v5.6h10v-27.7
	c0-2.1-0.1-3.9-0.3-5.6c-0.2-1.7-0.7-3.4-1.6-5c-1.6-3-3.9-5.1-7.1-6.4c-3.1-1.2-6.7-1.8-10.7-1.8c-5.5,0-9.8,1.2-12.9,3.5
	c-3.2,2.4-5.3,5.4-6.5,9.1l10.3,3.3c0.7-2.1,2-3.5,3.8-4.3c1.8-0.8,3.6-1.2,5.2-1.2c3,0,5.2,0.6,6.5,1.9c1,1,1.6,2.4,1.8,4.3
	c-1.9,0.3-3.8,0.6-5.5,0.8c-2.9,0.4-5.6,0.9-7.9,1.3c-2.3,0.5-4.3,1-6,1.6c-2.4,0.9-4.4,2-5.8,3.4c-1.4,1.3-2.5,2.8-3.1,4.6
	c-0.6,1.7-1,3.7-1,5.8c0,2.5,0.6,4.8,1.7,6.9C433.9,128.5,435.6,130.2,437.9,131.4z M453.9,123.2c-1.4,0.7-3.2,1.1-5.3,1.1
	c-1.3,0-2.4-0.2-3.4-0.6c-1-0.4-1.7-1-2.2-1.7c-0.5-0.8-0.8-1.7-0.8-2.7c0-0.8,0.2-1.4,0.5-2.1c0.3-0.6,0.8-1.2,1.5-1.7
	c0.7-0.5,1.6-1,2.7-1.5c1-0.4,2.1-0.7,3.4-1c1.3-0.3,3-0.6,5.1-1c1.3-0.3,3-0.5,4.8-0.9c0,0.8-0.1,1.7-0.1,2.7c-0.1,1.6-0.4,3-1,4.3
	c-0.3,0.6-0.9,1.4-1.8,2.4C456.5,121.6,455.3,122.4,453.9,123.2z"/>
<path class="st1" d="M81.9,87h-31v13.5c0,20.2,16.3,36.5,36.5,36.5c20.2,0,36.5-16.3,36.5-36.5V87h-32V65.5C91.9,56.9,85,50,76.4,50
	s-15.5,6.9-15.5,15.5h10c0-3,2.5-5.5,5.5-5.5c3,0,5.5,2.5,5.5,5.5V87z M81.9,97v19h10V97h22v3.5c0,14.6-11.9,26.5-26.5,26.5
	s-26.5-11.9-26.5-26.5V97H81.9z"/>
</svg>
