<?xml version="1.0" encoding="utf-8"?>
<!-- Generator: Adobe Illustrator 25.4.1, SVG Export Plug-In . SVG Version: 6.00 Build 0)  -->
<svg version="1.1" id="Layer_1" xmlns="http://www.w3.org/2000/svg" xmlns:xlink="http://www.w3.org/1999/xlink" x="0px" y="0px"
	 viewBox="0 0 465 193" style="enable-background:new 0 0 465 193;" xml:space="preserve">
<style type="text/css">
	.st0{fill:#b7dafb;}
</style>
<path class="st0" d="M107.5,68c0-9.9,8.1-18,18-18s18,8.1,18,18s-8.1,18-18,18S107.5,77.9,107.5,68z"/>
<path class="st0" d="M126.6,94v13c0,5.7,0,9.8-0.3,13c-0.3,3.1-0.8,5-1.5,6.5c-1.5,2.9-3.9,5.3-6.8,6.8c-1.5,0.8-3.4,1.3-6.5,1.5
	c-3.2,0.3-7.2,0.3-13,0.3h-12c-5.7,0-9.8,0-13-0.3c-3.1-0.3-5-0.8-6.5-1.5c-2.9-1.5-5.3-3.9-6.8-6.8c-0.8-1.5-1.3-3.4-1.5-6.5
	c-0.3-3.2-0.3-7.2-0.3-13V95c0-5.7,0-9.8,0.3-13c0.3-3.1,0.8-5,1.5-6.5c1.5-2.9,3.9-5.3,6.8-6.8c1.5-0.8,3.4-1.3,6.5-1.5
	c3.2-0.3,7.2-0.3,13-0.3h13c0.1-2.8,0.7-5.5,1.6-8H86.4c-5.5,0-9.9,0-13.5,0.3c-3.6,0.3-6.7,0.9-9.5,2.4c-4.4,2.3-7.9,5.8-10.2,10.2
	c-1.5,2.8-2.1,5.9-2.4,9.5c-0.3,3.5-0.3,7.9-0.3,13.5v12.3c0,5.5,0,9.9,0.3,13.5c0.3,3.6,0.9,6.7,2.4,9.5c2.3,4.4,5.8,7.9,10.2,10.2
	c2.8,1.5,5.9,2.1,9.5,2.4c3.5,0.3,7.9,0.3,13.5,0.3h12.3c5.5,0,9.9,0,13.5-0.3c3.6-0.3,6.7-0.9,9.5-2.4c4.4-2.3,7.9-5.8,10.2-10.2
	c1.5-2.8,2.1-5.9,2.4-9.5c0.3-3.5,0.3-7.9,0.3-13.5V92.4C132.1,93.3,129.4,93.9,126.6,94z"/>
<path class="st0" d="M195,93.3c0,2.5-0.6,4.8-1.8,6.9c-1.1,2.1-3,3.9-5.5,5.2c-2.5,1.3-5.6,2-9.3,2h-7.7V125h-9.2V79.1h16.9
	c3.6,0,6.6,0.6,9.1,1.8c2.5,1.2,4.4,2.9,5.6,5.1C194.3,88.1,195,90.6,195,93.3z M178,99.9c2.5,0,4.4-0.6,5.7-1.7
	c1.2-1.2,1.8-2.8,1.8-4.9c0-4.5-2.5-6.7-7.5-6.7h-7.3v13.4H178z"/>
<path class="st0" d="M208.1,94.2c1.2-1.9,2.7-3.4,4.6-4.5c1.9-1.1,4.1-1.6,6.6-1.6v9.7h-2.4c-2.9,0-5.1,0.7-6.6,2
	c-1.4,1.4-2.2,3.7-2.2,7.1V125h-9.2V88.6h9.2V94.2z"/>
<path class="st0" d="M239,125.6c-3.5,0-6.7-0.8-9.5-2.3c-2.8-1.6-5-3.8-6.6-6.6c-1.6-2.9-2.4-6.1-2.4-9.9s0.8-7,2.4-9.9
	c1.7-2.9,3.9-5,6.8-6.6c2.9-1.6,6-2.4,9.5-2.4c3.5,0,6.7,0.8,9.5,2.4c2.8,1.5,5.1,3.7,6.7,6.6c1.7,2.9,2.5,6.1,2.5,9.9
	s-0.9,7-2.6,9.9c-1.7,2.9-3.9,5.1-6.8,6.6C245.8,124.8,242.6,125.6,239,125.6z M239,117.6c1.7,0,3.2-0.4,4.7-1.2
	c1.5-0.8,2.7-2.1,3.6-3.7s1.3-3.6,1.3-5.9c0-3.5-0.9-6.1-2.8-8c-1.8-1.9-4-2.8-6.6-2.8s-4.8,0.9-6.6,2.8c-1.8,1.8-2.6,4.5-2.6,8
	c0,3.5,0.9,6.1,2.6,8C234.2,116.6,236.4,117.6,239,117.6z"/>
<path class="st0" d="M259.8,106.6c0-3.7,0.7-7,2.2-9.8c1.5-2.9,3.5-5,6.1-6.6c2.5-1.5,5.4-2.3,8.5-2.3c2.4,0,4.6,0.5,6.8,1.6
	c2.1,1,3.9,2.4,5.1,4.1V76.3h9.3V125h-9.3v-5.4c-1.1,1.8-2.7,3.2-4.8,4.3c-2.1,1.1-4.5,1.6-7.2,1.6c-3.1,0-5.9-0.8-8.4-2.4
	c-2.5-1.6-4.6-3.8-6.1-6.6C260.5,113.7,259.8,110.4,259.8,106.6z M288.5,106.8c0-2.2-0.4-4.1-1.3-5.7c-0.9-1.6-2.1-2.9-3.6-3.7
	c-1.5-0.9-3.1-1.3-4.8-1.3c-1.7,0-3.3,0.4-4.7,1.2c-1.4,0.8-2.6,2.1-3.6,3.7c-0.9,1.6-1.3,3.5-1.3,5.7c0,2.2,0.4,4.1,1.3,5.8
	c0.9,1.6,2.1,2.9,3.6,3.7c1.5,0.9,3.1,1.3,4.7,1.3c1.7,0,3.3-0.4,4.8-1.2c1.5-0.9,2.7-2.1,3.6-3.7C288,110.9,288.5,109,288.5,106.8z
	"/>
<path class="st0" d="M338.5,88.6V125h-9.3v-4.6c-1.2,1.6-2.7,2.8-4.7,3.8c-1.9,0.9-3.9,1.3-6.2,1.3c-2.9,0-5.4-0.6-7.6-1.8
	c-2.2-1.2-3.9-3-5.2-5.3c-1.2-2.4-1.8-5.2-1.8-8.4V88.6h9.2v20.1c0,2.9,0.7,5.1,2.2,6.7c1.4,1.5,3.4,2.3,5.9,2.3
	c2.5,0,4.5-0.8,6-2.3c1.4-1.6,2.2-3.8,2.2-6.7V88.6H338.5z"/>
<path class="st0" d="M342.6,106.8c0-3.8,0.8-7.1,2.3-9.9c1.5-2.9,3.7-5,6.4-6.6c2.7-1.6,5.8-2.4,9.3-2.4c4.5,0,8.2,1.1,11.2,3.4
	c3,2.2,5,5.4,6,9.5h-9.9c-0.5-1.6-1.4-2.8-2.7-3.7c-1.2-0.9-2.8-1.4-4.6-1.4c-2.6,0-4.7,1-6.2,2.9c-1.5,1.9-2.3,4.6-2.3,8.1
	c0,3.5,0.8,6.2,2.3,8.1c1.5,1.9,3.6,2.8,6.2,2.8c3.7,0,6.2-1.7,7.3-5h9.9c-1,3.9-3,7.1-6,9.4c-3,2.3-6.7,3.5-11.2,3.5
	c-3.5,0-6.6-0.8-9.3-2.3c-2.7-1.6-4.8-3.8-6.4-6.6C343.4,113.9,342.6,110.5,342.6,106.8z"/>
<path class="st0" d="M392.6,96.1v17.6c0,1.2,0.3,2.1,0.9,2.7c0.6,0.5,1.6,0.8,3,0.8h4.3v7.8H395c-7.8,0-11.6-3.8-11.6-11.3V96.1H379
	v-7.6h4.3v-9h9.3v9h8.2v7.6H392.6z"/>
<path class="st0" d="M408.9,125.5c-1.7,0-3-0.5-4.1-1.5c-1.1-1.1-1.6-2.3-1.6-3.9c0-1.5,0.5-2.8,1.6-3.8c1.1-1.1,2.5-1.6,4.1-1.6
	c1.6,0,3,0.5,4,1.6c1.1,1,1.6,2.3,1.6,3.8c0,1.5-0.5,2.8-1.6,3.9C411.8,125,410.5,125.5,408.9,125.5z"/>
</svg>
