<svg width="789" height="229" viewBox="0 0 789 229" fill="none" xmlns="http://www.w3.org/2000/svg">
<mask id="mask0_0_1" style="mask-type:luminance" maskUnits="userSpaceOnUse" x="0" y="0" width="789" height="229">
<path d="M788.6 0H0.5V228.46H788.6V0Z" fill="white"/>
</mask>
<g mask="url(#mask0_0_1)">
<path d="M0.5 114.23V0H114.73" fill="#44ACE1"/>
<path d="M0.5 114.23V228.46H36.71L114.73 150.35V0L0.5 114.23Z" fill="#4561A8"/>
<path d="M114.73 228.46V150.35L36.71 228.46H114.73Z" fill="#25255F"/>
<path d="M228.96 114.23V0H114.73" fill="#44ACE1"/>
<path d="M228.96 114.23V228.46H192.75L114.73 150.35V0L228.96 114.23Z" fill="#89B6E1"/>
<path d="M114.73 228.46V150.35L192.75 228.46H114.73Z" fill="#4057A7"/>
</g>
<path d="M425.963 192V133.818H448.918C453.331 133.818 457.09 134.661 460.196 136.347C463.302 138.013 465.67 140.333 467.298 143.307C468.946 146.261 469.77 149.67 469.77 153.534C469.77 157.398 468.937 160.807 467.27 163.761C465.603 166.716 463.188 169.017 460.026 170.665C456.882 172.313 453.075 173.136 448.605 173.136H433.974V163.278H446.616C448.984 163.278 450.935 162.871 452.469 162.057C454.022 161.223 455.177 160.078 455.935 158.619C456.711 157.142 457.099 155.447 457.099 153.534C457.099 151.602 456.711 149.917 455.935 148.477C455.177 147.019 454.022 145.892 452.469 145.097C450.916 144.282 448.946 143.875 446.56 143.875H438.264V192H425.963Z" fill="#25255F"/>
<path d="M376.148 192H362.966L383.051 133.818H398.903L418.96 192H405.778L391.205 147.114H390.75L376.148 192ZM375.324 169.131H406.46V178.733H375.324V169.131Z" fill="#25255F"/>
<path d="M358.392 154.188H345.949C345.722 152.578 345.258 151.148 344.557 149.898C343.856 148.629 342.956 147.549 341.858 146.659C340.759 145.769 339.491 145.087 338.051 144.614C336.631 144.14 335.087 143.903 333.42 143.903C330.409 143.903 327.786 144.652 325.551 146.148C323.316 147.625 321.583 149.784 320.352 152.625C319.121 155.447 318.506 158.875 318.506 162.909C318.506 167.057 319.121 170.542 320.352 173.364C321.602 176.186 323.345 178.316 325.58 179.756C327.814 181.195 330.4 181.915 333.335 181.915C334.983 181.915 336.508 181.697 337.909 181.261C339.33 180.826 340.589 180.191 341.687 179.358C342.786 178.506 343.695 177.474 344.415 176.261C345.153 175.049 345.665 173.667 345.949 172.114L358.392 172.17C358.07 174.841 357.265 177.417 355.977 179.898C354.708 182.36 352.994 184.566 350.835 186.517C348.695 188.449 346.138 189.983 343.165 191.119C340.21 192.237 336.867 192.795 333.136 192.795C327.947 192.795 323.307 191.621 319.216 189.273C315.144 186.924 311.924 183.525 309.557 179.074C307.208 174.623 306.034 169.235 306.034 162.909C306.034 156.564 307.227 151.167 309.614 146.716C312 142.265 315.239 138.875 319.33 136.545C323.42 134.197 328.023 133.023 333.136 133.023C336.508 133.023 339.633 133.496 342.511 134.443C345.409 135.39 347.975 136.773 350.21 138.591C352.445 140.39 354.263 142.597 355.665 145.21C357.085 147.824 357.994 150.816 358.392 154.188Z" fill="#25255F"/>
<path d="M768.449 55.625C768.051 54.2424 767.492 53.0208 766.773 51.9602C766.053 50.8807 765.172 49.9716 764.131 49.233C763.108 48.4754 761.934 47.8977 760.608 47.5C759.301 47.1023 757.852 46.9034 756.261 46.9034C753.288 46.9034 750.674 47.6421 748.42 49.1193C746.186 50.5966 744.443 52.7462 743.193 55.5682C741.943 58.3712 741.318 61.7993 741.318 65.8523C741.318 69.9053 741.934 73.3523 743.165 76.1932C744.396 79.0341 746.138 81.2027 748.392 82.6989C750.646 84.1761 753.307 84.9148 756.375 84.9148C759.159 84.9148 761.536 84.4224 763.506 83.4375C765.494 82.4337 767.009 81.0227 768.051 79.2046C769.112 77.3864 769.642 75.2368 769.642 72.7557L772.142 73.125H757.142V63.8636H781.489V71.1932C781.489 76.3068 780.409 80.7008 778.25 84.375C776.091 88.0303 773.117 90.8523 769.33 92.8409C765.542 94.8106 761.205 95.7955 756.318 95.7955C750.864 95.7955 746.072 94.5928 741.943 92.1875C737.814 89.7633 734.595 86.3258 732.284 81.875C729.992 77.4053 728.847 72.1023 728.847 65.9659C728.847 61.25 729.528 57.0455 730.892 53.3523C732.275 49.6402 734.206 46.4962 736.687 43.9205C739.169 41.3447 742.057 39.3845 745.352 38.0398C748.648 36.6951 752.218 36.0227 756.062 36.0227C759.358 36.0227 762.426 36.5057 765.267 37.4716C768.108 38.4186 770.627 39.7633 772.824 41.5057C775.04 43.2481 776.848 45.322 778.25 47.7273C779.651 50.1136 780.551 52.7462 780.949 55.625H768.449Z" fill="#25255F"/>
<path d="M719.706 36.8182V95H709.081L683.768 58.3807H683.342V95H671.041V36.8182H681.837L706.95 73.4091H707.462V36.8182H719.706Z" fill="#25255F"/>
<path d="M660.92 36.8182V95H648.619V36.8182H660.92Z" fill="#25255F"/>
<path d="M611.041 95H590.416V36.8182H611.212C617.064 36.8182 622.102 37.9829 626.325 40.3125C630.549 42.6231 633.797 45.947 636.07 50.2841C638.361 54.6212 639.507 59.8106 639.507 65.8523C639.507 71.9129 638.361 77.1212 636.07 81.4773C633.797 85.8333 630.53 89.1761 626.268 91.5057C622.026 93.8352 616.95 95 611.041 95ZM602.717 84.4602H610.53C614.166 84.4602 617.225 83.8163 619.706 82.5284C622.206 81.2216 624.081 79.2045 625.331 76.4773C626.6 73.7311 627.234 70.1894 627.234 65.8523C627.234 61.553 626.6 58.0398 625.331 55.3125C624.081 52.5852 622.215 50.5776 619.734 49.2898C617.253 48.0019 614.195 47.358 610.558 47.358H602.717V84.4602Z" fill="#25255F"/>
<path d="M540.601 95H527.419L547.504 36.8182H563.357L583.413 95H570.232L555.658 50.1136H555.203L540.601 95ZM539.777 72.1307H570.913V81.733H539.777V72.1307Z" fill="#25255F"/>
<path d="M478.072 95V36.8182H501.027C505.421 36.8182 509.171 37.6042 512.277 39.1761C515.402 40.7292 517.779 42.9356 519.408 45.7955C521.055 48.6364 521.879 51.9792 521.879 55.8239C521.879 59.6875 521.046 63.0114 519.379 65.7954C517.713 68.5606 515.298 70.6818 512.135 72.1591C508.991 73.6364 505.184 74.375 500.714 74.375H485.345V64.4886H498.726C501.074 64.4886 503.025 64.1667 504.578 63.5227C506.131 62.8788 507.286 61.9129 508.044 60.625C508.821 59.3371 509.209 57.7367 509.209 55.8239C509.209 53.892 508.821 52.2633 508.044 50.9375C507.286 49.6117 506.122 48.6079 504.55 47.9261C502.997 47.2254 501.036 46.875 498.669 46.875H490.374V95H478.072ZM509.493 68.5227L523.953 95H510.374L496.226 68.5227H509.493Z" fill="#25255F"/>
<path d="M455.793 55.625C455.395 54.2424 454.836 53.0208 454.116 51.9602C453.397 50.8807 452.516 49.9716 451.474 49.233C450.452 48.4754 449.277 47.8977 447.952 47.5C446.645 47.1023 445.196 46.9034 443.605 46.9034C440.632 46.9034 438.018 47.6421 435.764 49.1193C433.529 50.5966 431.787 52.7462 430.537 55.5682C429.287 58.3712 428.662 61.7993 428.662 65.8523C428.662 69.9053 429.277 73.3523 430.509 76.1932C431.74 79.0341 433.482 81.2027 435.736 82.6989C437.99 84.1761 440.651 84.9148 443.719 84.9148C446.503 84.9148 448.88 84.4224 450.849 83.4375C452.838 82.4337 454.353 81.0227 455.395 79.2046C456.456 77.3864 456.986 75.2368 456.986 72.7557L459.486 73.125H444.486V63.8636H468.832V71.1932C468.832 76.3068 467.753 80.7008 465.594 84.375C463.435 88.0303 460.461 90.8523 456.673 92.8409C452.885 94.8106 448.548 95.7955 443.662 95.7955C438.207 95.7955 433.416 94.5928 429.287 92.1875C425.158 89.7633 421.938 86.3258 419.628 81.875C417.336 77.4053 416.19 72.1023 416.19 65.9659C416.19 61.25 416.872 57.0455 418.236 53.3523C419.618 49.6402 421.55 46.4962 424.031 43.9205C426.512 41.3447 429.401 39.3845 432.696 38.0398C435.991 36.6951 439.562 36.0227 443.406 36.0227C446.702 36.0227 449.77 36.5057 452.611 37.4716C455.452 38.4186 457.971 39.7633 460.168 41.5057C462.384 43.2481 464.192 45.322 465.594 47.7273C466.995 50.1136 467.895 52.7462 468.293 55.625H455.793Z" fill="#25255F"/>
<path d="M365.416 95V36.8182H388.371C392.784 36.8182 396.543 37.661 399.649 39.3466C402.755 41.0133 405.123 43.3333 406.751 46.3068C408.399 49.2614 409.223 52.6704 409.223 56.5341C409.223 60.3977 408.39 63.8068 406.723 66.7614C405.056 69.7159 402.642 72.017 399.479 73.6648C396.335 75.3125 392.528 76.1364 388.058 76.1364H373.428V66.2784H386.07C388.437 66.2784 390.388 65.8712 391.922 65.0568C393.475 64.2235 394.63 63.0776 395.388 61.6193C396.164 60.142 396.553 58.447 396.553 56.5341C396.553 54.6023 396.164 52.9167 395.388 51.4773C394.63 50.0189 393.475 48.892 391.922 48.0966C390.369 47.2822 388.399 46.875 386.013 46.875H377.717V95H365.416Z" fill="#25255F"/>
<path d="M342.994 36.8182H355.295V74.6023C355.295 78.8447 354.282 82.5568 352.256 85.7386C350.248 88.9205 347.436 91.4015 343.818 93.1818C340.201 94.9432 335.987 95.8239 331.176 95.8239C326.347 95.8239 322.123 94.9432 318.506 93.1818C314.888 91.4015 312.076 88.9205 310.068 85.7386C308.061 82.5568 307.057 78.8447 307.057 74.6023V36.8182H319.358V73.5511C319.358 75.767 319.841 77.7367 320.807 79.4602C321.792 81.1837 323.174 82.5379 324.955 83.5227C326.735 84.5076 328.809 85 331.176 85C333.563 85 335.636 84.5076 337.398 83.5227C339.178 82.5379 340.551 81.1837 341.517 79.4602C342.502 77.7367 342.994 75.767 342.994 73.5511V36.8182Z" fill="#25255F"/>
</svg>
