<svg width="48" height="48" viewBox="0 0 48 48" fill="none" xmlns="http://www.w3.org/2000/svg">
<g clip-path="url(#clip0_38_133)">
<path d="M30.6895 2.16197C29.7652 2.18861 28.9393 2.86749 28.7716 3.80845L28.7696 3.8104L28.4122 5.82017C28.3866 5.95048 28.3871 6.08459 28.4139 6.21468C28.4406 6.34477 28.493 6.46822 28.568 6.57784C28.643 6.68745 28.7391 6.78104 28.8506 6.85313C28.9622 6.92522 29.0869 6.97437 29.2177 6.99772C29.3484 7.02107 29.4825 7.01814 29.6121 6.98911C29.7417 6.96008 29.8642 6.90553 29.9725 6.82864C30.0808 6.75174 30.1727 6.65406 30.2428 6.54127C30.3129 6.42849 30.3599 6.30286 30.3809 6.17173L30.7403 4.16001L38.7696 5.5897H38.7716L37.9864 9.99986H29.4141L22.4141 2.99986C22.0281 2.61283 21.5143 2.41982 21.0001 2.41978C20.4859 2.41974 19.9723 2.61357 19.586 2.99986L12.586 9.99986H8.50985C7.72446 8.2038 5.93892 6.99986 3.93368 6.99986H1.00008C0.867571 6.99798 0.736007 7.02246 0.613039 7.07188C0.490071 7.12129 0.37815 7.19465 0.28378 7.2877C0.189411 7.38074 0.114474 7.49161 0.0633268 7.61387C0.012179 7.73613 -0.0141602 7.86733 -0.0141602 7.99986C-0.0141602 8.13238 0.012179 8.26359 0.0633268 8.38584C0.114474 8.5081 0.189411 8.61897 0.28378 8.71202C0.37815 8.80506 0.490071 8.87842 0.613039 8.92784C0.736007 8.97725 0.867571 9.00173 1.00008 8.99986H3.93368C5.27832 8.99986 6.44298 9.88603 6.81258 11.1737C6.82546 11.2467 6.84642 11.3181 6.87508 11.3866L11.4981 28.5604C12.2024 31.1752 14.5848 32.9999 17.2931 32.9999H40.0001C40.1326 33.0017 40.2642 32.9772 40.3871 32.9278C40.5101 32.8784 40.622 32.8051 40.7164 32.712C40.8108 32.619 40.8857 32.5081 40.9368 32.3858C40.988 32.2636 41.0143 32.1324 41.0143 31.9999C41.0143 31.8673 40.988 31.7361 40.9368 31.6139C40.8857 31.4916 40.8108 31.3807 40.7164 31.2877C40.622 31.1947 40.5101 31.1213 40.3871 31.0719C40.2642 31.0225 40.1326 30.998 40.0001 30.9999H17.2931C15.4799 30.9999 13.902 29.7912 13.4298 28.0409V28.0389L9.11141 11.9999H13.0001C13.2653 11.9998 13.5196 11.8944 13.7071 11.7069L20.9981 4.41392H21.0001L26.586 9.99986H19.0001C18.8676 9.99798 18.736 10.0225 18.613 10.0719C18.4901 10.1213 18.3781 10.1947 18.2838 10.2877C18.1894 10.3807 18.1145 10.4916 18.0633 10.6139C18.0122 10.7361 17.9858 10.8673 17.9858 10.9999C17.9858 11.1324 18.0122 11.2636 18.0633 11.3858C18.1145 11.5081 18.1894 11.619 18.2838 11.712C18.3781 11.8051 18.4901 11.8784 18.613 11.9278C18.736 11.9773 18.8676 12.0017 19.0001 11.9999H28.8731C28.9638 12.0124 29.0559 12.0124 29.1466 11.9999H42.9102C43.5892 11.9999 44.0517 12.6013 43.8829 13.246V13.2479L41.4024 22.7577C41.0562 24.0825 39.8695 24.9999 38.5001 24.9999H17.0001C16.8676 24.998 16.736 25.0225 16.613 25.0719C16.4901 25.1213 16.3781 25.1947 16.2838 25.2877C16.1894 25.3807 16.1145 25.4916 16.0633 25.6139C16.0122 25.7361 15.9858 25.8673 15.9858 25.9999C15.9858 26.1324 16.0122 26.2636 16.0633 26.3858C16.1145 26.5081 16.1894 26.619 16.2838 26.712C16.3781 26.8051 16.4901 26.8784 16.613 26.9278C16.736 26.9772 16.8676 27.0017 17.0001 26.9999H38.5001C40.7706 26.9999 42.7642 25.4587 43.338 23.2635V23.2616L45.8184 13.7518L45.8165 13.7538C46.3077 11.8784 44.8513 9.99986 42.9102 9.99986H40.0177L40.7403 5.94126C40.9321 4.86577 40.1966 3.8127 39.1212 3.62095L31.0899 2.19126C30.9555 2.16729 30.8216 2.15816 30.6895 2.16197ZM18.0001 34.9999C16.7501 34.9999 15.6853 35.5046 15.002 36.2733C14.3188 37.042 14.0001 38.0276 14.0001 38.9999C14.0001 39.9721 14.3188 40.9577 15.002 41.7264C15.6853 42.4951 16.7501 42.9999 18.0001 42.9999C19.2501 42.9999 20.3149 42.4951 20.9981 41.7264C21.6814 40.9577 22.0001 39.9721 22.0001 38.9999C22.0001 38.0276 21.6814 37.042 20.9981 36.2733C20.3149 35.5046 19.2501 34.9999 18.0001 34.9999ZM36.0001 34.9999C34.7501 34.9999 33.6853 35.5046 33.002 36.2733C32.3188 37.042 32.0001 38.0276 32.0001 38.9999C32.0001 39.9721 32.3188 40.9577 33.002 41.7264C33.6853 42.4951 34.7501 42.9999 36.0001 42.9999C37.2501 42.9999 38.3149 42.4951 38.9981 41.7264C39.6814 40.9577 40.0001 39.9721 40.0001 38.9999C40.0001 38.0276 39.6814 37.042 38.9981 36.2733C38.3149 35.5046 37.2501 34.9999 36.0001 34.9999ZM18.0001 36.9999C18.7501 36.9999 19.1853 37.2451 19.502 37.6014C19.8188 37.9577 20.0001 38.4721 20.0001 38.9999C20.0001 39.5276 19.8188 40.042 19.502 40.3983C19.1853 40.7546 18.7501 40.9999 18.0001 40.9999C17.2501 40.9999 16.8149 40.7546 16.4981 40.3983C16.1814 40.042 16.0001 39.5276 16.0001 38.9999C16.0001 38.4721 16.1814 37.9577 16.4981 37.6014C16.8149 37.2451 17.2501 36.9999 18.0001 36.9999ZM36.0001 36.9999C36.7501 36.9999 37.1853 37.2451 37.502 37.6014C37.8188 37.9577 38.0001 38.4721 38.0001 38.9999C38.0001 39.5276 37.8188 40.042 37.502 40.3983C37.1853 40.7546 36.7501 40.9999 36.0001 40.9999C35.2501 40.9999 34.8149 40.7546 34.4981 40.3983C34.1814 40.042 34.0001 39.5276 34.0001 38.9999C34.0001 38.4721 34.1814 37.9577 34.4981 37.6014C34.8149 37.2451 35.2501 36.9999 36.0001 36.9999Z" fill="#89B6E1"/>
</g>
<defs>
<clipPath id="clip0_38_133">
<rect width="48" height="48" fill="white"/>
</clipPath>
</defs>
</svg>
