<svg width="48" height="48" viewBox="0 0 48 48" fill="none" xmlns="http://www.w3.org/2000/svg">
<path d="M42.9375 4.0293C42.9375 4.0293 40.655 4.10602 37.836 4.73047C35.017 5.35492 31.599 6.50014 29.2422 8.85742L10.2149 27.8867L5.88286 26.5391L9.55083 22.8945C9.55148 22.8939 9.55213 22.8932 9.55278 22.8926C10.7249 21.7204 12.3159 21.0964 13.9434 21.1367C14.0747 21.1401 14.2054 21.1175 14.328 21.0703C14.4506 21.0232 14.5627 20.9523 14.658 20.8618C14.7532 20.7713 14.8296 20.6629 14.883 20.5429C14.9363 20.4228 14.9655 20.2934 14.9688 20.1621C14.9722 20.0308 14.9496 19.9001 14.9024 19.7775C14.8552 19.6549 14.7844 19.5428 14.6939 19.4476C14.6034 19.3523 14.495 19.2759 14.3749 19.2226C14.2549 19.1692 14.1255 19.1401 13.9942 19.1367C11.8237 19.083 9.70056 19.9167 8.13872 21.4785L3.29497 26.291C3.17272 26.4126 3.08399 26.5637 3.03737 26.7297C2.99075 26.8957 2.98784 27.0709 3.02892 27.2384C3.07 27.4058 3.15366 27.5598 3.2718 27.6854C3.38994 27.811 3.53854 27.9039 3.70317 27.9551L9.96098 29.9023L18.0977 38.0391L20.045 44.2969C20.0962 44.4615 20.1891 44.6101 20.3147 44.7282C20.4402 44.8464 20.5942 44.9301 20.7617 44.9711C20.9291 45.0122 21.1043 45.0093 21.2703 44.9627C21.4363 44.9161 21.5874 44.8273 21.709 44.7051L26.5215 39.8613L26.5235 39.8594C28.0841 38.2977 28.917 36.1754 28.8633 34.0059C28.86 33.8745 28.8308 33.7452 28.7775 33.6251C28.7242 33.505 28.6477 33.3967 28.5525 33.3062C28.4573 33.2157 28.3452 33.1448 28.2226 33.0976C28.1 33.0505 27.9693 33.0279 27.8379 33.0312C27.7066 33.0346 27.5772 33.0637 27.4572 33.1171C27.3371 33.1704 27.2288 33.2469 27.1383 33.3421C27.0478 33.4373 26.9769 33.5494 26.9297 33.672C26.8825 33.7946 26.86 33.9253 26.8633 34.0566C26.9036 35.6842 26.2796 37.2751 25.1075 38.4473C25.1068 38.4479 25.1062 38.4486 25.1055 38.4492L21.461 42.1172L20.1133 37.7852L39.1426 18.7578C41.4998 16.4006 42.6451 12.983 43.2696 10.1641C43.894 7.34518 43.9707 5.0625 43.9707 5.0625C43.9754 4.92558 43.9518 4.78916 43.9015 4.66172C43.8512 4.53428 43.7753 4.41853 43.6784 4.32165C43.5815 4.22478 43.4658 4.14884 43.3383 4.09855C43.2109 4.04826 43.0745 4.02469 42.9375 4.0293ZM41.8067 6.19336C41.7588 6.91329 41.7539 7.76654 41.3184 9.73242C40.7356 12.3633 39.6144 15.4579 37.7286 17.3438L18.9786 36.0918L11.9082 29.0215L30.6563 10.2715C32.5416 8.38578 35.6366 7.26444 38.2676 6.68164C40.2336 6.24615 41.0867 6.24122 41.8067 6.19336ZM33.5 13C33.1022 13 32.7207 13.158 32.4394 13.4393C32.1581 13.7206 32 14.1022 32 14.5C32 14.8978 32.1581 15.2794 32.4394 15.5607C32.7207 15.842 33.1022 16 33.5 16C33.8979 16 34.2794 15.842 34.5607 15.5607C34.842 15.2794 35 14.8978 35 14.5C35 14.1022 34.842 13.7206 34.5607 13.4393C34.2794 13.158 33.8979 13 33.5 13ZM28.5 18C28.1022 18 27.7207 18.158 27.4394 18.4393C27.1581 18.7206 27 19.1022 27 19.5C27 19.8978 27.1581 20.2794 27.4394 20.5607C27.7207 20.842 28.1022 21 28.5 21C28.8979 21 29.2794 20.842 29.5607 20.5607C29.842 20.2794 30 19.8978 30 19.5C30 19.1022 29.842 18.7206 29.5607 18.4393C29.2794 18.158 28.8979 18 28.5 18ZM9.35747 32.0195C9.17805 32.0163 9.00106 32.0613 8.84505 32.15C8.68903 32.2386 8.55975 32.3676 8.47075 32.5234C7.53459 34.1141 6.00005 37.247 6.00005 41C6.00007 41.2652 6.10544 41.5196 6.29297 41.7071C6.4805 41.8946 6.73484 42 7.00005 42C10.753 42 13.886 40.4655 15.4766 39.5293C15.5899 39.4626 15.6889 39.3743 15.768 39.2693C15.8472 39.1644 15.9048 39.0449 15.9378 38.9177C15.9707 38.7904 15.9782 38.6579 15.96 38.5278C15.9417 38.3976 15.898 38.2723 15.8313 38.1591C15.7646 38.0458 15.6762 37.9468 15.5713 37.8677C15.4663 37.7886 15.3468 37.731 15.2195 37.698C15.0923 37.6651 14.9598 37.6576 14.8297 37.6759C14.6995 37.6942 14.5742 37.738 14.461 37.8047C13.243 38.5215 10.8715 39.4896 8.21684 39.7832C8.51041 37.1285 9.47852 34.757 10.1954 33.5391C10.2868 33.3886 10.337 33.2167 10.3407 33.0407C10.3444 32.8646 10.3016 32.6908 10.2166 32.5366C10.1316 32.3824 10.0074 32.2534 9.85651 32.1626C9.70566 32.0718 9.53351 32.0225 9.35747 32.0195Z" fill="#89B6E1"/>
</svg>
