<svg width="48" height="48" viewBox="0 0 48 48" fill="none" xmlns="http://www.w3.org/2000/svg">
<path d="M24 1C18.7333 1 15.4453 3.16797 15.4453 3.16797C15.2576 3.29332 15.1177 3.47849 15.0486 3.69339C14.9794 3.90828 14.985 4.14025 15.0645 4.35156L18.0645 12.3516C18.1107 12.4745 18.1808 12.5871 18.2706 12.6829C18.3604 12.7788 18.4682 12.856 18.5879 12.9102C18.5879 12.9102 20.9674 14 24 14C26.4849 14 28.1874 13.3716 28.8457 13.1074C38.2624 18.9399 42 28.0152 42 33.6562C42 37.9016 40.1808 40.274 36.9922 41.8477C33.8036 43.4213 29.1756 44 24 44C18.8244 44 14.1964 43.4213 11.0078 41.8477C7.81921 40.274 6 37.9016 6 33.6562C6 28.5671 9.02289 20.6528 16.5273 14.8887C16.6326 14.8091 16.7211 14.7094 16.7877 14.5954C16.8543 14.4815 16.8977 14.3554 16.9153 14.2246C16.933 14.0938 16.9246 13.9608 16.8906 13.8333C16.8566 13.7057 16.7977 13.5862 16.7172 13.4815C16.6368 13.3768 16.5364 13.2891 16.4219 13.2234C16.3074 13.1577 16.1811 13.1154 16.0501 13.0988C15.9192 13.0821 15.7862 13.0916 15.659 13.1266C15.5317 13.1616 15.4126 13.2215 15.3086 13.3027C7.31504 19.4426 4 27.7954 4 33.6562C4 38.5239 6.4349 41.8224 10.123 43.6426C13.8112 45.4627 18.6826 46 24 46C29.3174 46 34.1888 45.4627 37.877 43.6426C41.5651 41.8224 44 38.5239 44 33.6562C44 27.0717 39.8123 17.3218 29.5137 11.1426C29.3751 11.0597 29.2185 11.0116 29.0573 11.0024C28.896 10.9932 28.735 11.0232 28.5879 11.0898C28.5879 11.0898 26.5554 12 24 12C21.7885 12 20.2211 11.3965 19.7715 11.2129L17.2559 4.50195C18.0383 4.05839 20.119 3 24 3C27.881 3 29.9617 4.05839 30.7441 4.50195L29.3125 8.32227C29.2594 8.44654 29.2321 8.58028 29.2321 8.71542C29.2321 8.85056 29.2596 8.98429 29.3127 9.10854C29.3659 9.23278 29.4436 9.34497 29.5414 9.43832C29.6391 9.53166 29.7547 9.60424 29.8812 9.65166C30.0078 9.69908 30.1426 9.72037 30.2776 9.71423C30.4126 9.70809 30.545 9.67465 30.6667 9.61593C30.7884 9.55722 30.897 9.47445 30.9858 9.37261C31.0747 9.27078 31.1419 9.152 31.1836 9.02344L32.9355 4.35156C33.015 4.14025 33.0205 3.90828 32.9514 3.69339C32.8823 3.47849 32.7424 3.29332 32.5547 3.16797C32.5547 3.16797 29.2667 1 24 1ZM23.9844 17.9863C23.7195 17.9905 23.4671 18.0995 23.2825 18.2896C23.098 18.4796 22.9964 18.7351 23 19V20.9844C20.273 21.3334 18.4258 23.0317 18.4258 25.3906C18.4258 27.6246 19.8318 29.0638 22.9258 29.7188L24.623 30.0723C26.697 30.5233 27.5137 31.2755 27.5137 32.4785C27.5137 33.8645 26.1066 34.875 24.1406 34.875C22.3466 34.875 20.9381 34.198 20.4551 32.748C20.2181 32.168 19.8644 31.9219 19.3164 31.9219C18.6614 31.9219 18.2305 32.3723 18.2305 33.0703C18.2305 33.3283 18.2844 33.5863 18.3594 33.8223C18.8896 35.4122 20.5547 36.6075 23 36.8711V39C22.9981 39.1325 23.0226 39.2641 23.072 39.387C23.1214 39.51 23.1948 39.6219 23.2878 39.7163C23.3809 39.8107 23.4918 39.8856 23.614 39.9368C23.7363 39.9879 23.8675 40.0142 24 40.0142C24.1325 40.0142 24.2637 39.9879 24.386 39.9368C24.5082 39.8856 24.6191 39.8107 24.7122 39.7163C24.8052 39.6219 24.8786 39.51 24.928 39.387C24.9774 39.2641 25.0019 39.1325 25 39V36.8652C28.0501 36.5599 29.9512 34.8188 29.9512 32.1699C29.9512 29.9139 28.6202 28.6138 25.3652 27.9258L23.6777 27.5723C21.6697 27.1423 20.8633 26.3897 20.8633 25.2617C20.8633 23.8437 22.2065 22.9629 24.0215 22.9629C25.5685 22.9629 26.7513 23.5749 27.2773 25.0039C27.5243 25.5619 27.879 25.8301 28.459 25.8301C29.082 25.8301 29.5215 25.4238 29.5215 24.8008C29.5215 24.5748 29.4895 24.3902 29.4355 24.2402C28.9065 22.4186 27.2172 21.2289 25 20.9668V19C25.0018 18.8662 24.9768 18.7334 24.9264 18.6095C24.876 18.4855 24.8012 18.373 24.7065 18.2784C24.6118 18.1839 24.4991 18.1094 24.375 18.0592C24.251 18.009 24.1182 17.9842 23.9844 17.9863Z" fill="#89B6E1"/>
</svg>
