<svg width="48" height="48" viewBox="0 0 48 48" fill="none" xmlns="http://www.w3.org/2000/svg">
<path d="M24 3C12.4139 3 3 12.4139 3 24C3 35.5861 12.4139 45 24 45C35.5861 45 45 35.5861 45 24C45 12.4139 35.5861 3 24 3ZM24 5C34.5053 5 43 13.4947 43 24C43 34.5053 34.5053 43 24 43C13.4947 43 5 34.5053 5 24C5 13.4947 13.4947 5 24 5ZM24 12C18.5258 12 13.8923 15.675 12.459 20.7031C12.417 20.831 12.4014 20.9661 12.4129 21.1002C12.4244 21.2343 12.4628 21.3647 12.5259 21.4835C12.589 21.6024 12.6754 21.7074 12.78 21.792C12.8846 21.8767 13.0053 21.9394 13.1347 21.9764C13.2641 22.0133 13.3996 22.0238 13.5332 22.0071C13.6668 21.9905 13.7956 21.947 13.9119 21.8794C14.0283 21.8117 14.1298 21.7213 14.2104 21.6135C14.2909 21.5057 14.3489 21.3827 14.3809 21.252C15.5735 17.068 19.4202 14 24 14C27.7126 14 30.9383 16.02 32.6641 19.0117L29.627 18.123C29.5009 18.0861 29.3688 18.0743 29.2382 18.0884C29.1075 18.1026 28.981 18.1423 28.8657 18.2053C28.7505 18.2683 28.6487 18.3534 28.5663 18.4557C28.484 18.5581 28.4226 18.6757 28.3856 18.8017C28.3487 18.9278 28.3369 19.0599 28.3511 19.1905C28.3652 19.3211 28.4049 19.4477 28.4679 19.5629C28.531 19.6782 28.6161 19.7799 28.7185 19.8623C28.8208 19.9447 28.9384 20.006 29.0645 20.043L34.5645 21.6523C34.7026 21.6927 34.8479 21.7028 34.9904 21.6818C35.1328 21.6609 35.269 21.6094 35.3897 21.531C35.5105 21.4525 35.6128 21.3489 35.6898 21.2273C35.7668 21.1057 35.8167 20.9688 35.8359 20.8262L36.6035 15.1465C36.6243 15.0059 36.615 14.8624 36.576 14.7257C36.537 14.589 36.4693 14.4622 36.3775 14.3537C36.2856 14.2452 36.1717 14.1575 36.0433 14.0965C35.9149 14.0356 35.7749 14.0026 35.6328 14C35.3853 13.9953 35.1448 14.0826 34.958 14.2449C34.7711 14.4073 34.651 14.6332 34.6211 14.8789L34.2344 17.748C32.1236 14.3015 28.3281 12 24 12ZM34.5469 26.0098C34.3337 26.0178 34.1287 26.0938 33.9618 26.2266C33.7949 26.3594 33.6748 26.5421 33.6191 26.748C32.4265 30.932 28.5798 34 24 34C20.2874 34 17.0617 31.98 15.3359 28.9883L18.373 29.877C18.4991 29.9139 18.6312 29.9257 18.7618 29.9116C18.8925 29.8974 19.019 29.8577 19.1343 29.7947C19.2495 29.7317 19.3513 29.6466 19.4337 29.5443C19.516 29.4419 19.5774 29.3243 19.6144 29.1983C19.6513 29.0722 19.6631 28.9401 19.6489 28.8095C19.6348 28.6789 19.5951 28.5523 19.5321 28.4371C19.469 28.3218 19.3839 28.2201 19.2815 28.1377C19.1792 28.0553 19.0616 27.994 18.9355 27.957L13.4355 26.3477C13.3391 26.3198 13.239 26.3066 13.1387 26.3086C12.8996 26.3125 12.6699 26.4019 12.4911 26.5607C12.3123 26.7194 12.1963 26.9369 12.1641 27.1738L11.3965 32.8535C11.3789 32.9837 11.3871 33.1161 11.4206 33.2431C11.4542 33.3701 11.5124 33.4893 11.5921 33.5938C11.6717 33.6983 11.7711 33.7861 11.8847 33.8521C11.9982 33.9182 12.1237 33.9613 12.2539 33.9788C12.3841 33.9964 12.5164 33.9881 12.6434 33.9546C12.7704 33.921 12.8896 33.8627 12.9941 33.783C13.0985 33.7034 13.1863 33.6039 13.2523 33.4903C13.3184 33.3768 13.3614 33.2513 13.3789 33.1211L13.7656 30.252C15.8764 33.6985 19.6719 36 24 36C29.4742 36 34.1077 32.325 35.541 27.2969C35.5868 27.1446 35.5955 26.9836 35.5666 26.8273C35.5377 26.6709 35.4719 26.5237 35.3747 26.3979C35.2775 26.272 35.1517 26.1712 35.0077 26.1037C34.8638 26.0362 34.7058 26.004 34.5469 26.0098Z" fill="#25255F"/>
</svg>
