<svg width="48" height="48" viewBox="0 0 48 48" fill="none" xmlns="http://www.w3.org/2000/svg">
<path d="M22.5 1C21.1309 1 20 2.13094 20 3.5V6.53711C18.0104 6.99174 16.1555 7.76611 14.4766 8.82031L12.332 6.67578C11.3639 5.70767 9.76431 5.70669 8.79688 6.67578L6.67578 8.79688C5.70767 9.76499 5.70669 11.3646 6.67578 12.332L8.82031 14.4766C7.76602 16.1554 6.99193 18.0102 6.53711 20H3.5C2.13094 20 1 21.1309 1 22.5V25.5C1 26.8691 2.13094 28 3.5 28H6.53711C6.99174 29.9896 7.76611 31.8445 8.82031 33.5234L6.67578 35.668C5.70767 36.6361 5.70669 38.2357 6.67578 39.2031L8.79492 41.3242C9.76263 42.2919 11.3643 42.2919 12.332 41.3242L14.4766 39.1797C16.1549 40.2336 18.0088 41.0067 19.998 41.4609V44.498C19.998 45.8671 21.129 46.998 22.498 46.998H25.498C26.8671 46.998 27.998 45.8671 27.998 44.498V41.4629C29.9878 41.0083 31.8424 40.234 33.5215 39.1797L35.666 41.3242C36.6337 42.2919 38.2336 42.2919 39.2012 41.3242L41.3223 39.2031C42.2904 38.235 42.2914 36.6354 41.3223 35.668L39.1777 33.5234C40.232 31.8446 41.0067 29.99 41.4609 28H44.498C45.8671 28 46.998 26.8691 46.998 25.5V22.502V22.5C47.0003 21.1305 45.8684 20 44.5 20H41.4629C41.0083 18.0104 40.2339 16.1555 39.1797 14.4766L41.3242 12.332C42.2923 11.3639 42.2933 9.76431 41.3242 8.79688L39.2051 6.67578C38.2374 5.70807 36.6357 5.70807 35.668 6.67578L33.5234 8.82031C31.8441 7.76611 29.9898 6.99193 28 6.53711V3.5C28 2.13094 26.8691 1 25.5 1H22.5ZM22.5 3H25.5C25.7869 3 26 3.21306 26 3.5V7.2793C26 7.51401 26.0826 7.74124 26.2333 7.9212C26.384 8.10116 26.5932 8.22239 26.8242 8.26367C29.14 8.6771 31.2795 9.58038 33.1348 10.873C33.3274 11.0074 33.5611 11.0696 33.795 11.0489C34.0289 11.0282 34.248 10.9258 34.4141 10.7598L37.084 8.08984C37.2883 7.88555 37.5848 7.88555 37.7891 8.08984L39.9102 10.2109H39.9121C40.115 10.4135 40.1141 10.7141 39.9102 10.918L37.2402 13.5879C37.0742 13.7539 36.9718 13.9731 36.9511 14.207C36.9304 14.4408 36.9926 14.6746 37.127 14.8672C38.4193 16.7211 39.3229 18.8598 39.7363 21.1758C39.7776 21.4068 39.8988 21.616 40.0788 21.7667C40.2588 21.9174 40.486 22 40.7207 22H44.5C44.7869 22 44.9987 22.2124 44.998 22.498V22.5V25.5C44.998 25.7869 44.785 26 44.498 26H40.7188C40.484 26 40.2568 26.0826 40.0768 26.2333C39.8969 26.384 39.7757 26.5932 39.7344 26.8242C39.3219 29.1396 38.4175 31.2787 37.125 33.1328C36.9907 33.3254 36.9284 33.5591 36.9492 33.793C36.9699 34.0269 37.0722 34.2461 37.2383 34.4121L39.9082 37.082H39.9102C40.1131 37.2846 40.1121 37.5852 39.9082 37.7891L37.7871 39.9102C37.5845 40.1131 37.2859 40.114 37.082 39.9102L34.4102 37.2402C34.2443 37.0747 34.0255 36.9726 33.792 36.9519C33.5586 36.9312 33.3253 36.9932 33.1328 37.127C31.2789 38.4193 29.1402 39.3209 26.8242 39.7344C26.5928 39.7752 26.3832 39.8963 26.2321 40.0763C26.081 40.2563 25.9982 40.4838 25.998 40.7188V44.498C25.998 44.785 25.785 44.998 25.498 44.998H22.498C22.2111 44.998 21.998 44.785 21.998 44.498V40.7188C21.998 40.484 21.9154 40.2568 21.7647 40.0768C21.6141 39.8969 21.4049 39.7757 21.1738 39.7344C18.8584 39.3219 16.7194 38.4195 14.8652 37.127C14.6726 36.9926 14.4389 36.9304 14.205 36.9511C13.9711 36.9718 13.752 37.0742 13.5859 37.2402L10.916 39.9102C10.7117 40.1144 10.4152 40.1144 10.2109 39.9102L8.08984 37.7891H8.08789C7.88498 37.5865 7.88595 37.2859 8.08984 37.082L10.7598 34.4121C10.9258 34.2461 11.0282 34.0269 11.0489 33.793C11.0696 33.5591 11.0074 33.3254 10.873 33.1328C9.58065 31.2789 8.67714 29.1402 8.26367 26.8242C8.22239 26.5932 8.10116 26.384 7.9212 26.2333C7.74124 26.0826 7.51401 26 7.2793 26H3.5C3.21306 26 3 25.7869 3 25.5V22.5C3 22.2131 3.21306 22 3.5 22H7.2793C7.51401 22 7.74124 21.9174 7.9212 21.7667C8.10116 21.616 8.22239 21.4068 8.26367 21.1758C8.6771 18.86 9.58052 16.7213 10.873 14.8672C11.0074 14.6746 11.0696 14.4408 11.0489 14.207C11.0282 13.9731 10.9258 13.7539 10.7598 13.5879L8.08984 10.918C7.88693 10.7154 7.88595 10.4148 8.08984 10.2109L10.2109 8.08984V8.08789C10.4135 7.88498 10.7141 7.88596 10.918 8.08984L13.5879 10.7598C13.7539 10.9258 13.9731 11.0282 14.207 11.0489C14.4408 11.0696 14.6746 11.0074 14.8672 10.873C16.7211 9.58065 18.8598 8.67714 21.1758 8.26367C21.4068 8.22239 21.616 8.10116 21.7667 7.9212C21.9174 7.74124 22 7.51401 22 7.2793V3.5C22 3.21306 22.2131 3 22.5 3ZM24 14C18.489 14 14 18.489 14 24C14 29.511 18.489 34 24 34C29.511 34 34 29.511 34 24C34 18.489 29.511 14 24 14ZM24 16C28.4301 16 32 19.5699 32 24C32 28.4301 28.4301 32 24 32C19.5699 32 16 28.4301 16 24C16 19.5699 19.5699 16 24 16Z" fill="#25255F"/>
</svg>
