<svg width="49" height="48" viewBox="0 0 49 48" fill="none" xmlns="http://www.w3.org/2000/svg">
<path d="M34.0195 1.05859C32.6549 1.05859 31.3833 1.75368 30.6484 2.90234L20.4785 18.8027L13.0117 21.043C12.9907 21.0494 12.9698 21.0566 12.9492 21.0645C11.9611 21.435 11.175 22.0933 10.5859 22.918C10.5772 22.9308 10.5687 22.9438 10.5605 22.957L4.05859 32.9883L0.996094 33C0.731563 33.0011 0.478227 33.1069 0.29154 33.2943C0.104853 33.4817 2.43282e-05 33.7355 0 34L0 46C2.65169e-05 46.2652 0.105392 46.5195 0.292922 46.7071C0.480453 46.8946 0.734792 47 1 47H13.8652C16.6142 47 19.2147 45.7418 20.9219 43.5859L24.3574 39.2461L26.6484 40.7109H26.6504C27.293 41.1212 28.0389 41.3418 28.8027 41.3418C30.1673 41.3418 31.4389 40.6449 32.1738 39.4961L48.3418 14.2207C49.5251 12.3708 48.9782 9.87856 47.127 8.69531L36.1738 1.68945H36.1719C35.5295 1.27892 34.782 1.05859 34.0195 1.05859ZM34.0195 3.05859C34.4004 3.05859 34.7724 3.16819 35.0957 3.375L46.0488 10.3809C46.9856 10.9796 47.255 12.2065 46.6562 13.1426L30.4902 38.4199C30.1172 39.0031 29.4961 39.3418 28.8027 39.3418C28.4205 39.3418 28.052 39.2332 27.7266 39.0254V39.0273L25.6055 37.6699L29.0527 33.3145C30.2952 31.744 30.139 29.4627 28.6914 28.0781C27.3307 26.7764 25.2152 26.6376 23.6953 27.75H23.6934L16.5957 32.9473C16.4866 33.0236 16.3939 33.121 16.3229 33.2336C16.252 33.3463 16.2042 33.472 16.1825 33.6034C16.1608 33.7347 16.1655 33.8691 16.1964 33.9986C16.2272 34.1281 16.2837 34.2502 16.3624 34.3576C16.441 34.465 16.5404 34.5556 16.6545 34.6241C16.7687 34.6926 16.8954 34.7377 17.0272 34.7566C17.159 34.7755 17.2932 34.7679 17.422 34.7342C17.5508 34.7006 17.6716 34.6415 17.7773 34.5605L24.875 29.3633C25.6231 28.8157 26.6393 28.8832 27.3086 29.5234C28.023 30.2068 28.0979 31.2987 27.4844 32.0742L19.3535 42.3438C18.0247 44.0219 16.0043 45 13.8652 45H2V34.9961L4.60742 34.9863C4.77327 34.9856 4.93632 34.9436 5.0819 34.8641C5.22749 34.7847 5.35103 34.6703 5.44141 34.5312L12.2129 24.082C12.6223 23.5089 13.0365 23.1689 13.6445 22.9395L18.8262 21.3867L14.4805 28.1797C14.3375 28.4032 14.2892 28.6744 14.3461 28.9335C14.4031 29.1926 14.5607 29.4186 14.7842 29.5615C15.0077 29.7045 15.2789 29.7528 15.538 29.6959C15.7971 29.6389 16.023 29.4813 16.166 29.2578L21.9023 20.2891L21.9043 20.2871C21.9561 20.2243 22 20.1555 22.0352 20.082L32.334 3.98047C32.7072 3.39713 33.3242 3.05859 34.0195 3.05859ZM30.2559 15.2324C28.4681 15.1502 26.769 15.8079 25.668 17.5293C21.7532 23.6499 33.2395 30.9956 37.1543 24.875C39.968 20.4758 34.8246 15.4426 30.2559 15.2324ZM30.0352 17.207C33.2606 17.1933 37.354 20.8493 35.4688 23.7969C32.9551 27.7269 24.8399 22.5355 27.3535 18.6055C27.9819 17.623 28.96 17.2116 30.0352 17.207Z" fill="#89B6E1"/>
</svg>
