<svg width="48" height="48" viewBox="0 0 48 48" fill="none" xmlns="http://www.w3.org/2000/svg">
<path d="M24 3C12.4139 3 3 12.4139 3 24C3 35.5861 12.4139 45 24 45C35.5861 45 45 35.5861 45 24C45 12.4139 35.5861 3 24 3ZM24 5C34.5053 5 43 13.4947 43 24C43 34.5053 34.5053 43 24 43C13.4947 43 5 34.5053 5 24C5 13.4947 13.4947 5 24 5ZM23.9844 10.9863C23.7195 10.9905 23.4671 11.0995 23.2825 11.2896C23.098 11.4796 22.9964 11.7351 23 12V14.0859C19.6151 14.4618 17.3223 16.5526 17.3223 19.4219C17.3223 22.1559 18.9897 23.9022 22.8438 24.7422L24.9766 25.209C27.6436 25.796 28.7109 26.8626 28.7109 28.4766C28.7109 30.3706 26.8161 31.7441 24.2031 31.7441C21.7751 31.7441 19.8819 30.8112 19.2949 28.8242C19.1089 28.1842 18.7358 27.877 18.1348 27.877C17.4558 27.877 17.0293 28.3572 17.0293 29.1172C17.0293 29.3972 17.0821 29.689 17.1621 29.957C17.8092 32.0391 19.9558 33.5531 23 33.8438V36C22.9981 36.1325 23.0226 36.2641 23.072 36.387C23.1214 36.51 23.1948 36.6219 23.2878 36.7163C23.3809 36.8107 23.4918 36.8856 23.614 36.9368C23.7363 36.9879 23.8675 37.0142 24 37.0142C24.1325 37.0142 24.2637 36.9879 24.386 36.9368C24.5082 36.8856 24.6191 36.8107 24.7122 36.7163C24.8052 36.6219 24.8786 36.51 24.928 36.387C24.9774 36.2641 25.0019 36.1325 25 36V33.8652C28.774 33.5639 31.1777 31.414 31.1777 28.1172C31.1777 25.3962 29.5912 23.796 25.5762 22.916L23.4414 22.4492C20.8144 21.8762 19.7891 20.8355 19.7891 19.3145C19.7891 17.3535 21.643 16.1816 24.043 16.1816C26.123 16.1816 27.71 17.0345 28.377 18.9805C28.591 19.5955 28.9632 19.9141 29.5762 19.9141C30.2172 19.9141 30.6719 19.4889 30.6719 18.8359C30.6719 18.5829 30.6455 18.3804 30.6055 18.2344C29.9782 15.8801 27.7914 14.3482 25 14.0762V12C25.0018 11.8662 24.9768 11.7334 24.9264 11.6095C24.876 11.4855 24.8012 11.373 24.7065 11.2784C24.6118 11.1839 24.4991 11.1094 24.375 11.0592C24.251 11.009 24.1182 10.9842 23.9844 10.9863Z" fill="#25255F"/>
</svg>
