<svg width="48" height="48" viewBox="0 0 48 48" fill="none" xmlns="http://www.w3.org/2000/svg">
<path d="M27.3123 9C24.9462 9 22.6442 9.76359 20.7459 11.1758H20.7439L13.8318 16.3203C13.1206 16.8379 12.8201 17.7824 13.1306 18.6191L13.1326 18.625L13.1345 18.6289C14.0164 20.9229 16.428 22.2861 18.8533 21.8633C20.8779 21.517 22.8995 20.8072 25.4607 19.4395C25.5778 19.3782 25.6815 19.2944 25.766 19.1928C25.8505 19.0913 25.914 18.974 25.9529 18.8477C25.9917 18.7215 26.0052 18.5888 25.9925 18.4573C25.9799 18.3258 25.9413 18.1981 25.8789 18.0816C25.8166 17.9651 25.7319 17.8621 25.6295 17.7786C25.5272 17.6951 25.4093 17.6326 25.2827 17.5949C25.1561 17.5571 25.0233 17.5449 24.8919 17.5588C24.7606 17.5726 24.6333 17.6124 24.5173 17.6758C22.0841 18.9752 20.3137 19.5847 18.5115 19.8926H18.5095C17.031 20.1503 15.5629 19.3158 15.0173 17.9297L21.9392 12.7793V12.7812C23.4929 11.6254 25.3764 11 27.3123 11H31.656C33.1351 11 34.6084 11.1736 36.0466 11.5156L39.2322 12.2715C40.8023 12.6442 42.0946 13.7482 42.7048 15.2422V15.2441L44.6951 20.1113C45.3372 21.6818 44.9216 23.4773 43.656 24.6074L36.7693 30.7578C36.6713 30.8453 36.5915 30.9512 36.5345 31.0695C36.4774 31.1878 36.4442 31.3162 36.4368 31.4473C36.4294 31.5784 36.4478 31.7097 36.4911 31.8337C36.5345 31.9577 36.6018 32.0719 36.6892 32.1699C36.7767 32.2679 36.8826 32.3477 37.0009 32.4047C37.1192 32.4618 37.2476 32.495 37.3787 32.5024C37.5098 32.5099 37.6411 32.4914 37.7651 32.4481C37.8891 32.4048 38.0034 32.3375 38.1013 32.25L44.9881 26.0996C46.8804 24.4098 47.5046 21.7011 46.5447 19.3535L44.5545 14.4863H44.5564C43.7027 12.3964 41.889 10.8455 39.6931 10.3242L36.5095 9.56836C34.9198 9.19035 33.2909 9 31.656 9H27.3123ZM16.1267 10C13.4796 10 10.8548 10.501 8.3943 11.4766L6.9275 12.0566C4.98663 12.8253 3.48918 14.4223 2.84547 16.4082L1.47633 20.6387C0.203162 24.5681 1.2407 28.8855 4.16188 31.8066L15.1502 42.8066C16.5093 44.1643 18.7411 44.1649 20.0994 42.8066C20.4996 42.406 20.7671 41.9256 20.9314 41.418C22.2887 42.3149 24.1527 42.1694 25.3435 40.9785C25.8348 40.4867 26.0847 39.8701 26.2205 39.2324C27.4576 39.674 28.8946 39.4274 29.8787 38.4434C30.3649 37.9567 30.6703 37.3572 30.8084 36.7266C32.0331 37.1408 33.4442 36.8759 34.4138 35.9062C35.7715 34.5472 35.7721 32.3153 34.4138 30.957L34.4119 30.9551L25.2947 21.8809C25.2013 21.7854 25.0898 21.7096 24.9667 21.658C24.8436 21.6063 24.7114 21.5798 24.5779 21.5801C24.3789 21.5805 24.1845 21.6403 24.0197 21.7518C23.8548 21.8633 23.727 22.0215 23.6526 22.206C23.5781 22.3906 23.5604 22.5932 23.6017 22.7878C23.6431 22.9825 23.7415 23.1604 23.8845 23.2988L33.0017 32.373C33.593 32.9664 33.5921 33.8979 32.9998 34.4922C32.4061 35.0859 31.4716 35.0865 30.8767 34.4922L30.8748 34.4902L29.9256 33.5488C29.9083 33.5308 29.8964 33.5099 29.8787 33.4922L25.6931 29.3066C25.5997 29.2106 25.4879 29.1343 25.3645 29.0823C25.241 29.0303 25.1084 29.0037 24.9744 29.0039C24.7756 29.0043 24.5815 29.064 24.4168 29.1753C24.2521 29.2865 24.1242 29.4443 24.0496 29.6286C23.975 29.8128 23.957 30.0151 23.9979 30.2096C24.0387 30.4041 24.1366 30.5821 24.2791 30.7207L24.5857 31.0254L24.5896 31.0312C24.6361 31.1103 24.6933 31.1826 24.7595 31.2461L28.5154 34.9668C29.053 35.5619 29.0398 36.4536 28.4646 37.0293C27.872 37.6219 26.9405 37.6221 26.3455 37.0312L21.7146 32.3008C21.6234 32.2043 21.5139 32.1269 21.3925 32.0732C21.2711 32.0195 21.1402 31.9905 21.0074 31.9879C20.8747 31.9853 20.7427 32.0092 20.6193 32.0581C20.4959 32.107 20.3834 32.18 20.2885 32.2729C20.1936 32.3657 20.1181 32.4765 20.0665 32.5988C20.0149 32.7211 19.9881 32.8525 19.9877 32.9853C19.9874 33.1181 20.0135 33.2496 20.0645 33.3721C20.1156 33.4947 20.1905 33.6059 20.2849 33.6992L23.8064 37.2969C23.8427 37.3495 23.8839 37.3986 23.9295 37.4434C24.5232 38.0371 24.5218 38.9695 23.9275 39.5645C23.3342 40.1563 22.4029 40.1569 21.8084 39.5645H21.8064L18.2224 35.8105C18.1339 35.7077 18.0255 35.624 17.9036 35.5644C17.7817 35.5049 17.649 35.4707 17.5135 35.4641C17.378 35.4574 17.2426 35.4784 17.1155 35.5257C16.9884 35.573 16.8722 35.6457 16.7741 35.7393C16.6759 35.833 16.5978 35.9456 16.5446 36.0704C16.4913 36.1951 16.464 36.3294 16.4643 36.4651C16.4646 36.6007 16.4925 36.7349 16.5463 36.8594C16.6 36.9839 16.6786 37.0962 16.7771 37.1895L18.4666 38.9609C18.519 39.0775 18.5932 39.1829 18.6853 39.2715C19.279 39.8652 19.2796 40.7977 18.6853 41.3926C18.0916 41.9863 17.1591 41.9869 16.5642 41.3926L5.57594 30.3926C3.18312 27.9998 2.33585 24.4744 3.37868 21.2559L4.74782 17.0254C5.20811 15.6053 6.27671 14.4654 7.66383 13.916L9.13063 13.3359C11.3562 12.4535 13.7319 12 16.1267 12H16.9998C17.1323 12.0019 17.2638 11.9774 17.3868 11.928C17.5098 11.8786 17.6217 11.8052 17.7161 11.7122C17.8104 11.6191 17.8854 11.5082 17.9365 11.386C17.9877 11.2637 18.014 11.1325 18.014 11C18.014 10.8675 17.9877 10.7363 17.9365 10.614C17.8854 10.4918 17.8104 10.3809 17.7161 10.2878C17.6217 10.1948 17.5098 10.1214 17.3868 10.072C17.2638 10.0226 17.1323 9.99813 16.9998 10H16.1267Z" fill="#25255F"/>
</svg>
