<svg width="48" height="48" viewBox="0 0 48 48" fill="none" xmlns="http://www.w3.org/2000/svg">
<path d="M22.043 4.023C22.326 4.008 22.611 4 22.897 4C31.677 4 38.794 11.118 38.794 19.897V21.435L42.812 28.369C43.138 28.931 42.865 29.651 42.249 29.856L39.82 30.666L39.186 36.436C38.964 38.465 37.25 40 35.21 40H31V45H12.128C12.128 45 12.128 39.871 12.128 35.413C12.128 28.725 7 27.59 7 20.601V19.898C7 12.827 11.616 6.834 18 4.769" stroke="#25255F" stroke-width="2" stroke-miterlimit="10" stroke-linecap="round" stroke-linejoin="round"/>
<path d="M25.88 24.974C25.959 24.662 26 24.336 26 24V19C26 16.791 24.209 15 22 15C19.791 15 18 16.791 18 19V24C18 26.209 19.791 28 22 28C22.36 28 22.709 27.957 23.041 27.868C26.074 32.495 31.834 32.5 31.834 32.5" stroke="#25255F" stroke-width="2" stroke-miterlimit="10" stroke-linecap="round" stroke-linejoin="round"/>
<path d="M22.043 15L22 3" stroke="#25255F" stroke-width="2" stroke-miterlimit="10" stroke-linecap="round" stroke-linejoin="round"/>
<path d="M32.5 36C33.8807 36 35 34.8807 35 33.5C35 32.1193 33.8807 31 32.5 31C31.1193 31 30 32.1193 30 33.5C30 34.8807 31.1193 36 32.5 36Z" fill="white" stroke="#25255F" stroke-width="2" stroke-miterlimit="10" stroke-linecap="round" stroke-linejoin="round"/>
</svg>
