<svg width="48" height="48" viewBox="0 0 48 48" fill="none" xmlns="http://www.w3.org/2000/svg">
<path d="M39.0273 5.09374C38.8288 5.09796 38.6282 5.12199 38.4277 5.16796L5.28512 12.7578C3.68213 13.1254 2.66343 14.7479 3.03121 16.3516L3.91012 20.1836C3.93749 20.3136 3.99049 20.4368 4.06603 20.5461C4.14156 20.6554 4.23811 20.7486 4.35004 20.8201C4.46197 20.8917 4.58704 20.9402 4.71794 20.9629C4.84883 20.9856 4.98294 20.982 5.11243 20.9523C5.24192 20.9226 5.36419 20.8674 5.4721 20.7899C5.58001 20.7124 5.6714 20.6142 5.74094 20.501C5.81047 20.3878 5.85675 20.2618 5.87708 20.1306C5.89741 19.9993 5.89138 19.8653 5.85934 19.7363L4.98043 15.9062C4.85422 15.3559 5.18138 14.8334 5.73239 14.707L38.875 7.11718C39.4253 6.99097 39.9459 7.31812 40.0722 7.86913L42.8847 20.1445C42.9121 20.2745 42.9651 20.3978 43.0406 20.5071C43.1162 20.6164 43.2127 20.7095 43.3246 20.7811C43.4366 20.8526 43.5616 20.9012 43.6925 20.9239C43.8234 20.9466 43.9576 20.943 44.087 20.9133C44.2165 20.8835 44.3388 20.8283 44.4467 20.7508C44.5546 20.6733 44.646 20.5751 44.7156 20.4619C44.7851 20.3487 44.8314 20.2228 44.8517 20.0915C44.872 19.9602 44.866 19.8262 44.834 19.6973L42.0215 7.42187C41.6998 6.01925 40.4172 5.06426 39.0273 5.09374ZM23.8203 12.2695C23.4277 12.2567 23.0306 12.2943 22.6347 12.3867H22.6328C21.0859 12.7391 19.8887 13.8583 19.2089 15.2754C18.5283 16.6944 18.3247 18.4317 18.6914 20.2031C18.7137 20.3358 18.7625 20.4626 18.835 20.5759C18.9075 20.6893 19.0021 20.7869 19.1131 20.8628C19.2242 20.9387 19.3494 20.9915 19.4813 21.0179C19.6133 21.0443 19.7492 21.0438 19.8809 21.0165C20.0126 20.9891 20.1375 20.9355 20.248 20.8587C20.3585 20.782 20.4524 20.6838 20.5241 20.5699C20.5957 20.456 20.6437 20.3289 20.665 20.1961C20.6864 20.0632 20.6807 19.9275 20.6484 19.7969C20.3651 18.4283 20.5423 17.1191 21.0117 16.1406C21.481 15.1621 22.1999 14.5351 23.08 14.3359C23.0826 14.3353 23.0853 14.3346 23.0879 14.334C23.9838 14.1244 24.9289 14.3931 25.7949 15.1074C26.6609 15.8217 27.3959 16.9798 27.7148 18.3906C27.7161 18.3952 27.7174 18.3997 27.7187 18.4043C27.8472 18.9354 27.8992 19.4721 27.8906 19.9824C27.8883 20.1138 27.9118 20.2443 27.9599 20.3665C28.008 20.4887 28.0798 20.6003 28.171 20.6948C28.2622 20.7893 28.3712 20.8649 28.4916 20.9173C28.6121 20.9697 28.7417 20.9979 28.873 21.0002C29.0043 21.0025 29.1349 20.9789 29.2571 20.9308C29.3793 20.8826 29.4908 20.8109 29.5853 20.7197C29.6798 20.6284 29.7554 20.5194 29.8078 20.399C29.8602 20.2785 29.8883 20.1489 29.8906 20.0176C29.9019 19.3498 29.8325 18.6483 29.6621 17.9414C29.2499 16.1261 28.3128 14.591 27.0683 13.5644C26.1338 12.7936 24.9979 12.3079 23.8203 12.2695ZM7.99996 23C6.35499 23 4.99996 24.355 4.99996 26V41C4.99996 42.645 6.35499 44 7.99996 44H42C43.6449 44 45 42.645 45 41V26C45 24.355 43.6449 23 42 23H7.99996ZM7.99996 25H42C42.565 25 43 25.435 43 26V41C43 41.565 42.565 42 42 42H7.99996C7.43493 42 6.99996 41.565 6.99996 41V26C6.99996 25.435 7.43493 25 7.99996 25ZM25 26C17.0333 26 17.0333 41 25 41C26.732 41 28.2734 40.0762 29.3281 38.7051C30.3828 37.334 31 35.5028 31 33.5C31 31.4972 30.3828 29.666 29.3281 28.2949C28.2734 26.9238 26.732 26 25 26ZM25 28C26.0294 28 26.9872 28.5322 27.7422 29.5137C28.4971 30.4951 29 31.9129 29 33.5C29 35.0871 28.4971 36.5049 27.7422 37.4863C26.9872 38.4677 26.0294 39 25 39C19.6333 39 19.6333 28 25 28Z" fill="#89B6E1"/>
</svg>
