<svg width="48" height="48" viewBox="0 0 48 48" fill="none" xmlns="http://www.w3.org/2000/svg">
<path d="M15 10C13.6228 10 12.459 10.9541 12.1132 12.2285C9.80327 11.7529 7.64742 12.3975 5.73043 13.9844C4.10018 15.3351 1.39254 17.5957 1.39254 17.5957C1.28799 17.6786 1.20109 17.7816 1.13696 17.8986C1.07283 18.0157 1.03277 18.1443 1.01913 18.2771C1.00549 18.4098 1.01855 18.5439 1.05754 18.6715C1.09654 18.7991 1.16067 18.9177 1.24617 19.0201C1.33167 19.1226 1.43681 19.2069 1.55539 19.268C1.67397 19.3292 1.8036 19.3661 1.93664 19.3764C2.06967 19.3867 2.20343 19.3703 2.33003 19.3281C2.45663 19.286 2.57351 19.2189 2.67379 19.1309C2.67379 19.1309 5.38207 16.8687 7.00582 15.5234C8.61996 14.1873 9.9687 13.8057 11.7714 14.1973C11.8465 14.2132 11.9232 14.2204 12 14.2188V23C11.9981 23.1325 12.0226 23.2641 12.072 23.387C12.1214 23.51 12.1948 23.6219 12.2878 23.7163C12.3808 23.8107 12.4917 23.8856 12.614 23.9368C12.7362 23.9879 12.8674 24.0142 13 24.0142C13.1325 24.0142 13.2637 23.9879 13.3859 23.9368C13.5082 23.8856 13.6191 23.8107 13.7121 23.7163C13.8052 23.6219 13.8785 23.51 13.9279 23.387C13.9774 23.2641 14.0018 23.1325 14 23V13C14 12.435 14.4349 12 15 12H44C44.565 12 45 12.435 45 13V16H18C17.8674 15.9981 17.7359 16.0226 17.6129 16.072C17.4899 16.1214 17.378 16.1948 17.2837 16.2878C17.1893 16.3809 17.1144 16.4918 17.0632 16.614C17.0121 16.7363 16.9857 16.8675 16.9857 17C16.9857 17.1325 17.0121 17.2637 17.0632 17.386C17.1144 17.5082 17.1893 17.6191 17.2837 17.7122C17.378 17.8052 17.4899 17.8786 17.6129 17.928C17.7359 17.9774 17.8674 18.0019 18 18H45V30C45 30.565 44.565 31 44 31H29C28.8674 30.9981 28.7359 31.0226 28.6129 31.072C28.4899 31.1214 28.378 31.1948 28.2837 31.2878C28.1893 31.3809 28.1144 31.4918 28.0632 31.614C28.0121 31.7363 27.9857 31.8675 27.9857 32C27.9857 32.1325 28.0121 32.2637 28.0632 32.386C28.1144 32.5082 28.1893 32.6191 28.2837 32.7122C28.378 32.8052 28.4899 32.8786 28.6129 32.928C28.7359 32.9774 28.8674 33.0019 29 33H32.8945L32.1836 35.5391C31.9644 36.2683 31.6284 36.8294 31.248 37.1836C30.8667 37.5386 30.4611 37.7148 29.9062 37.7148C29.0509 37.7148 28.7446 37.4572 28.5507 37.2422C28.3569 37.0272 28.3359 36.8945 28.3359 36.8945C28.2891 36.6771 28.171 36.4815 28.0005 36.3386C27.8301 36.1957 27.6168 36.1138 27.3945 36.1057C27.1722 36.0976 26.9536 36.1639 26.7732 36.294C26.5928 36.4242 26.4609 36.6107 26.3984 36.8242C26.2336 37.3804 25.9825 37.9913 25.6621 38.3926C25.3416 38.7939 25.0471 39.002 24.4648 39.002C23.4075 39.002 22.5722 38.1638 22.5722 37.1074C22.5722 36.8871 22.4994 36.673 22.3651 36.4983C22.2309 36.3237 22.0427 36.1982 21.8299 36.1414C21.617 36.0846 21.3914 36.0997 21.188 36.1843C20.9846 36.269 20.8148 36.4184 20.705 36.6094C20.705 36.6094 20.4294 37.0811 19.9921 37.5508C19.5549 38.0205 19.0085 38.3574 18.6796 38.3574C18.0262 38.3574 17.4892 38.0083 17.1484 37.5137C17.2047 37.4718 17.2763 37.4589 17.332 37.416L28.4062 28.8848C28.5478 28.7744 28.6571 28.628 28.7226 28.4609C29.4669 27.7058 30 26.7202 30 25.5703C30 23.2548 28.1006 21.3574 25.7851 21.3574C24.824 21.3574 24.1805 21.7695 23.7148 22.0137C23.6222 22.0283 23.5321 22.056 23.4472 22.0957L23.4375 22.1016L11.6855 27.6445C11.5644 27.6991 11.4553 27.7772 11.3647 27.8743C11.274 27.9715 11.2037 28.0857 11.1577 28.2103C11.1117 28.335 11.091 28.4675 11.0968 28.6002C11.1026 28.733 11.1348 28.8632 11.1915 28.9833C11.2482 29.1035 11.3283 29.2111 11.427 29.3C11.5258 29.3889 11.6413 29.4571 11.7667 29.5009C11.8922 29.5446 12.0251 29.5629 12.1577 29.5547C12.2903 29.5465 12.4199 29.512 12.539 29.4531L23.664 24.2051L23.166 23.709C23.3132 23.8559 23.5025 23.9534 23.7076 23.9877C23.9128 24.022 24.1235 23.9915 24.3105 23.9004C24.8745 23.6263 25.437 23.3574 25.7851 23.3574C27.0196 23.3574 28 24.3358 28 25.5703C28 26.2714 27.6741 26.8784 27.1562 27.293C27.1042 27.3343 27.0564 27.3808 27.0136 27.4316L27.0117 27.4355L16.1113 35.832C14.2858 37.2376 12.0484 38 9.7441 38H1.99996C1.86745 37.9981 1.73589 38.0226 1.61292 38.072C1.48995 38.1214 1.37803 38.1948 1.28366 38.2878C1.18929 38.3809 1.11435 38.4918 1.0632 38.614C1.01206 38.7363 0.985718 38.8675 0.985718 39C0.985718 39.1325 1.01206 39.2637 1.0632 39.386C1.11435 39.5082 1.18929 39.6191 1.28366 39.7122C1.37803 39.8052 1.48995 39.8786 1.61292 39.928C1.73589 39.9774 1.86745 40.0019 1.99996 40H9.7441C11.74 40 13.6229 39.3704 15.3769 38.4648C16.0608 39.5878 17.2774 40.3574 18.6796 40.3574C19.8146 40.3574 20.6157 39.7196 21.2168 39.1172C21.9064 40.2208 23.0766 41.002 24.4648 41.002C25.6675 41.002 26.636 40.3778 27.2246 39.6406C27.4091 39.4095 27.4324 39.178 27.5664 38.9355C28.1276 39.3572 28.8651 39.7148 29.9062 39.7148C30.9483 39.7148 31.9026 39.3084 32.6113 38.6484C33.32 37.9885 33.8037 37.1037 34.1015 36.1094C34.1029 36.1035 34.1042 36.0977 34.1054 36.0918L34.8769 33.3379C34.9098 33.2284 34.9237 33.1141 34.9179 33H44C45.6449 33 47 31.645 47 30V17.168C47.0178 17.06 47.0178 16.9498 47 16.8418V13C47 11.355 45.6449 10 44 10H15Z" fill="#25255F"/>
</svg>
