<svg width="48" height="48" viewBox="0 0 48 48" fill="none" xmlns="http://www.w3.org/2000/svg">
<path d="M15.3828 5C8.18924 5 2.31836 10.8708 2.31836 18.0645C2.31836 24.0285 7.24967 30.3035 12.127 35.3281C17.0042 40.3527 21.9525 44.0646 22.3711 44.377L22.373 44.3789C22.8534 44.7364 23.4261 44.918 23.998 44.918C24.57 44.918 25.1432 44.7364 25.623 44.3809L25.625 44.3789C26.0472 44.0641 30.9958 40.3529 35.873 35.3281C40.7502 30.3034 45.6816 24.0284 45.6816 18.0645C45.6816 10.87 39.8107 5 32.6172 5C30.3836 5 28.4512 5.61291 26.8809 6.4375C26.7597 6.49566 26.6515 6.57763 26.5628 6.67852C26.474 6.77942 26.4065 6.89717 26.3643 7.02474C26.322 7.15231 26.3059 7.28709 26.3169 7.42102C26.3279 7.55495 26.3658 7.68529 26.4283 7.80425C26.4908 7.92321 26.5767 8.02836 26.6807 8.11341C26.7847 8.19846 26.9049 8.26167 27.0339 8.29926C27.1629 8.33686 27.2982 8.34807 27.4316 8.33222C27.565 8.31637 27.6939 8.2738 27.8105 8.20703C29.1463 7.50562 30.7468 7 32.6172 7C38.7257 7 43.6816 11.9549 43.6816 18.0645C43.6816 22.8605 39.1862 29.0433 34.4375 33.9355C29.6903 38.8263 24.8142 42.4882 24.4316 42.7734C24.3019 42.8691 24.1495 42.918 23.998 42.918C23.8468 42.918 23.6975 42.8708 23.5684 42.7754L23.5664 42.7734C23.1823 42.4868 18.3097 38.8261 13.5625 33.9355C8.81378 29.0434 4.31836 22.8604 4.31836 18.0645C4.31836 11.9561 9.27439 7 15.3828 7C19.0865 7 21.7828 9.00682 23.291 10.5176C24.0145 11.243 24.73 11.9737 25.4355 12.709C25.6192 12.9004 25.8713 13.011 26.1365 13.0165C26.4017 13.022 26.6582 12.9219 26.8496 12.7383C27.041 12.5546 27.1516 12.3025 27.1571 12.0373C27.1626 11.7721 27.0625 11.5156 26.8789 11.3242C26.1644 10.5795 25.4415 9.84 24.709 9.10547H24.707C22.9811 7.37633 19.8064 5 15.3828 5Z" fill="#89B6E1"/>
</svg>
