<svg width="48" height="48" viewBox="0 0 48 48" fill="none" xmlns="http://www.w3.org/2000/svg">
<path d="M36 4.00586C35.3069 4.00586 34.6147 4.26609 34.0918 4.78906L28.789 10.0918C28.5401 10.3407 28.5464 10.6923 28.416 11H18.7968C18.2902 7.63724 15.4997 5 12 5C8.14582 5 4.99997 8.14585 4.99997 12C4.99997 15.4998 7.63721 18.2903 11 18.7969V29.2871C10.6968 29.4443 10.4266 29.6752 10.2265 29.9863L3.94919 39.7539C3.07793 41.1115 4.10919 43 5.72263 43H18.2773C19.8908 43 20.9236 41.111 20.0508 39.7539L13.7715 29.9863C13.5719 29.676 13.3021 29.4463 13 29.2891V18.7969C16.0222 18.3416 18.3415 16.0222 18.7968 13H28.416C28.5464 13.3077 28.5401 13.6593 28.789 13.9082L34.0918 19.2109C34.3407 19.4599 34.6923 19.4535 35 19.584V29H32C30.355 29 29 30.355 29 32V40C29 41.645 30.355 43 32 43H40C41.6449 43 43 41.645 43 40V32C43 30.355 41.6449 29 40 29H37V19.584C37.3076 19.4535 37.6592 19.4599 37.9082 19.2109L43.2109 13.9082C44.2569 12.8623 44.2569 11.1377 43.2109 10.0918L37.9082 4.78906C37.3852 4.26609 36.693 4.00586 36 4.00586ZM36 5.99414C36.1765 5.99414 36.3531 6.06405 36.4941 6.20508L41.7949 11.5059C42.0769 11.7879 42.0769 12.2121 41.7949 12.4941L36.4941 17.7949C36.2121 18.077 35.7879 18.077 35.5058 17.7949L30.2051 12.4941C29.923 12.2121 29.923 11.7879 30.2051 11.5059L35.5058 6.20508C35.6469 6.06405 35.8234 5.99414 36 5.99414ZM12 7C14.7538 7 16.9573 9.19924 16.9883 11.9453C16.9862 11.9824 16.9862 12.0196 16.9883 12.0566C16.9564 14.7824 14.7806 16.9575 12.0547 16.9883C12.0176 16.9862 11.9804 16.9862 11.9433 16.9883C9.19819 16.9562 6.99997 14.7531 6.99997 12C6.99997 9.22673 9.2267 7 12 7ZM12 30.9961C12.0293 30.9958 12.0586 31.0198 12.0898 31.0684L18.3672 40.834C18.4423 40.9509 18.4159 41 18.2773 41H5.72263C5.58407 41 5.55609 40.9504 5.63083 40.834L11.9101 31.0684C11.9413 31.0208 11.9706 30.9964 12 30.9961ZM32 31H35.832C35.94 31.0178 36.0502 31.0178 36.1582 31H40C40.565 31 41 31.435 41 32V40C41 40.565 40.565 41 40 41H32C31.4349 41 31 40.565 31 40V32C31 31.435 31.4349 31 32 31Z" fill="#89B6E1"/>
</svg>
