<svg width="48" height="48" viewBox="0 0 48 48" fill="none" xmlns="http://www.w3.org/2000/svg">
<path d="M23.0664 5C17.1318 5 11.8223 8.78058 9.85938 14.4004H9.85742C5.15819 14.9427 1.59961 18.9375 1.59961 23.668C1.59961 28.8053 5.79538 33 10.9336 33H19C19.1325 33.0019 19.2641 32.9774 19.387 32.928C19.51 32.8786 19.6219 32.8052 19.7163 32.7122C19.8107 32.6191 19.8856 32.5082 19.9368 32.386C19.9879 32.2637 20.0142 32.1325 20.0142 32C20.0142 31.8675 19.9879 31.7363 19.9368 31.614C19.8856 31.4918 19.8107 31.3809 19.7163 31.2878C19.6219 31.1948 19.51 31.1214 19.387 31.072C19.2641 31.0226 19.1325 30.9981 19 31H10.9336C6.8798 31 3.59961 27.7206 3.59961 23.668C3.59961 19.9371 6.38013 16.8153 10.0859 16.3867L10.709 16.3164C10.8958 16.2949 11.0727 16.2212 11.2196 16.1038C11.3664 15.9863 11.4771 15.8299 11.5391 15.6523L11.7461 15.0605C13.4311 10.2364 17.981 7 23.0664 7C28.7856 7 33.7335 11.0707 34.8359 16.6816L35.0195 17.6152C35.0694 17.8663 35.2137 18.0886 35.4226 18.2365C35.6315 18.3844 35.8892 18.4465 36.1426 18.4102L37.082 18.2754C37.4562 18.2219 37.7419 18.1992 38 18.1992C41.5388 18.1992 44.4004 21.0619 44.4004 24.5996C44.4004 28.1384 41.5388 30.998 38 30.998H24C23.7348 30.9981 23.4805 31.1034 23.2929 31.291C23.1054 31.4785 23 31.7328 23 31.998V40H7C6.86749 39.9981 6.73593 40.0226 6.61296 40.072C6.48999 40.1214 6.37807 40.1948 6.2837 40.2878C6.18933 40.3809 6.11439 40.4918 6.06324 40.614C6.0121 40.7363 5.98576 40.8675 5.98576 41C5.98576 41.1325 6.0121 41.2637 6.06324 41.386C6.11439 41.5082 6.18933 41.6191 6.2837 41.7122C6.37807 41.8052 6.48999 41.8786 6.61296 41.928C6.73593 41.9774 6.86749 42.0019 7 42H23.8457C23.9473 42.0158 24.0507 42.0158 24.1523 42H41C41.1325 42.0019 41.2641 41.9774 41.387 41.928C41.51 41.8786 41.6219 41.8052 41.7163 41.7122C41.8107 41.6191 41.8856 41.5082 41.9368 41.386C41.9879 41.2637 42.0142 41.1325 42.0142 41C42.0142 40.8675 41.9879 40.7363 41.9368 40.614C41.8856 40.4918 41.8107 40.3809 41.7163 40.2878C41.6219 40.1948 41.51 40.1214 41.387 40.072C41.2641 40.0226 41.1325 39.9981 41 40H25V32.998H38C42.6232 32.998 46.4004 29.2228 46.4004 24.5996C46.4004 19.9773 42.6232 16.1992 38 16.1992C37.6241 16.1992 37.2367 16.2343 36.7988 16.2969V16.2949C35.5133 9.75195 29.7352 5 23.0664 5Z" fill="#89B6E1"/>
</svg>
