<svg width="48" height="48" viewBox="0 0 48 48" fill="none" xmlns="http://www.w3.org/2000/svg">
<path d="M10 5C7.25184 5 5 7.25184 5 10V38C5 40.7482 7.25184 43 10 43H38C40.7482 43 43 40.7482 43 38V10C43 7.25184 40.7482 5 38 5H10ZM10 7H38C39.6638 7 41 8.33616 41 10V38C41 39.6638 39.6638 41 38 41H10C8.33616 41 7 39.6638 7 38V10C7 8.33616 8.33616 7 10 7ZM23.9961 12.0371C23.8147 12.0385 23.637 12.0892 23.4822 12.1838C23.3274 12.2784 23.2012 12.4134 23.1172 12.5742L19.877 18.8008L12.8262 20.041C12.6448 20.0728 12.4758 20.1541 12.3376 20.2758C12.1995 20.3975 12.0977 20.555 12.0434 20.731C11.989 20.9069 11.9843 21.0944 12.0297 21.2728C12.0752 21.4512 12.1689 21.6137 12.3008 21.7422L17.3242 26.6484L16.2148 33.8066C16.1866 33.9898 16.2097 34.1772 16.2818 34.3479C16.3538 34.5187 16.4719 34.6661 16.6228 34.7736C16.7737 34.8812 16.9515 34.9447 17.1364 34.9571C17.3213 34.9695 17.506 34.9302 17.6699 34.8438L24.002 31.502L30.332 34.8477C30.496 34.9347 30.6809 34.9743 30.8662 34.9622C31.0514 34.9501 31.2296 34.8867 31.3808 34.779C31.532 34.6714 31.6503 34.5238 31.7224 34.3527C31.7945 34.1817 31.8176 33.994 31.7891 33.8105L30.6777 26.6523L35.6992 21.7441C35.8305 21.6155 35.9238 21.4533 35.9689 21.2751C36.014 21.097 36.0091 20.9098 35.9549 20.7343C35.9006 20.5587 35.799 20.4015 35.6612 20.2799C35.5234 20.1583 35.3548 20.077 35.1738 20.0449L28.127 18.8008L24.8906 12.5742C24.8054 12.411 24.6768 12.2745 24.519 12.1798C24.3611 12.085 24.1802 12.0356 23.9961 12.0371ZM24.0039 15.2031L26.5801 20.1621C26.651 20.2984 26.7524 20.4165 26.8764 20.5073C27.0003 20.5981 27.1436 20.6591 27.2949 20.6855L32.9082 21.6758L28.9102 25.5801C28.7962 25.6915 28.7106 25.8284 28.6603 25.9796C28.61 26.1308 28.5966 26.2918 28.6211 26.4492L29.5059 32.1484L24.4688 29.4863C24.3249 29.4104 24.1646 29.3707 24.002 29.3707C23.8393 29.3707 23.679 29.4104 23.5352 29.4863L18.4961 32.1465L19.3789 26.4453C19.4031 26.2882 19.3895 26.1276 19.3392 25.9768C19.289 25.8259 19.2035 25.6893 19.0898 25.5781L15.0938 21.6738L20.709 20.6855C20.8603 20.6591 21.0036 20.5981 21.1275 20.5073C21.2515 20.4165 21.3529 20.2984 21.4238 20.1621L24.0039 15.2031Z" fill="#25255F"/>
</svg>
