<svg width="48" height="48" viewBox="0 0 48 48" fill="none" xmlns="http://www.w3.org/2000/svg">
<path d="M23.9998 3C14.6212 3 6.68181 9.16935 3.99195 17.6699L2.70093 14.5762C2.62587 14.3895 2.49624 14.2298 2.32899 14.1179C2.16174 14.0061 1.96463 13.9473 1.76343 13.9492C1.59831 13.9507 1.43612 13.9931 1.29136 14.0726C1.1466 14.152 1.02376 14.2661 0.93382 14.4046C0.843878 14.5431 0.789629 14.7017 0.775916 14.8662C0.762202 15.0308 0.789452 15.1962 0.855231 15.3477L3.32203 21.2559C3.37968 21.3944 3.46779 21.5183 3.57981 21.6182C3.69184 21.7181 3.82492 21.7915 3.96919 21.8329C4.11345 21.8744 4.26519 21.8828 4.41316 21.8577C4.56114 21.8325 4.70155 21.7743 4.82398 21.6875L10.0466 17.9844C10.1539 17.9085 10.2451 17.8122 10.3151 17.701C10.3852 17.5898 10.4326 17.4659 10.4548 17.3364C10.4769 17.2069 10.4733 17.0743 10.4442 16.9462C10.4151 16.8181 10.361 16.6969 10.2851 16.5897C10.2092 16.4825 10.1129 16.3913 10.0017 16.3213C9.89048 16.2513 9.76659 16.2039 9.63708 16.1817C9.50756 16.1596 9.37496 16.1632 9.24684 16.1924C9.11872 16.2215 8.9976 16.2756 8.89039 16.3516L5.81812 18.5293C8.16798 10.7076 15.4016 5 23.9998 5C34.5054 5 42.9998 13.4944 42.9998 24C42.9998 34.5056 34.5054 43 23.9998 43C19.4842 43 15.3764 41.3911 12.117 38.7637L12.6482 37.166L12.6502 37.1641C14.2652 32.2728 18.8451 28.9902 23.9998 28.9902C26.5771 28.9902 28.9999 29.8099 30.9939 31.25L30.9978 31.252C32.4376 32.2847 33.6448 33.6362 34.5095 35.2266C34.5707 35.3448 34.6549 35.4497 34.7572 35.5349C34.8594 35.6202 34.9776 35.6842 35.105 35.7232C35.2323 35.7622 35.3661 35.7754 35.4986 35.7619C35.631 35.7485 35.7595 35.7088 35.8764 35.6451C35.9933 35.5813 36.0963 35.4949 36.1794 35.3909C36.2624 35.2868 36.3239 35.1672 36.3601 35.0391C36.3963 34.911 36.4066 34.7769 36.3904 34.6448C36.3741 34.5126 36.3316 34.385 36.2654 34.2695C35.2548 32.4111 33.8445 30.8338 32.1658 29.6289L32.1619 29.627C29.8365 27.9487 27.0009 26.9902 23.9998 26.9902C17.9944 26.9902 12.6347 30.8284 10.7498 36.5371L9.98804 38.8262C9.92578 39.0142 9.92076 39.2165 9.97361 39.4074C10.0265 39.5983 10.1348 39.7692 10.2849 39.8984C13.9638 43.0746 18.7622 45 23.9998 45C35.5862 45 44.9998 35.5864 44.9998 24C44.9998 12.4136 35.5862 3 23.9998 3ZM23.9998 10C20.1006 10 16.9998 13.4113 16.9998 17.5C16.9998 21.5887 20.1006 25 23.9998 25C27.8989 25 30.9998 21.5887 30.9998 17.5C30.9998 13.4113 27.8989 10 23.9998 10ZM23.9998 12C26.728 12 28.9998 14.409 28.9998 17.5C28.9998 20.591 26.728 23 23.9998 23C21.2715 23 18.9998 20.591 18.9998 17.5C18.9998 14.409 21.2715 12 23.9998 12Z" fill="#89B6E1"/>
</svg>
