<svg width="48" height="48" viewBox="0 0 48 48" fill="none" xmlns="http://www.w3.org/2000/svg">
<path d="M7 4C5.35503 4 4 5.35503 4 7V15C4 16.645 5.35503 18 7 18H15C16.645 18 18 16.645 18 15V12H27C27.1325 12.0019 27.2641 11.9774 27.387 11.928C27.51 11.8786 27.6219 11.8052 27.7163 11.7122C27.8107 11.6191 27.8856 11.5082 27.9368 11.386C27.9879 11.2637 28.0142 11.1325 28.0142 11C28.0142 10.8675 27.9879 10.7363 27.9368 10.614C27.8856 10.4918 27.8107 10.3809 27.7163 10.2878C27.6219 10.1948 27.51 10.1214 27.387 10.072C27.2641 10.0226 27.1325 9.99813 27 10H18V7C18 5.35503 16.645 4 15 4H7ZM33 4C31.355 4 30 5.35503 30 7V15C30 16.645 31.355 18 33 18H36V27C35.9981 27.1325 36.0226 27.2641 36.072 27.387C36.1214 27.51 36.1948 27.6219 36.2878 27.7163C36.3809 27.8107 36.4918 27.8856 36.614 27.9368C36.7363 27.9879 36.8675 28.0142 37 28.0142C37.1325 28.0142 37.2637 27.9879 37.386 27.9368C37.5082 27.8856 37.6191 27.8107 37.7122 27.7163C37.8052 27.6219 37.8786 27.51 37.928 27.387C37.9774 27.2641 38.0019 27.1325 38 27V18H41C42.645 18 44 16.645 44 15V7C44 5.35503 42.645 4 41 4H33ZM7 6H15C15.565 6 16 6.43497 16 7V10.832C15.9822 10.94 15.9822 11.0502 16 11.1582V15C16 15.565 15.565 16 15 16H7C6.43497 16 6 15.565 6 15V7C6 6.43497 6.43497 6 7 6ZM33 6H41C41.565 6 42 6.43497 42 7V15C42 15.565 41.565 16 41 16H37.168C37.06 15.9822 36.9498 15.9822 36.8418 16H33C32.435 16 32 15.565 32 15V7C32 6.43497 32.435 6 33 6ZM10.9844 19.9863C10.7195 19.9905 10.4671 20.0995 10.2825 20.2896C10.098 20.4796 9.99637 20.7351 10 21V30H7C5.35503 30 4 31.355 4 33V41C4 42.645 5.35503 44 7 44H15C16.645 44 18 42.645 18 41V33C18 31.355 16.645 30 15 30H12V21C12.0018 20.8662 11.9768 20.7334 11.9264 20.6095C11.876 20.4855 11.8012 20.373 11.7065 20.2784C11.6118 20.1839 11.4991 20.1094 11.375 20.0592C11.251 20.009 11.1182 19.9842 10.9844 19.9863ZM33 30C31.355 30 30 31.355 30 33V36H21C20.8675 35.9981 20.7359 36.0226 20.613 36.072C20.49 36.1214 20.3781 36.1948 20.2837 36.2878C20.1893 36.3809 20.1144 36.4918 20.0632 36.614C20.0121 36.7363 19.9858 36.8675 19.9858 37C19.9858 37.1325 20.0121 37.2637 20.0632 37.386C20.1144 37.5082 20.1893 37.6191 20.2837 37.7122C20.3781 37.8052 20.49 37.8786 20.613 37.928C20.7359 37.9774 20.8675 38.0019 21 38H30V41C30 42.645 31.355 44 33 44H41C42.645 44 44 42.645 44 41V33C44 31.355 42.645 30 41 30H33ZM7 32H10.832C10.94 32.0178 11.0502 32.0178 11.1582 32H15C15.565 32 16 32.435 16 33V41C16 41.565 15.565 42 15 42H7C6.43497 42 6 41.565 6 41V33C6 32.435 6.43497 32 7 32ZM33 32H41C41.565 32 42 32.435 42 33V41C42 41.565 41.565 42 41 42H33C32.435 42 32 41.565 32 41V37.168C32.0178 37.06 32.0178 36.9498 32 36.8418V33C32 32.435 32.435 32 33 32Z" fill="#25255F"/>
</svg>
