<svg width="48" height="48" viewBox="0 0 48 48" fill="none" xmlns="http://www.w3.org/2000/svg">
<path d="M10 4C7.25048 4 5 6.25048 5 9V23.9746C5 31.7413 9.75684 37.2814 14.3945 40.8027C19.0322 44.324 23.6699 45.9434 23.6699 45.9434C23.8836 46.0181 24.1164 46.0181 24.3301 45.9434C24.3301 45.9434 28.9678 44.324 33.6055 40.8027C38.2432 37.2814 43 31.7413 43 23.9746V9C43 6.25048 40.7495 4 38 4H24H10ZM10 6H24H38C39.6685 6 41 7.33152 41 9V23.9746C41 30.9259 36.7568 35.8968 32.3945 39.209C28.2961 42.3208 24.481 43.7388 24 43.9141C23.519 43.7388 19.7039 42.3208 15.6055 39.209C11.2432 35.8968 7 30.9259 7 23.9746V9C7 7.33152 8.33152 6 10 6ZM31.8047 14.9883C31.6421 14.9887 31.482 15.0288 31.3384 15.105C31.1948 15.1812 31.0719 15.2913 30.9805 15.4258L22.4707 27.582L16.5977 23.1992C16.4931 23.1141 16.3723 23.051 16.2427 23.0137C16.1131 22.9765 15.9773 22.9658 15.8434 22.9824C15.7096 22.999 15.5805 23.0425 15.4639 23.1103C15.3473 23.178 15.2456 23.2687 15.1649 23.3767C15.0843 23.4848 15.0263 23.6081 14.9945 23.7392C14.9627 23.8702 14.9577 24.0064 14.9799 24.1394C15.0021 24.2724 15.051 24.3996 15.1236 24.5133C15.1961 24.6269 15.291 24.7247 15.4023 24.8008L22.1016 29.8008C22.2088 29.881 22.3311 29.9389 22.4611 29.971C22.5911 30.0031 22.7262 30.0087 22.8585 29.9876C22.9907 29.9665 23.1174 29.919 23.231 29.848C23.3445 29.777 23.4426 29.6839 23.5195 29.5742L32.6191 16.5742C32.7273 16.4246 32.7919 16.2481 32.8058 16.064C32.8198 15.88 32.7826 15.6957 32.6982 15.5315C32.6139 15.3673 32.4858 15.2297 32.3281 15.1338C32.1704 15.0379 31.9892 14.9876 31.8047 14.9883Z" fill="#25255F"/>
</svg>
