<svg width="48" height="48" viewBox="0 0 48 48" fill="none" xmlns="http://www.w3.org/2000/svg">
<path d="M9 7C6.25048 7 4 9.25048 4 12V37C4 39.75 6.25003 42 9 42H39C41.75 42 44 39.75 44 37V16C44 15.7348 43.8946 15.4805 43.7071 15.2929C43.5195 15.1054 43.2652 15 43 15H9C8.86749 14.9981 8.73593 15.0226 8.61296 15.072C8.48999 15.1214 8.37807 15.1948 8.2837 15.2878C8.18933 15.3809 8.11439 15.4918 8.06324 15.614C8.0121 15.7363 7.98576 15.8675 7.98576 16C7.98576 16.1325 8.0121 16.2637 8.06324 16.386C8.11439 16.5082 8.18933 16.6191 8.2837 16.7122C8.37807 16.8052 8.48999 16.8786 8.61296 16.928C8.73593 16.9774 8.86749 17.0019 9 17H42V37C42 38.67 40.67 40 39 40H9C7.32997 40 6 38.67 6 37V12C6 10.3315 7.33152 9 9 9H39C40.6685 9 42 10.3315 42 12C41.9981 12.1325 42.0226 12.2641 42.072 12.387C42.1214 12.51 42.1948 12.6219 42.2878 12.7163C42.3809 12.8107 42.4918 12.8856 42.614 12.9368C42.7363 12.9879 42.8675 13.0142 43 13.0142C43.1325 13.0142 43.2637 12.9879 43.386 12.9368C43.5082 12.8856 43.6191 12.8107 43.7122 12.7163C43.8052 12.6219 43.8786 12.51 43.928 12.387C43.9774 12.2641 44.0019 12.1325 44 12C44 9.25048 41.7495 7 39 7H9ZM12 21C10.9069 21 10 21.9069 10 23V34C10 35.0931 10.9069 36 12 36H20C21.0931 36 22 35.0931 22 34V23C22 21.9069 21.0931 21 20 21H12ZM27 22C26.8675 21.9981 26.7359 22.0226 26.613 22.072C26.49 22.1214 26.3781 22.1948 26.2837 22.2878C26.1893 22.3809 26.1144 22.4918 26.0632 22.614C26.0121 22.7363 25.9858 22.8675 25.9858 23C25.9858 23.1325 26.0121 23.2637 26.0632 23.386C26.1144 23.5082 26.1893 23.6191 26.2837 23.7122C26.3781 23.8052 26.49 23.8786 26.613 23.928C26.7359 23.9774 26.8675 24.0019 27 24H37C37.1325 24.0019 37.2641 23.9774 37.387 23.928C37.51 23.8786 37.6219 23.8052 37.7163 23.7122C37.8107 23.6191 37.8856 23.5082 37.9368 23.386C37.9879 23.2637 38.0142 23.1325 38.0142 23C38.0142 22.8675 37.9879 22.7363 37.9368 22.614C37.8856 22.4918 37.8107 22.3809 37.7163 22.2878C37.6219 22.1948 37.51 22.1214 37.387 22.072C37.2641 22.0226 37.1325 21.9981 37 22H27ZM12 23H20V34H12V23ZM27 27C26.8675 26.9981 26.7359 27.0226 26.613 27.072C26.49 27.1214 26.3781 27.1948 26.2837 27.2878C26.1893 27.3809 26.1144 27.4918 26.0632 27.614C26.0121 27.7363 25.9858 27.8675 25.9858 28C25.9858 28.1325 26.0121 28.2637 26.0632 28.386C26.1144 28.5082 26.1893 28.6191 26.2837 28.7122C26.3781 28.8052 26.49 28.8786 26.613 28.928C26.7359 28.9774 26.8675 29.0019 27 29H32C32.1325 29.0019 32.2641 28.9774 32.387 28.928C32.51 28.8786 32.6219 28.8052 32.7163 28.7122C32.8107 28.6191 32.8856 28.5082 32.9368 28.386C32.9879 28.2637 33.0142 28.1325 33.0142 28C33.0142 27.8675 32.9879 27.7363 32.9368 27.614C32.8856 27.4918 32.8107 27.3809 32.7163 27.2878C32.6219 27.1948 32.51 27.1214 32.387 27.072C32.2641 27.0226 32.1325 26.9981 32 27H27ZM27 32C26.8675 31.9981 26.7359 32.0226 26.613 32.072C26.49 32.1214 26.3781 32.1948 26.2837 32.2878C26.1893 32.3809 26.1144 32.4918 26.0632 32.614C26.0121 32.7363 25.9858 32.8675 25.9858 33C25.9858 33.1325 26.0121 33.2637 26.0632 33.386C26.1144 33.5082 26.1893 33.6191 26.2837 33.7122C26.3781 33.8052 26.49 33.8786 26.613 33.928C26.7359 33.9774 26.8675 34.0019 27 34H35C35.1325 34.0019 35.2641 33.9774 35.387 33.928C35.51 33.8786 35.6219 33.8052 35.7163 33.7122C35.8107 33.6191 35.8856 33.5082 35.9368 33.386C35.9879 33.2637 36.0142 33.1325 36.0142 33C36.0142 32.8675 35.9879 32.7363 35.9368 32.614C35.8856 32.4918 35.8107 32.3809 35.7163 32.2878C35.6219 32.1948 35.51 32.1214 35.387 32.072C35.2641 32.0226 35.1325 31.9981 35 32H27Z" fill="#25255F"/>
</svg>
