<svg width="48" height="48" viewBox="0 0 48 48" fill="none" xmlns="http://www.w3.org/2000/svg">
<path d="M18.7676 1.99492C18.3378 1.97518 17.8998 1.99931 17.459 2.06914C13.9328 2.62777 11.5077 5.96558 12.0664 9.49102C12.2641 10.739 12.8212 11.8408 13.5996 12.7273C11.8846 13.4098 10.3125 14.275 8.9336 15.2977C7.16625 16.6083 5.71427 18.1885 4.68555 19.9539C3.12944 19.7363 2.48854 19.0383 2.21876 18.2508C1.92667 17.3982 2.17283 16.3161 2.75001 15.6629C2.8796 15.52 2.9651 15.3426 2.99618 15.1522C3.02727 14.9618 3.00262 14.7665 2.9252 14.5898C2.84779 14.4131 2.72091 14.2625 2.55987 14.1563C2.39883 14.05 2.2105 13.9926 2.01758 13.991C1.87205 13.9896 1.72797 14.02 1.59539 14.0801C1.46282 14.1401 1.34495 14.2284 1.25001 14.3387C0.179185 15.5505 -0.220981 17.3021 0.326178 18.8992C0.784206 20.2362 1.9975 21.361 3.80665 21.8074C3.29517 23.1365 3.00001 24.5396 3.00001 26.0008C3.00001 29.6926 4.79098 32.8877 7.6543 35.2508L7.03516 39.577C6.77974 41.3664 8.19834 43.0008 10.0059 43.0008H11.9297C12.9315 43.0008 13.8702 42.4989 14.4258 41.6648C14.5011 41.5556 14.5539 41.4325 14.5812 41.3027C14.6085 41.1729 14.6097 41.0389 14.5847 40.9087C14.5597 40.7784 14.509 40.6544 14.4356 40.5439C14.3622 40.4333 14.2676 40.3385 14.1572 40.265C14.0468 40.1914 13.9229 40.1405 13.7927 40.1152C13.6625 40.09 13.5285 40.0909 13.3986 40.118C13.2688 40.145 13.1456 40.1976 13.0362 40.2727C12.9269 40.3478 12.8336 40.444 12.7617 40.5555C12.5753 40.8354 12.2659 41.0008 11.9297 41.0008H10.0059C9.37939 41.0008 8.92706 40.4787 9.01563 39.8582L9.49024 36.5438C13.0571 38.7604 17.7432 40.0008 22.8789 40.0008C27.7949 40.0008 33.1271 38.8745 37.5586 36.8738L37.9844 39.8602C38.0716 40.4798 37.6199 41.0008 36.9941 41.0008H35.0703C34.7342 41.0008 34.4247 40.8354 34.2383 40.5555C34.1664 40.444 34.0731 40.3478 33.9638 40.2727C33.8544 40.1976 33.7312 40.145 33.6014 40.118C33.4715 40.0909 33.3375 40.09 33.2073 40.1152C33.0771 40.1405 32.9532 40.1914 32.8428 40.265C32.7324 40.3385 32.6378 40.4333 32.5644 40.5439C32.491 40.6544 32.4403 40.7784 32.4154 40.9087C32.3904 41.0389 32.3915 41.1729 32.4188 41.3027C32.4461 41.4325 32.4989 41.5556 32.5742 41.6648C33.1298 42.4989 34.0685 43.0008 35.0703 43.0008H36.9941C38.8017 43.0008 40.2203 41.3664 39.9649 39.577L39.4434 35.9344C43.767 33.5737 47 30.2047 47 26.0008V23.0008C47 22.7356 46.8946 22.4812 46.7071 22.2937C46.5196 22.1062 46.2652 22.0008 46 22.0008H42.9414C42.2921 20.3796 41.2849 18.8847 40 17.5535V9.00078C40.0001 8.86696 39.9732 8.73449 39.9212 8.61122C39.8691 8.48796 39.7928 8.37639 39.6968 8.28314C39.6008 8.18989 39.4871 8.11686 39.3624 8.06835C39.2377 8.01985 39.1045 7.99687 38.9707 8.00078C38.8778 8.00363 38.7858 8.0194 38.6973 8.04766C38.6973 8.04766 36.5306 8.73398 34.377 10.5848C34.1757 10.7578 34.0514 11.0036 34.0315 11.2683C34.0115 11.5329 34.0975 11.7947 34.2705 11.9959C34.4435 12.1971 34.6894 12.3214 34.954 12.3414C35.2187 12.3613 35.4804 12.2754 35.6816 12.1023C36.5359 11.3682 37.3439 10.8969 38 10.5555V15.7898C34.0956 12.8079 28.6247 11.0008 22.8789 11.0008C20.3096 11.0008 17.8576 11.3763 15.5977 12.0457C15.5406 11.9108 15.4546 11.7902 15.3457 11.6922C14.6751 11.0492 14.2028 10.1858 14.043 9.17656C13.6537 6.72 15.3156 4.43312 17.7734 4.04375C20.2297 3.65462 22.5128 5.31477 22.9043 7.77031C22.9212 7.87936 22.9352 7.98856 22.9453 8.09648C22.9699 8.36066 23.0985 8.60425 23.3027 8.77366C23.4038 8.85754 23.5204 8.92068 23.6459 8.95948C23.7714 8.99829 23.9034 9.01199 24.0342 8.9998C24.165 8.98762 24.2921 8.94979 24.4083 8.88848C24.5245 8.82716 24.6275 8.74357 24.7114 8.64246C24.7952 8.54134 24.8584 8.4247 24.8972 8.29919C24.936 8.17367 24.9497 8.04175 24.9375 7.91094C24.9236 7.76286 24.904 7.61262 24.8809 7.46367V7.46172C24.3921 4.37647 21.7762 2.13309 18.7676 1.99492ZM22.8789 13.0008C31.5673 13.0008 39.4969 17.6414 41.3574 23.3133C41.4233 23.5135 41.5507 23.6878 41.7216 23.8112C41.8924 23.9347 42.0978 24.001 42.3086 24.0008H45V26.0008C45 29.3194 42.2001 32.3127 37.8945 34.5086C33.589 36.7045 27.9235 38.0008 22.8789 38.0008C17.8343 38.0008 13.2942 36.7149 10.084 34.5691C6.87381 32.4234 5.00001 29.5024 5.00001 26.0008C5.00001 22.4992 6.90424 19.2936 10.125 16.9051C13.3458 14.5165 17.8663 13.0008 22.8789 13.0008ZM34.5 21.0008C34.1022 21.0008 33.7207 21.1588 33.4393 21.4401C33.158 21.7214 33 22.103 33 22.5008C33 22.8986 33.158 23.2801 33.4393 23.5614C33.7207 23.8427 34.1022 24.0008 34.5 24.0008C34.8978 24.0008 35.2794 23.8427 35.5607 23.5614C35.842 23.2801 36 22.8986 36 22.5008C36 22.103 35.842 21.7214 35.5607 21.4401C35.2794 21.1588 34.8978 21.0008 34.5 21.0008Z" fill="#25255F"/>
</svg>
