<svg width="48" height="48" viewBox="0 0 48 48" fill="none" xmlns="http://www.w3.org/2000/svg">
<path d="M12.9883 6.98828C12.8429 6.99146 12.7 7.02631 12.5694 7.0904C12.4389 7.15449 12.3239 7.24628 12.2324 7.35937L7.83987 12.6309L4.59963 10.1992C4.49447 10.1205 4.37483 10.0632 4.24755 10.0307C4.12026 9.99821 3.98781 9.99109 3.85777 10.0098C3.72774 10.0285 3.60265 10.0726 3.48966 10.1396C3.37667 10.2066 3.27799 10.2952 3.19924 10.4004C3.1205 10.5055 3.06324 10.6252 3.03074 10.7525C2.99823 10.8798 2.99112 11.0122 3.0098 11.1422C3.02848 11.2723 3.07259 11.3974 3.13961 11.5104C3.20663 11.6234 3.29526 11.722 3.40042 11.8008L7.40042 14.8008C7.60547 14.9542 7.86158 15.0231 8.11595 14.9933C8.37032 14.9635 8.60356 14.8373 8.7676 14.6406L13.7676 8.64062C13.8937 8.49416 13.9746 8.31429 14.0007 8.12279C14.0267 7.93128 13.9966 7.73634 13.9142 7.56154C13.8318 7.38674 13.7004 7.23957 13.5361 7.13784C13.3718 7.0361 13.1815 6.98415 12.9883 6.98828ZM18.9844 8.98633C18.7195 8.99047 18.4671 9.09953 18.2826 9.28957C18.098 9.47962 17.9964 9.73512 18 10V12C18 13.0931 18.907 14 20 14H43C44.0931 14 45 13.0931 45 12V10C45.0019 9.86749 44.9774 9.73592 44.928 9.61296C44.8786 9.48999 44.8052 9.37807 44.7122 9.2837C44.6191 9.18933 44.5083 9.11439 44.386 9.06324C44.2638 9.0121 44.1325 8.98576 44 8.98576C43.8675 8.98576 43.7363 9.0121 43.614 9.06324C43.4918 9.11439 43.3809 9.18933 43.2879 9.2837C43.1948 9.37807 43.1215 9.48999 43.072 9.61296C43.0226 9.73592 42.9981 9.86749 43 10V12H20V10C20.0019 9.86621 19.9768 9.73341 19.9264 9.60947C19.876 9.48553 19.8012 9.37297 19.7065 9.27845C19.6118 9.18393 19.4991 9.10937 19.3751 9.05919C19.251 9.00902 19.1182 8.98424 18.9844 8.98633ZM12.9883 19.9883C12.8429 19.9915 12.7 20.0263 12.5694 20.0904C12.4389 20.1545 12.3239 20.2463 12.2324 20.3594L7.83987 25.6309L4.59963 23.1992C4.49447 23.1205 4.37483 23.0632 4.24755 23.0307C4.12026 22.9982 3.98781 22.9911 3.85777 23.0098C3.72774 23.0285 3.60265 23.0726 3.48966 23.1396C3.37667 23.2066 3.27799 23.2952 3.19924 23.4004C3.1205 23.5056 3.06324 23.6252 3.03074 23.7525C2.99823 23.8798 2.99112 24.0122 3.0098 24.1423C3.02848 24.2723 3.07259 24.3974 3.13961 24.5104C3.20663 24.6234 3.29526 24.722 3.40042 24.8008L7.40042 27.8008C7.60547 27.9542 7.86158 28.0231 8.11595 27.9933C8.37032 27.9635 8.60356 27.8373 8.7676 27.6406L13.7676 21.6406C13.8937 21.4942 13.9746 21.3143 14.0007 21.1228C14.0267 20.9313 13.9966 20.7363 13.9142 20.5615C13.8318 20.3867 13.7004 20.2396 13.5361 20.1378C13.3718 20.0361 13.1815 19.9842 12.9883 19.9883ZM18.9844 21.9863C18.7195 21.9905 18.4671 22.0995 18.2826 22.2896C18.098 22.4796 17.9964 22.7351 18 23V25C18 26.0931 18.907 27 20 27H43C44.0931 27 45 26.0931 45 25V23C45.0019 22.8675 44.9774 22.7359 44.928 22.613C44.8786 22.49 44.8052 22.3781 44.7122 22.2837C44.6191 22.1893 44.5083 22.1144 44.386 22.0632C44.2638 22.0121 44.1325 21.9858 44 21.9858C43.8675 21.9858 43.7363 22.0121 43.614 22.0632C43.4918 22.1144 43.3809 22.1893 43.2879 22.2837C43.1948 22.3781 43.1215 22.49 43.072 22.613C43.0226 22.7359 42.9981 22.8675 43 23V25H20V23C20.0019 22.8662 19.9768 22.7334 19.9264 22.6095C19.876 22.4855 19.8012 22.373 19.7065 22.2784C19.6118 22.1839 19.4991 22.1094 19.3751 22.0592C19.251 22.009 19.1182 21.9842 18.9844 21.9863ZM8.00002 33C6.75003 33 5.68525 33.5048 5.00198 34.2734C4.31871 35.0421 4.00002 36.0278 4.00002 37C4.00002 37.9722 4.31871 38.9579 5.00198 39.7266C5.68525 40.4952 6.75003 41 8.00002 41C9.25002 41 10.3148 40.4952 10.9981 39.7266C11.6813 38.9579 12 37.9722 12 37C12 36.0278 11.6813 35.0421 10.9981 34.2734C10.3148 33.5048 9.25002 33 8.00002 33ZM18.9844 34.9863C18.7195 34.9905 18.4671 35.0995 18.2826 35.2896C18.098 35.4796 17.9964 35.7351 18 36V38C18 39.0931 18.907 40 20 40H43C44.0931 40 45 39.0931 45 38V36C45.0019 35.8675 44.9774 35.7359 44.928 35.613C44.8786 35.49 44.8052 35.3781 44.7122 35.2837C44.6191 35.1893 44.5083 35.1144 44.386 35.0632C44.2638 35.0121 44.1325 34.9858 44 34.9858C43.8675 34.9858 43.7363 35.0121 43.614 35.0632C43.4918 35.1144 43.3809 35.1893 43.2879 35.2837C43.1948 35.3781 43.1215 35.49 43.072 35.613C43.0226 35.7359 42.9981 35.8675 43 36V38H20V36C20.0019 35.8662 19.9768 35.7334 19.9264 35.6095C19.876 35.4855 19.8012 35.373 19.7065 35.2785C19.6118 35.1839 19.4991 35.1094 19.3751 35.0592C19.251 35.009 19.1182 34.9842 18.9844 34.9863ZM8.00002 35C8.75002 35 9.18525 35.2452 9.50198 35.6016C9.81871 35.9579 10 36.4722 10 37C10 37.5278 9.81871 38.0421 9.50198 38.3984C9.18525 38.7548 8.75002 39 8.00002 39C7.25003 39 6.8148 38.7548 6.49807 38.3984C6.18134 38.0421 6.00002 37.5278 6.00002 37C6.00002 36.4722 6.18134 35.9579 6.49807 35.6016C6.8148 35.2452 7.25003 35 8.00002 35Z" fill="#89B6E1"/>
</svg>
