<svg width="58" height="58" viewBox="0 0 58 58" fill="none" xmlns="http://www.w3.org/2000/svg">
<path fill-rule="evenodd" clip-rule="evenodd" d="M36.4257 46.6579H21.2529C20.8463 46.6579 20.5166 46.3284 20.5166 45.9217C20.5166 41.5857 19.0776 40.0466 17.5542 38.4172C15.8974 36.6452 14.0195 34.6371 14.0195 29.1927C14.0195 21.0211 20.6676 14.373 28.8393 14.373C37.0109 14.373 43.659 21.021 43.659 29.1927C43.659 34.6371 41.7812 36.6454 40.1245 38.4172C38.6011 40.0466 37.162 41.5857 37.162 45.9217C37.162 46.3284 36.8323 46.6579 36.4257 46.6579ZM21.9758 45.1854H35.7026C35.8653 40.8164 37.4824 39.0866 39.0487 37.4115C40.6622 35.6858 42.1863 34.0557 42.1863 29.1926C42.1863 21.8331 36.1988 15.8457 28.8394 15.8457C21.4796 15.8457 15.492 21.8331 15.492 29.1926C15.492 34.0556 17.0161 35.6856 18.6298 37.4115C20.1962 39.0868 21.8133 40.8162 21.9758 45.1854Z" fill="#064681"/>
<path fill-rule="evenodd" clip-rule="evenodd" d="M18.1543 29.9291C17.7476 29.9291 17.418 29.5996 17.418 29.1928C17.418 22.895 22.5417 17.7715 28.8397 17.7715C29.2464 17.7715 29.5761 18.101 29.5761 18.5078C29.5761 18.9144 29.2464 19.2441 28.8397 19.2441C23.3539 19.2441 18.8905 23.7071 18.8905 29.1928C18.8905 29.5996 18.5609 29.9291 18.1543 29.9291Z" fill="#064681"/>
<path fill-rule="evenodd" clip-rule="evenodd" d="M36.7357 50.5096H20.945C20.3012 50.5096 19.7773 49.9858 19.7773 49.3417V46.3533C19.7773 45.7094 20.3012 45.1855 20.945 45.1855L36.7357 45.1857C37.3797 45.1857 37.9036 45.7094 37.9036 46.3533V49.3417C37.9035 49.9858 37.3796 50.5096 36.7357 50.5096ZM21.2499 49.037H36.4311V46.6582H21.2499V49.037Z" fill="#064681"/>
<path fill-rule="evenodd" clip-rule="evenodd" d="M35.2582 54.361H22.4217C21.7777 54.361 21.2539 53.8374 21.2539 53.1934V49.7735C21.2539 49.3668 21.5834 49.0371 21.9902 49.0371H35.6899C36.0965 49.0371 36.4261 49.3668 36.4261 49.7735V53.1934C36.4261 53.8374 35.9021 54.361 35.2582 54.361ZM22.7264 52.8885H34.9534V50.5097H22.7264V52.8885Z" fill="#064681"/>
<path fill-rule="evenodd" clip-rule="evenodd" d="M28.8408 57.9984C26.4289 57.9984 24.4668 56.0364 24.4668 53.6245C24.4668 53.2179 24.7963 52.8882 25.2031 52.8882H32.4782C32.8849 52.8882 33.2145 53.2179 33.2145 53.6245C33.2145 56.0364 31.2525 57.9984 28.8408 57.9984ZM26.034 54.3608C26.3607 55.6051 27.4952 56.5259 28.8408 56.5259C30.1859 56.5259 31.3205 55.6052 31.6472 54.3608H26.034Z" fill="#064681"/>
<path fill-rule="evenodd" clip-rule="evenodd" d="M29.1699 9.80904C28.7633 9.80904 28.4336 9.4795 28.4336 9.07275V0.737995C28.4336 0.331386 28.7633 0.00170898 29.1699 0.00170898C29.5766 0.00170898 29.9062 0.331386 29.9062 0.737995V9.07275C29.9062 9.4795 29.5766 9.80904 29.1699 9.80904Z" fill="#B7DAFB"/>
<path fill-rule="evenodd" clip-rule="evenodd" d="M40.5639 13.0454C40.4388 13.0454 40.3123 13.0135 40.1965 12.9465C39.8442 12.7433 39.7235 12.2929 39.927 11.9408L44.0943 4.72267C44.2976 4.37038 44.7481 4.25009 45.1 4.4532C45.4522 4.65657 45.573 5.10693 45.3695 5.45895L41.2022 12.677C41.0658 12.9132 40.8184 13.0454 40.5639 13.0454Z" fill="#B7DAFB"/>
<path fill-rule="evenodd" clip-rule="evenodd" d="M48.8152 21.5452C48.5607 21.5452 48.3132 21.4131 48.1768 21.1768C47.9736 20.8247 48.0943 20.3744 48.4463 20.1711L55.6645 16.0038C56.0167 15.8005 56.4672 15.9211 56.6703 16.2733C56.8736 16.6254 56.753 17.0757 56.4008 17.279L49.1826 21.4463C49.0667 21.5132 48.9401 21.5452 48.8152 21.5452Z" fill="#B7DAFB"/>
<path fill-rule="evenodd" clip-rule="evenodd" d="M17.6837 12.7041C17.4292 12.7041 17.1818 12.572 17.0453 12.3359L12.8781 5.11764C12.6747 4.76549 12.7955 4.31526 13.1475 4.11189C13.4996 3.90865 13.9499 4.02934 14.1533 4.38136L18.3205 11.5996C18.5239 11.9517 18.4032 12.402 18.0511 12.6053C17.9352 12.6722 17.8086 12.7041 17.6837 12.7041Z" fill="#B7DAFB"/>
<path fill-rule="evenodd" clip-rule="evenodd" d="M9.1823 20.9546C9.05747 20.9546 8.93077 20.9228 8.8149 20.8558L1.59681 16.6884C1.24452 16.4851 1.12397 16.0348 1.32734 15.6826C1.53071 15.3303 1.98121 15.2101 2.33309 15.4132L9.55118 19.5805C9.90334 19.7839 10.024 20.2343 9.82065 20.5863C9.68418 20.8224 9.43679 20.9546 9.1823 20.9546Z" fill="#B7DAFB"/>
</svg>
