<svg width="247" height="52" viewBox="0 0 247 52" fill="none" xmlns="http://www.w3.org/2000/svg">
<path d="M247 0.999996L245.171 6.47599L241.343 2.15366L247 0.999996ZM0.841213 0.634518C1.31121 1.07331 1.79023 1.51421 2.27816 1.95694L1.60619 2.69752C1.11479 2.25164 0.632285 1.80754 0.158787 1.36547L0.841213 0.634518ZM5.28171 4.60762C6.26821 5.45494 7.28562 6.307 8.33318 7.16208L7.70083 7.93676C6.64689 7.07647 5.62307 6.21905 4.63015 5.36621L5.28171 4.60762ZM11.4393 9.63656C12.4759 10.4428 13.5385 11.2503 14.6262 12.0575L14.0303 12.8605C12.9365 12.0488 11.868 11.2368 10.8254 10.4259L11.4393 9.63656ZM17.8533 14.3981C18.9209 15.155 20.0101 15.9104 21.1206 16.6633L20.5595 17.491C19.4432 16.7342 18.3482 15.9748 17.2749 15.2139L17.8533 14.3981ZM24.4635 18.8794C25.562 19.5914 26.6794 20.3001 27.8151 21.0043L27.2882 21.8542C26.1467 21.1464 25.0237 20.4342 23.9196 19.7185L24.4635 18.8794ZM31.2297 23.0746C32.3643 23.7472 33.5158 24.4146 34.6836 25.0761L34.1908 25.9462C33.0172 25.2815 31.8601 24.6107 30.7198 23.9348L31.2297 23.0746ZM38.1654 27.0032C39.3312 27.6337 40.5122 28.2576 41.7078 28.8741L41.2495 29.7629C40.048 29.1434 38.8613 28.5164 37.6897 27.8829L38.1654 27.0032ZM45.2538 30.6588C46.4446 31.2437 47.649 31.8208 48.8666 32.3892L48.4435 33.2953C47.2199 32.7241 46.0096 32.1441 44.8129 31.5564L45.2538 30.6588ZM52.4814 34.0339C53.6934 34.571 54.9176 35.0993 56.1538 35.6179L55.7669 36.54C54.5246 36.0188 53.2942 35.488 52.0762 34.9482L52.4814 34.0339ZM59.8369 37.1201C61.0689 37.6083 62.3119 38.0866 63.5657 38.5543L63.2162 39.4912C61.956 39.0211 60.7067 38.5404 59.4685 38.0498L59.8369 37.1201ZM67.3098 39.9078C68.5603 40.3456 69.821 40.7725 71.0915 41.188L70.7806 42.1384C69.5036 41.7208 68.2364 41.2917 66.9794 40.8517L67.3098 39.9078ZM74.8896 42.3866C76.1573 42.7722 77.4342 43.1461 78.7201 43.5077L78.4493 44.4704C77.1566 44.1068 75.873 43.7309 74.5986 43.3433L74.8896 42.3866ZM82.5656 44.5453C83.8488 44.8768 85.1404 45.1959 86.4401 45.5019L86.2109 46.4753C84.9041 46.1676 83.6055 45.8468 82.3154 45.5135L82.5656 44.5453ZM90.326 46.3723C91.6229 46.6479 92.9274 46.9102 94.2394 47.1588L94.0532 48.1413C92.7339 47.8914 91.4222 47.6276 90.1182 47.3504L90.326 46.3723ZM98.1583 47.8561C99.4669 48.0738 100.782 48.2775 102.105 48.4668L101.963 49.4567C100.633 49.2664 99.3101 49.0614 97.9942 48.8425L98.1583 47.8561ZM106.049 48.9854C107.367 49.1434 108.691 49.2867 110.022 49.4149L109.926 50.4103C108.587 50.2814 107.255 50.1372 105.93 49.9783L106.049 48.9854ZM113.982 49.75C115.307 49.8465 116.638 49.9278 117.975 49.9934L117.926 50.9922C116.581 50.9262 115.242 50.8445 113.909 50.7474L113.982 49.75ZM121.942 50.1407C123.269 50.1743 124.602 50.192 125.94 50.1935L125.938 51.1935C124.593 51.192 123.252 51.1741 121.917 51.1404L121.942 50.1407ZM129.912 50.1502C131.237 50.1198 132.568 50.0732 133.902 50.0099L133.95 51.0088C132.607 51.0724 131.268 51.1193 129.935 51.15L129.912 50.1502ZM137.874 49.7732C139.194 49.6783 140.518 49.5669 141.846 49.4387L141.942 50.434C140.606 50.5631 139.273 50.6751 137.945 50.7706L137.874 49.7732ZM145.81 49.0065C147.12 48.8473 148.435 48.6714 149.752 48.4784L149.897 49.4678C148.571 49.662 147.249 49.839 145.93 49.9992L145.81 49.0065ZM153.703 47.8496C155 47.6268 156.3 47.3871 157.603 47.1303L157.797 48.1115C156.486 48.3699 155.178 48.611 153.873 48.8352L153.703 47.8496ZM161.52 46.308C162.805 46.0218 164.093 45.7186 165.383 45.3982L165.624 46.3687C164.326 46.6911 163.031 46.9961 161.738 47.2841L161.52 46.308ZM169.243 44.3894C170.518 44.0394 171.796 43.6724 173.076 43.2878L173.364 44.2455C172.076 44.6324 170.791 45.0017 169.507 45.3537L169.243 44.3894ZM176.867 42.0995C178.133 41.6862 179.4 41.2556 180.669 40.8073L181.002 41.7503C179.726 42.2012 178.451 42.6343 177.177 43.0501L176.867 42.0995ZM184.381 39.4477C185.619 38.9778 186.859 38.491 188.1 37.9868L188.477 38.9132C187.228 39.4203 185.981 39.91 184.736 40.3827L184.381 39.4477ZM191.777 36.4443C192.984 35.9214 194.193 35.3819 195.402 34.8256L195.82 35.7341C194.604 36.2936 193.388 36.8361 192.174 37.3619L191.777 36.4443ZM199.035 33.1057C200.212 32.5318 201.391 31.9418 202.571 31.3353L203.028 32.2246C201.842 32.8344 200.657 33.4277 199.473 34.0047L199.035 33.1057ZM206.098 29.4732C207.266 28.8407 208.435 28.1918 209.604 27.5263L210.099 28.3953C208.924 29.0643 207.749 29.7166 206.575 30.3525L206.098 29.4732ZM213.02 25.5358C214.159 24.8564 215.298 24.1611 216.437 23.4495L216.967 24.2978C215.822 25.0129 214.677 25.7117 213.532 26.3946L213.02 25.5358ZM219.802 21.3025C220.901 20.5857 222 19.8536 223.099 19.1061L223.662 19.9331C222.557 20.6842 221.452 21.4198 220.348 22.1401L219.802 21.3025ZM226.398 16.8171C227.473 16.0557 228.548 15.2794 229.623 14.4879L230.216 15.2933C229.136 16.0884 228.056 16.8683 226.976 17.6332L226.398 16.8171ZM232.797 12.1077C233.854 11.2994 234.912 10.4764 235.969 9.63824L236.59 10.4219C235.528 11.2636 234.466 12.0904 233.404 12.9022L232.797 12.1077ZM239.063 7.14112C240.078 6.30799 241.092 5.46082 242.107 4.59945L242.754 5.3616C241.736 6.22655 240.717 7.07729 239.698 7.91397L239.063 7.14112Z" fill="#064681"/>
</svg>
