<svg width="248" height="52" viewBox="0 0 248 52" fill="none" xmlns="http://www.w3.org/2000/svg">
<path d="M247.5 50.6937L245.671 45.2177L241.843 49.54L247.5 50.6937ZM1.34121 51.0591C1.81121 50.6203 2.29023 50.1794 2.77816 49.7367L2.10619 48.9961C1.61479 49.442 1.13228 49.8861 0.658787 50.3282L1.34121 51.0591ZM5.78171 47.086C6.76821 46.2387 7.78562 45.3867 8.83318 44.5316L8.20083 43.7569C7.14689 44.6172 6.12307 45.4746 5.13015 46.3274L5.78171 47.086ZM11.9393 42.0571C12.9759 41.2508 14.0385 40.4434 15.1262 39.6362L14.5303 38.8331C13.4365 39.6448 12.368 40.4568 11.3254 41.2677L11.9393 42.0571ZM18.3533 37.2955C19.4209 36.5387 20.5101 35.7832 21.6206 35.0303L21.0595 34.2026C19.9432 34.9594 18.8482 35.7188 17.7749 36.4798L18.3533 37.2955ZM24.9635 32.8143C26.062 32.1022 27.1794 31.3936 28.3151 30.6893L27.7882 29.8395C26.6467 30.5472 25.5237 31.2595 24.4196 31.9752L24.9635 32.8143ZM31.7297 28.6191C32.8643 27.9465 34.0158 27.279 35.1836 26.6176L34.6908 25.7474C33.5172 26.4121 32.3601 27.0829 31.2198 27.7589L31.7297 28.6191ZM38.6654 24.6904C39.8312 24.06 41.0122 23.4361 42.2078 22.8196L41.7495 21.9308C40.548 22.5503 39.3613 23.1772 38.1897 23.8108L38.6654 24.6904ZM45.7538 21.0348C46.9446 20.45 48.149 19.8729 49.3666 19.3044L48.9435 18.3983C47.7199 18.9696 46.5096 19.5495 45.3129 20.1373L45.7538 21.0348ZM52.9814 17.6597C54.1934 17.1226 55.4176 16.5944 56.6538 16.0758L56.2669 15.1536C55.0246 15.6748 53.7942 16.2057 52.5762 16.7455L52.9814 17.6597ZM60.3369 14.5735C61.5689 14.0854 62.8119 13.6071 64.0657 13.1393L63.7162 12.2024C62.456 12.6725 61.2067 13.1532 59.9685 13.6439L60.3369 14.5735ZM67.8098 11.7858C69.0603 11.3481 70.321 10.9212 71.5915 10.5057L71.2806 9.5552C70.0036 9.97285 68.7364 10.402 67.4794 10.842L67.8098 11.7858ZM75.3896 9.30703C76.6573 8.92145 77.9342 8.54754 79.2201 8.18591L78.9493 7.22326C77.6566 7.58682 76.373 7.9627 75.0986 8.3503L75.3896 9.30703ZM83.0656 7.14836C84.3488 6.81681 85.6404 6.49773 86.9401 6.19171L86.7109 5.21833C85.4041 5.52601 84.1055 5.84682 82.8154 6.18016L83.0656 7.14836ZM90.826 5.32136C92.1229 5.04576 93.4274 4.7834 94.7394 4.53485L94.5532 3.55233C93.2339 3.80227 91.9222 4.06608 90.6182 4.3432L90.826 5.32136ZM98.6583 3.83759C99.9669 3.61987 101.282 3.41612 102.605 3.22687L102.463 2.23696C101.133 2.42729 99.8101 2.6322 98.4942 2.85115L98.6583 3.83759ZM106.549 2.70824C107.867 2.55026 109.191 2.40691 110.522 2.27871L110.426 1.28332C109.087 1.41227 107.755 1.55645 106.43 1.71534L106.549 2.70824ZM114.482 1.94365C115.807 1.84711 117.138 1.76582 118.475 1.70029L118.426 0.701489C117.081 0.767415 115.742 0.849183 114.409 0.946297L114.482 1.94365ZM122.442 1.55292C123.769 1.51939 125.102 1.50164 126.44 1.50011L126.438 0.500108C125.093 0.501645 123.752 0.519512 122.417 0.553234L122.442 1.55292ZM130.412 1.54341C131.737 1.57386 133.068 1.62049 134.402 1.68373L134.45 0.684848C133.107 0.621221 131.768 0.574313 130.435 0.543672L130.412 1.54341ZM138.374 1.92047C139.694 2.01535 141.018 2.12672 142.346 2.25499L142.442 1.25962C141.106 1.13056 139.773 1.01851 138.445 0.923044L138.374 1.92047ZM146.31 2.68714C147.62 2.84635 148.935 3.02226 150.252 3.21526L150.397 2.22582C149.071 2.03163 147.749 1.85463 146.43 1.69444L146.31 2.68714ZM154.203 3.84402C155.5 4.06687 156.8 4.3065 158.103 4.56331L158.297 3.58218C156.986 3.3238 155.678 3.08268 154.373 2.85846L154.203 3.84402ZM162.02 5.3856C163.305 5.67185 164.593 5.97501 165.883 6.29545L166.124 5.32494C164.826 5.00255 163.531 4.69753 162.238 4.40953L162.02 5.3856ZM169.743 7.30428C171.018 7.65423 172.296 8.0213 173.576 8.40583L173.864 7.44812C172.576 7.06127 171.291 6.69199 170.007 6.33992L169.743 7.30428ZM177.367 9.59416C178.633 10.0075 179.9 10.4381 181.169 10.8863L181.502 9.94337C180.226 9.4925 178.951 9.05934 177.677 8.64357L177.367 9.59416ZM184.881 12.2459C186.119 12.7158 187.359 13.2027 188.6 13.7069L188.977 12.7804C187.728 12.2733 186.481 11.7836 185.236 11.311L184.881 12.2459ZM192.277 15.2494C193.484 15.7723 194.693 16.3117 195.902 16.8681L196.32 15.9595C195.104 15.4001 193.888 14.8576 192.674 14.3317L192.277 15.2494ZM199.535 18.588C200.712 19.1618 201.891 19.7519 203.071 20.3584L203.528 19.4691C202.342 18.8593 201.157 18.266 199.973 17.689L199.535 18.588ZM206.598 22.2204C207.766 22.853 208.935 23.5019 210.104 24.1674L210.599 23.2983C209.424 22.6293 208.249 21.977 207.075 21.3411L206.598 22.2204ZM213.52 26.1579C214.659 26.8373 215.798 27.5326 216.937 28.2441L217.467 27.3959C216.322 26.6808 215.177 25.9819 214.032 25.2991L213.52 26.1579ZM220.302 30.3911C221.401 31.108 222.5 31.84 223.599 32.5875L224.162 31.7605C223.057 31.0095 221.952 30.2739 220.848 29.5535L220.302 30.3911ZM226.898 34.8766C227.973 35.6379 229.048 36.4142 230.123 37.2057L230.716 36.4004C229.636 35.6053 228.556 34.8254 227.476 34.0605L226.898 34.8766ZM233.297 39.586C234.354 40.3942 235.412 41.2173 236.469 42.0554L237.09 41.2718C236.028 40.43 234.966 39.6033 233.904 38.7914L233.297 39.586ZM239.563 44.5525C240.578 45.3857 241.592 46.2328 242.607 47.0942L243.254 46.3321C242.236 45.4671 241.217 44.6164 240.198 43.7797L239.563 44.5525Z" fill="#064681"/>
</svg>
