<svg width="32" height="35" viewBox="0 0 32 35" fill="none" xmlns="http://www.w3.org/2000/svg">
<g clip-path="url(#clip0_150_381)">
<path d="M29.5059 10.0116L16.0629 33.2961L2.61998 10.0116H29.5059ZM30.1758 8.69116H1.95871C1.79483 8.69105 1.63382 8.73412 1.49188 8.81603C1.34994 8.89794 1.23209 9.01581 1.1502 9.15776C1.06831 9.29971 1.02526 9.46072 1.02539 9.6246C1.02553 9.78848 1.06884 9.94943 1.15097 10.0912L15.2595 34.5346C15.3417 34.6763 15.4596 34.794 15.6016 34.8758C15.7435 34.9576 15.9045 35.0007 16.0683 35.0007C16.2322 35.0007 16.3931 34.9576 16.5351 34.8758C16.677 34.794 16.795 34.6763 16.8772 34.5346L30.9835 10.0912C31.0657 9.94943 31.109 9.78848 31.1091 9.6246C31.1093 9.46072 31.0662 9.29971 30.9843 9.15776C30.9024 9.01581 30.7846 8.89794 30.6426 8.81603C30.5007 8.73412 30.3397 8.69105 30.1758 8.69116Z" fill="#051B37"/>
<path d="M16.0639 0L0.339844 27.2435H31.7879L16.0639 0ZM12.2449 10.5136L13.1345 12.0537L8.82651 19.5129L7.93692 17.9706L12.2449 10.5136ZM9.46408 20.6114L13.772 13.1522L20.8608 25.4299H12.2449L9.46408 20.6114Z" fill="#051B37"/>
</g>
<defs>
<clipPath id="clip0_150_381">
<rect width="31.4567" height="35" fill="white" transform="translate(0.333984)"/>
</clipPath>
</defs>
</svg>
