<svg width="117" height="35" viewBox="0 0 117 35" fill="none" xmlns="http://www.w3.org/2000/svg">
<g clip-path="url(#clip0_150_368)">
<path d="M19.2064 25.9556C16.923 25.9576 14.6797 25.3566 12.7031 24.2134L15.2168 19.8829C16.4275 20.5817 17.8009 20.9495 19.1988 20.9494C20.5967 20.9492 21.9699 20.5812 23.1805 19.8821C24.3911 19.1831 25.3964 18.1777 26.0953 16.9671C26.7942 15.7564 27.1621 14.3831 27.1621 12.9852C27.1621 11.5873 26.7942 10.214 26.0953 9.00339C25.3964 7.79274 24.3911 6.78736 23.1805 6.08833C21.9699 5.38929 20.5967 5.0212 19.1988 5.02106C17.8009 5.02092 16.4275 5.38873 15.2168 6.08752L12.7031 1.75451C14.4266 0.755683 16.3568 0.166939 18.3443 0.0338753C20.3318 -0.099189 22.3232 0.227007 24.1644 0.987181C26.0056 1.74736 27.6471 2.92111 28.9619 4.41756C30.2766 5.91401 31.2292 7.693 31.746 9.61674C32.2628 11.5405 32.3298 13.5574 31.942 15.5112C31.5541 17.465 30.7218 19.3033 29.5093 20.8838C28.2969 22.4643 26.737 23.7445 24.9504 24.6253C23.1637 25.5061 21.1983 25.9638 19.2064 25.9631V25.9556Z" fill="#051B37"/>
<path d="M19.0996 23.2699C19.7696 20.4312 18.0115 17.5868 15.1728 16.9168C12.334 16.2468 9.48961 18.0049 8.8196 20.8436C8.14959 23.6824 9.90772 26.5268 12.7465 27.1968C15.5852 27.8668 18.4296 26.1087 19.0996 23.2699Z" fill="#051B37"/>
<path d="M13.6265 34.9997C11.4426 35.0001 9.29401 34.4485 7.38032 33.3963C5.46663 32.344 3.84989 30.8253 2.68027 28.981C1.51065 27.1367 0.826091 25.0267 0.690166 22.8471C0.554242 20.6674 0.971365 18.4887 1.90279 16.5134C2.83422 14.5381 4.24974 12.8302 6.01788 11.5484C7.78602 10.2666 9.84942 9.45237 12.0164 9.18142C14.1835 8.91048 16.3838 9.19158 18.4131 9.99861C20.4425 10.8056 22.2349 12.1124 23.624 13.7976L19.7614 16.9857C18.7341 15.7391 17.3514 14.835 15.7975 14.3938C14.2435 13.9527 12.592 13.9954 11.0629 14.5164C9.53387 15.0374 8.19982 16.0118 7.23843 17.31C6.27705 18.6081 5.73398 20.1683 5.68154 21.7828C5.6291 23.3974 6.06978 24.9896 6.9449 26.3473C7.82002 27.7051 9.08803 28.7641 10.5801 29.3832C12.0721 30.0023 13.7173 30.1521 15.2967 29.8127C16.876 29.4733 18.3144 28.6609 19.4204 27.4835L23.069 30.9081C21.8562 32.1965 20.3932 33.2239 18.7696 33.9275C17.146 34.631 15.396 34.9958 13.6265 34.9997Z" fill="#051B37"/>
</g>
<path d="M49.4355 25.986C49.4355 28.452 47.4555 30.18 44.2155 30.18C40.9575 30.18 38.9235 28.434 38.7255 25.698H41.4975C41.5695 27.12 42.4875 28.038 44.1615 28.038C45.5475 28.038 46.5375 27.426 46.5375 26.382C46.5375 25.572 45.9075 25.086 44.8095 24.87L42.6855 24.456C40.7235 24.078 39.2115 23.016 39.2115 20.874C39.2115 18.57 41.2455 16.914 44.0355 16.914C46.9335 16.914 49.0575 18.606 49.2375 21.306H46.4655C46.3755 19.956 45.4395 19.038 44.0715 19.038C42.7395 19.038 41.9835 19.794 41.9835 20.694C41.9835 21.576 42.7935 21.954 43.7295 22.134L45.9435 22.584C48.2115 23.034 49.4355 24.078 49.4355 25.986ZM55.8451 30.18C53.0551 30.18 50.9671 27.984 50.9671 25.194C50.9671 22.386 53.0551 20.208 55.8451 20.208C58.6351 20.208 60.7231 22.386 60.7231 25.194C60.7231 27.984 58.6351 30.18 55.8451 30.18ZM55.8451 27.966C57.0871 27.966 58.1491 26.976 58.1491 25.194C58.1491 23.412 57.0871 22.44 55.8451 22.44C54.6031 22.44 53.5411 23.412 53.5411 25.194C53.5411 26.976 54.6031 27.966 55.8451 27.966ZM71.0038 20.388L66.3238 33.474H63.6058L64.9738 29.892L61.1938 20.388H63.8938L66.3058 26.976L68.5018 20.388H71.0038ZM74.9816 30H72.4616V17.076H74.9816V30ZM81.7613 30.162C78.8813 30.162 76.9553 28.164 76.9553 25.158C76.9553 22.296 78.9533 20.208 81.7253 20.208C84.7673 20.208 86.7833 22.674 86.3333 25.806H79.5113C79.6733 27.372 80.4293 28.236 81.7073 28.236C82.8053 28.236 83.5433 27.696 83.8313 26.742H86.3153C85.7753 28.92 84.1013 30.162 81.7613 30.162ZM81.6713 22.044C80.5013 22.044 79.7633 22.8 79.5473 24.222H83.6873C83.6153 22.89 82.8593 22.044 81.6713 22.044ZM90.8711 24.762V30H88.3691V20.388H90.6731V21.756C91.3751 20.802 92.3651 20.208 93.6251 20.208C95.5511 20.208 96.8831 21.468 96.8831 23.79V30H94.3991V24.636C94.3991 23.214 93.8411 22.422 92.7071 22.422C91.7171 22.422 90.8711 23.214 90.8711 24.762ZM105.305 27.57V29.748C104.693 30.054 104.117 30.18 103.379 30.18C101.399 30.18 100.157 29.046 100.157 26.886V22.53H98.2127V20.388H100.157V17.544H102.641V20.388H105.395V22.53H102.641V26.31C102.641 27.426 103.145 27.876 104.045 27.876C104.513 27.876 104.945 27.768 105.305 27.57Z" fill="#051B37"/>
<defs>
<clipPath id="clip0_150_368">
<rect width="31.5182" height="35" fill="white" transform="translate(0.666992)"/>
</clipPath>
</defs>
</svg>
